SplineFontDB: 3.2
FontName: HindSiliguri-Medium
FullName: Hind Siliguri Medium
FamilyName: Hind Siliguri Medium
Weight: Medium
Copyright: Copyright (c) 2015 Indian Type Foundry (info@indiantypefoundry.com)
Version: 1.001;PS 1.0;hotconv 1.0.86;makeotf.lib2.5.63406; ttfautohint (v1.5.33-1714) -l 8 -r 50 -G 200 -x 13 -D latn -f beng -w G -W -c -X ""
ItalicAngle: 0
UnderlinePosition: -150
UnderlineWidth: 50
Ascent: 800
Descent: 200
InvalidEm: 0
sfntRevision: 0x00010042
LayerCount: 2
Layer: 0 1 "Back" 1
Layer: 1 1 "Fore" 0
XUID: [1021 1004 64122485 14025455]
StyleMap: 0x0040
FSType: 0
OS2Version: 4
OS2_WeightWidthSlopeOnly: 0
OS2_UseTypoMetrics: 1
CreationTime: 1445051940
ModificationTime: 1678953328
PfmFamily: 17
TTFWeight: 500
TTFWidth: 5
LineGap: 0
VLineGap: 0
Panose: 2 0 0 0 0 0 0 0 0 0
OS2TypoAscent: 1116
OS2TypoAOffset: 0
OS2TypoDescent: -501
OS2TypoDOffset: 0
OS2TypoLinegap: 0
OS2WinAscent: 1116
OS2WinAOffset: 0
OS2WinDescent: 501
OS2WinDOffset: 0
HheadAscent: 1116
HheadAOffset: 0
HheadDescent: -501
HheadDOffset: 0
OS2SubXSize: 650
OS2SubYSize: 600
OS2SubXOff: 0
OS2SubYOff: 75
OS2SupXSize: 650
OS2SupYSize: 600
OS2SupXOff: 0
OS2SupYOff: 350
OS2StrikeYSize: 50
OS2StrikeYPos: 303
OS2CapHeight: 679
OS2XHeight: 505
OS2Vendor: 'ITFO'
OS2CodePages: 20000093.00000000
OS2UnicodeRanges: 00010007.00000000.00000000.00000000
Lookup: 1 0 0 "Single Substitution lookup 0" { "Single Substitution lookup 0 subtable"  } []
Lookup: 1 0 0 "Single Substitution lookup 1" { "Single Substitution lookup 1 subtable"  } []
Lookup: 1 0 0 "Single Substitution lookup 2" { "Single Substitution lookup 2 subtable"  } []
Lookup: 1 0 0 "Single Substitution lookup 3" { "Single Substitution lookup 3 subtable"  } []
Lookup: 1 0 0 "Single Substitution lookup 4" { "Single Substitution lookup 4 subtable"  } []
Lookup: 1 0 0 "Single Substitution lookup 5" { "Single Substitution lookup 5 subtable"  } []
Lookup: 1 0 0 "Single Substitution lookup 6" { "Single Substitution lookup 6 subtable"  } []

StartChar: .notdef
Encoding: 65536 -1 0
Width: 753
GlyphClass: 1
Flags: W
LayerCount: 2
Fore
SplineSet
581 0 m 1,0,-1
 171 0 l 1,1,-1
 171 701 l 1,2,-1
 581 701 l 1,3,-1
 581 0 l 1,0,-1
237 640 m 1,4,-1
 237 61 l 1,5,-1
 516 61 l 1,6,-1
 516 640 l 1,7,-1
 237 640 l 1,4,-1
EndSplineSet
EndChar

StartChar: exclam
Encoding: 33 33 4
Width: 262
GlyphClass: 2
Flags: W
LayerCount: 2
Fore
SplineSet
179 214 m 1,0,-1
 83 214 l 1,1,-1
 83 674 l 1,2,-1
 179 674 l 1,3,-1
 179 214 l 1,0,-1
199 60 m 0,4,5
 199 31 199 31 179 11.5 c 128,-1,6
 159 -8 159 -8 130 -8 c 128,-1,7
 101 -8 101 -8 81.5 11.5 c 128,-1,8
 62 31 62 31 62 60 c 128,-1,9
 62 89 62 89 81.5 109 c 128,-1,10
 101 129 101 129 130 129 c 0,11,12
 158 129 158 129 178.5 108.5 c 128,-1,13
 199 88 199 88 199 60 c 0,4,5
EndSplineSet
EndChar

StartChar: quotedbl
Encoding: 34 34 5
Width: 322
GlyphClass: 2
Flags: W
LayerCount: 2
Fore
SplineSet
279 437 m 1,0,-1
 194 437 l 1,1,-1
 194 681 l 1,2,-1
 279 681 l 1,3,-1
 279 437 l 1,0,-1
128 437 m 1,4,-1
 43 437 l 1,5,-1
 43 681 l 1,6,-1
 128 681 l 1,7,-1
 128 437 l 1,4,-1
EndSplineSet
EndChar

StartChar: numbersign
Encoding: 35 35 6
Width: 723
GlyphClass: 2
Flags: W
LayerCount: 2
Fore
SplineSet
462 0 m 1,0,-1
 375 0 l 1,1,-1
 410 165 l 1,2,-1
 244 165 l 1,3,-1
 209 0 l 1,4,-1
 123 0 l 1,5,-1
 158 165 l 1,6,-1
 51 165 l 1,7,-1
 51 243 l 1,8,-1
 174 243 l 1,9,-1
 212 427 l 1,10,-1
 99 427 l 1,11,-1
 99 507 l 1,12,-1
 229 507 l 1,13,-1
 264 674 l 1,14,-1
 352 674 l 1,15,-1
 317 507 l 1,16,-1
 483 507 l 1,17,-1
 518 674 l 1,18,-1
 604 674 l 1,19,-1
 569 507 l 1,20,-1
 673 507 l 1,21,-1
 673 427 l 1,22,-1
 552 427 l 1,23,-1
 513 243 l 1,24,-1
 626 243 l 1,25,-1
 626 165 l 1,26,-1
 497 165 l 1,27,-1
 462 0 l 1,0,-1
427 243 m 1,28,-1
 466 427 l 1,29,-1
 300 427 l 1,30,-1
 261 243 l 1,31,-1
 427 243 l 1,28,-1
EndSplineSet
EndChar

StartChar: dollar
Encoding: 36 36 7
Width: 507
GlyphClass: 2
Flags: W
LayerCount: 2
Fore
SplineSet
274 -112 m 1,0,-1
 190 -112 l 1,1,-1
 190 -5 l 1,2,3
 108 3 108 3 51 36 c 1,4,-1
 51 143 l 1,5,6
 130 84 130 84 234 84 c 0,7,8
 289 84 289 84 321.5 109.5 c 128,-1,9
 354 135 354 135 354 180 c 0,10,11
 354 191 354 191 352 200.5 c 128,-1,12
 350 210 350 210 344 219 c 128,-1,13
 338 228 338 228 333 234.5 c 128,-1,14
 328 241 328 241 316.5 248.5 c 128,-1,15
 305 256 305 256 298.5 260.5 c 128,-1,16
 292 265 292 265 276.5 272.5 c 128,-1,17
 261 280 261 280 254 283.5 c 128,-1,18
 247 287 247 287 228 295 c 128,-1,19
 209 303 209 303 202 306 c 0,20,21
 129 339 129 339 88 380 c 128,-1,22
 47 421 47 421 47 493 c 0,23,24
 47 572 47 572 100 621 c 128,-1,25
 153 670 153 670 240 678 c 1,26,-1
 240 785 l 1,27,-1
 325 785 l 1,28,-1
 325 676 l 1,29,30
 385 667 385 667 426 647 c 1,31,-1
 426 545 l 1,32,33
 360 587 360 587 274 587 c 0,34,35
 219 587 219 587 188 562.5 c 128,-1,36
 157 538 157 538 157 498 c 0,37,38
 157 476 157 476 166.5 458.5 c 128,-1,39
 176 441 176 441 199.5 425.5 c 128,-1,40
 223 410 223 410 239.5 402 c 128,-1,41
 256 394 256 394 292 378 c 0,42,43
 330 361 330 361 354 347.5 c 128,-1,44
 378 334 378 334 406 311 c 128,-1,45
 434 288 434 288 447.5 256.5 c 128,-1,46
 461 225 461 225 461 184 c 0,47,48
 461 103 461 103 410 53.5 c 128,-1,49
 359 4 359 4 274 -5 c 1,50,-1
 274 -112 l 1,0,-1
EndSplineSet
EndChar

StartChar: percent
Encoding: 37 37 8
Width: 884
GlyphClass: 2
Flags: W
LayerCount: 2
Fore
SplineSet
304 -1 m 1,0,-1
 212 -1 l 1,1,-1
 576 677 l 1,2,-1
 669 677 l 1,3,-1
 304 -1 l 1,0,-1
383 520 m 0,4,5
 383 450 383 450 334 401 c 128,-1,6
 285 352 285 352 215 352 c 0,7,8
 146 352 146 352 97 401 c 128,-1,9
 48 450 48 450 48 520 c 0,10,11
 48 589 48 589 97 638 c 128,-1,12
 146 687 146 687 215 687 c 0,13,14
 285 687 285 687 334 638 c 128,-1,15
 383 589 383 589 383 520 c 0,4,5
131 520 m 0,16,17
 131 485 131 485 155.5 460 c 128,-1,18
 180 435 180 435 215 435 c 128,-1,19
 250 435 250 435 275 460 c 128,-1,20
 300 485 300 485 300 520 c 128,-1,21
 300 555 300 555 275 579.5 c 128,-1,22
 250 604 250 604 215 604 c 128,-1,23
 180 604 180 604 155.5 579 c 128,-1,24
 131 554 131 554 131 520 c 0,16,17
836 160 m 0,25,26
 836 90 836 90 787 41.5 c 128,-1,27
 738 -7 738 -7 669 -7 c 0,28,29
 599 -7 599 -7 550 41.5 c 128,-1,30
 501 90 501 90 501 160 c 0,31,32
 501 229 501 229 550 278.5 c 128,-1,33
 599 328 599 328 669 328 c 0,34,35
 738 328 738 328 787 278.5 c 128,-1,36
 836 229 836 229 836 160 c 0,25,26
584 160 m 128,-1,38
 584 125 584 125 609 100 c 128,-1,39
 634 75 634 75 669 75 c 128,-1,40
 704 75 704 75 728.5 100 c 128,-1,41
 753 125 753 125 753 160 c 128,-1,42
 753 195 753 195 728.5 220 c 128,-1,43
 704 245 704 245 669 245 c 128,-1,44
 634 245 634 245 609 220 c 128,-1,37
 584 195 584 195 584 160 c 128,-1,38
EndSplineSet
EndChar

StartChar: ampersand
Encoding: 38 38 9
Width: 715
GlyphClass: 2
Flags: W
LayerCount: 2
Fore
SplineSet
231 517 m 0,0,1
 231 487 231 487 250 456.5 c 128,-1,2
 269 426 269 426 311 381 c 1,3,4
 424 436 424 436 424 509 c 0,5,6
 424 551 424 551 398 577.5 c 128,-1,7
 372 604 372 604 324 604 c 0,8,9
 283 604 283 604 257 581 c 128,-1,10
 231 558 231 558 231 517 c 0,0,1
712 0 m 1,11,-1
 584 0 l 1,12,-1
 525 55 l 1,13,14
 443 -8 443 -8 322 -8 c 0,15,16
 204 -8 204 -8 132.5 45 c 128,-1,17
 61 98 61 98 61 178 c 0,18,19
 61 296 61 296 216 351 c 1,20,21
 130 442 130 442 130 517 c 0,22,23
 130 596 130 596 184 643 c 128,-1,24
 238 690 238 690 325 690 c 0,25,26
 415 690 415 690 469.5 640.5 c 128,-1,27
 524 591 524 591 524 512 c 0,28,29
 524 453 524 453 488 407 c 128,-1,30
 452 361 452 361 370 324 c 1,31,-1
 518 183 l 1,32,33
 541 223 541 223 544 277 c 1,34,-1
 636 277 l 1,35,36
 631 188 631 188 585 120 c 1,37,-1
 712 0 l 1,11,-1
321 78 m 0,38,39
 403 78 403 78 459 118 c 1,40,-1
 276 290 l 1,41,-1
 275 291 l 1,42,43
 216 269 216 269 189 243.5 c 128,-1,44
 162 218 162 218 162 181 c 0,45,46
 162 134 162 134 207 106 c 128,-1,47
 252 78 252 78 321 78 c 0,38,39
EndSplineSet
EndChar

StartChar: quotesingle
Encoding: 39 39 10
Width: 171
GlyphClass: 2
Flags: W
LayerCount: 2
Fore
SplineSet
128 437 m 1,0,-1
 43 437 l 1,1,-1
 43 681 l 1,2,-1
 128 681 l 1,3,-1
 128 437 l 1,0,-1
EndSplineSet
EndChar

StartChar: parenleft
Encoding: 40 40 11
Width: 318
GlyphClass: 2
Flags: W
LayerCount: 2
Fore
SplineSet
331 -196 m 1,0,-1
 224 -196 l 1,1,2
 62 7 62 7 62 261 c 0,3,4
 62 511 62 511 217 707 c 1,5,-1
 323 707 l 1,6,7
 246 607 246 607 206.5 489.5 c 128,-1,8
 167 372 167 372 167 256 c 0,9,10
 167 144 167 144 209 25 c 128,-1,11
 251 -94 251 -94 331 -196 c 1,0,-1
EndSplineSet
EndChar

StartChar: parenright
Encoding: 41 41 12
Width: 318
GlyphClass: 2
Flags: W
LayerCount: 2
Fore
SplineSet
95 -196 m 1,0,-1
 -13 -196 l 1,1,2
 67 -94 67 -94 109.5 25.5 c 128,-1,3
 152 145 152 145 152 256 c 0,4,5
 152 371 152 371 112 488.5 c 128,-1,6
 72 606 72 606 -4 707 c 1,7,-1
 102 707 l 1,8,9
 256 512 256 512 256 261 c 0,10,11
 256 8 256 8 95 -196 c 1,0,-1
EndSplineSet
EndChar

StartChar: asterisk
Encoding: 42 42 13
Width: 437
GlyphClass: 2
Flags: W
LayerCount: 2
Fore
SplineSet
360 360 m 1,0,-1
 296 313 l 1,1,-1
 239 391 l 2,2,3
 227 408 227 408 219 431 c 1,4,5
 215 413 215 413 199 391 c 2,6,-1
 141 313 l 1,7,-1
 76 360 l 1,8,-1
 134 438 l 2,9,10
 148 457 148 457 167 470 c 1,11,-1
 161 470 l 2,12,13
 139 470 139 470 121 476 c 2,14,-1
 29 507 l 1,15,-1
 53 583 l 1,16,-1
 146 553 l 2,17,18
 171 544 171 544 187 530 c 1,19,20
 178 553 178 553 178 577 c 2,21,-1
 178 674 l 1,22,-1
 258 674 l 1,23,-1
 258 577 l 2,24,25
 258 551 258 551 250 532 c 1,26,27
 268 546 268 546 291 554 c 2,28,-1
 383 583 l 1,29,-1
 408 507 l 1,30,-1
 316 477 l 2,31,32
 298 471 298 471 276 471 c 2,33,-1
 271 471 l 1,34,35
 289 460 289 460 304 439 c 2,36,-1
 360 360 l 1,0,-1
EndSplineSet
EndChar

StartChar: plus
Encoding: 43 43 14
Width: 564
GlyphClass: 2
Flags: W
LayerCount: 2
Fore
SplineSet
510 295 m 1,0,-1
 325 295 l 1,1,-1
 325 109 l 1,2,-1
 234 109 l 1,3,-1
 234 295 l 1,4,-1
 53 295 l 1,5,-1
 53 384 l 1,6,-1
 234 384 l 1,7,-1
 234 571 l 1,8,-1
 325 571 l 1,9,-1
 325 384 l 1,10,-1
 510 384 l 1,11,-1
 510 295 l 1,0,-1
EndSplineSet
EndChar

StartChar: comma
Encoding: 44 44 15
Width: 245
GlyphClass: 2
Flags: W
LayerCount: 2
Fore
SplineSet
78 -124 m 1,0,-1
 -8 -124 l 1,1,-1
 88 110 l 1,2,-1
 209 110 l 1,3,-1
 78 -124 l 1,0,-1
EndSplineSet
EndChar

StartChar: hyphen
Encoding: 45 45 16
Width: 350
GlyphClass: 2
Flags: W
LayerCount: 2
Fore
SplineSet
297 225 m 1,0,-1
 53 225 l 1,1,-1
 53 309 l 1,2,-1
 297 309 l 1,3,-1
 297 225 l 1,0,-1
EndSplineSet
EndChar

StartChar: period
Encoding: 46 46 17
Width: 193
GlyphClass: 2
Flags: W
LayerCount: 2
Fore
SplineSet
164 60 m 128,-1,1
 164 32 164 32 144.5 12 c 128,-1,2
 125 -8 125 -8 97 -8 c 0,3,4
 68 -8 68 -8 48.5 12 c 128,-1,5
 29 32 29 32 29 60 c 128,-1,6
 29 88 29 88 48.5 107.5 c 128,-1,7
 68 127 68 127 97 127 c 0,8,9
 125 127 125 127 144.5 107.5 c 128,-1,0
 164 88 164 88 164 60 c 128,-1,1
EndSplineSet
EndChar

StartChar: slash
Encoding: 47 47 18
Width: 421
GlyphClass: 2
Flags: W
LayerCount: 2
Fore
SplineSet
94 -102 m 1,0,-1
 -7 -102 l 1,1,-1
 356 707 l 1,2,-1
 457 707 l 1,3,-1
 94 -102 l 1,0,-1
EndSplineSet
EndChar

StartChar: zero
Encoding: 48 48 19
Width: 545
GlyphClass: 2
Flags: W
LayerCount: 2
Fore
SplineSet
504 329 m 0,0,1
 504 176 504 176 443.5 84 c 128,-1,2
 383 -8 383 -8 271 -8 c 0,3,4
 164 -8 164 -8 102.5 84 c 128,-1,5
 41 176 41 176 41 329 c 0,6,7
 41 483 41 483 102.5 573.5 c 128,-1,8
 164 664 164 664 271 664 c 0,9,10
 380 664 380 664 442 574 c 128,-1,11
 504 484 504 484 504 329 c 0,0,1
141 329 m 128,-1,13
 141 212 141 212 177.5 147.5 c 128,-1,14
 214 83 214 83 271 83 c 0,15,16
 333 83 333 83 368 147 c 128,-1,17
 403 211 403 211 403 329 c 0,18,19
 403 448 403 448 366.5 510.5 c 128,-1,20
 330 573 330 573 271 573 c 0,21,22
 215 573 215 573 178 509.5 c 128,-1,12
 141 446 141 446 141 329 c 128,-1,13
EndSplineSet
EndChar

StartChar: one
Encoding: 49 49 20
Width: 340
GlyphClass: 2
Flags: W
LayerCount: 2
Fore
SplineSet
268 0 m 1,0,-1
 171 0 l 1,1,-1
 171 547 l 1,2,-1
 16 452 l 1,3,-1
 16 557 l 1,4,-1
 179 654 l 1,5,-1
 268 654 l 1,6,-1
 268 0 l 1,0,-1
EndSplineSet
EndChar

StartChar: two
Encoding: 50 50 21
Width: 496
GlyphClass: 2
Flags: W
LayerCount: 2
Fore
SplineSet
455 0 m 1,0,-1
 36 0 l 1,1,-1
 36 81 l 1,2,3
 162 173 162 173 248.5 271.5 c 128,-1,4
 335 370 335 370 335 451 c 0,5,6
 335 508 335 508 302 538.5 c 128,-1,7
 269 569 269 569 211 569 c 0,8,9
 131 569 131 569 54 509 c 1,10,-1
 54 606 l 1,11,12
 126 661 126 661 225 661 c 0,13,14
 317 661 317 661 377 609.5 c 128,-1,15
 437 558 437 558 437 463 c 0,16,17
 437 287 437 287 171 85 c 1,18,-1
 455 85 l 1,19,-1
 455 0 l 1,0,-1
EndSplineSet
EndChar

StartChar: three
Encoding: 51 51 22
Width: 471
GlyphClass: 2
Flags: W
LayerCount: 2
Fore
SplineSet
424 180 m 0,0,1
 424 99 424 99 366 46.5 c 128,-1,2
 308 -6 308 -6 203 -6 c 0,3,4
 104 -6 104 -6 36 28 c 1,5,-1
 36 124 l 1,6,7
 110 84 110 84 198 84 c 0,8,9
 257 84 257 84 290.5 113.5 c 128,-1,10
 324 143 324 143 324 189 c 0,11,12
 324 237 324 237 287 263 c 128,-1,13
 250 289 250 289 176 289 c 2,14,-1
 136 289 l 1,15,-1
 136 373 l 1,16,-1
 176 373 l 2,17,18
 231 373 231 373 268.5 400.5 c 128,-1,19
 306 428 306 428 306 476 c 128,-1,20
 306 524 306 524 275.5 548 c 128,-1,21
 245 572 245 572 192 572 c 0,22,23
 124 572 124 572 57 530 c 1,24,-1
 57 625 l 1,25,26
 119 661 119 661 195 661 c 0,27,28
 295 661 295 661 351.5 611.5 c 128,-1,29
 408 562 408 562 408 487 c 0,30,31
 408 433 408 433 381.5 392.5 c 128,-1,32
 355 352 355 352 303 331 c 1,33,34
 360 317 360 317 392 278 c 128,-1,35
 424 239 424 239 424 180 c 0,0,1
EndSplineSet
EndChar

StartChar: four
Encoding: 52 52 23
Width: 546
GlyphClass: 2
Flags: W
LayerCount: 2
Fore
SplineSet
137 238 m 1,0,-1
 334 238 l 1,1,-1
 334 595 l 1,2,-1
 137 238 l 1,0,-1
432 0 m 1,3,-1
 334 0 l 1,4,-1
 334 153 l 1,5,-1
 38 153 l 1,6,-1
 38 238 l 1,7,-1
 273 655 l 1,8,-1
 432 655 l 1,9,-1
 432 238 l 1,10,-1
 524 238 l 1,11,-1
 524 153 l 1,12,-1
 432 153 l 1,13,-1
 432 0 l 1,3,-1
EndSplineSet
EndChar

StartChar: five
Encoding: 53 53 24
Width: 507
GlyphClass: 2
Flags: W
LayerCount: 2
Fore
SplineSet
466 208 m 0,0,1
 466 110 466 110 401.5 51.5 c 128,-1,2
 337 -7 337 -7 222 -7 c 0,3,4
 119 -7 119 -7 52 27 c 1,5,-1
 52 122 l 1,6,7
 116 83 116 83 206 83 c 0,8,9
 364 83 364 83 364 211 c 0,10,11
 364 262 364 262 328.5 290.5 c 128,-1,12
 293 319 293 319 233 319 c 0,13,14
 157 319 157 319 83 284 c 1,15,-1
 83 655 l 1,16,-1
 422 655 l 1,17,-1
 422 570 l 1,18,-1
 180 570 l 1,19,-1
 180 398 l 1,20,21
 217 406 217 406 248 406 c 0,22,23
 350 406 350 406 408 352.5 c 128,-1,24
 466 299 466 299 466 208 c 0,0,1
EndSplineSet
EndChar

StartChar: six
Encoding: 54 54 25
Width: 529
GlyphClass: 2
Flags: W
LayerCount: 2
Fore
SplineSet
496 213 m 0,0,1
 496 113 496 113 438 50 c 128,-1,2
 380 -13 380 -13 282 -13 c 0,3,4
 168 -13 168 -13 107.5 72 c 128,-1,5
 47 157 47 157 47 297 c 0,6,7
 47 461 47 461 130.5 566 c 128,-1,8
 214 671 214 671 354 671 c 0,9,10
 404 671 404 671 449 656 c 1,11,-1
 449 561 l 1,12,13
 410 581 410 581 358 581 c 0,14,15
 270 581 270 581 217 518.5 c 128,-1,16
 164 456 164 456 150 358 c 1,17,18
 215 421 215 421 304 421 c 128,-1,19
 393 421 393 421 444.5 364 c 128,-1,20
 496 307 496 307 496 213 c 0,0,1
283 76 m 0,21,22
 335 76 335 76 365 113.5 c 128,-1,23
 395 151 395 151 395 212 c 0,24,25
 395 269 395 269 365 302 c 128,-1,26
 335 335 335 335 285 335 c 0,27,28
 207 335 207 335 147 270 c 1,29,30
 151 173 151 173 188.5 124.5 c 128,-1,31
 226 76 226 76 283 76 c 0,21,22
EndSplineSet
EndChar

StartChar: seven
Encoding: 55 55 26
Width: 459
GlyphClass: 2
Flags: W
LayerCount: 2
Fore
SplineSet
179 0 m 1,0,-1
 74 0 l 1,1,-1
 341 569 l 1,2,-1
 14 569 l 1,3,-1
 14 654 l 1,4,-1
 445 654 l 1,5,-1
 445 569 l 1,6,-1
 179 0 l 1,0,-1
EndSplineSet
EndChar

StartChar: eight
Encoding: 56 56 27
Width: 538
GlyphClass: 2
Flags: W
LayerCount: 2
Fore
SplineSet
492 174 m 0,0,1
 492 91 492 91 428 41 c 128,-1,2
 364 -9 364 -9 266 -9 c 0,3,4
 170 -9 170 -9 108 39.5 c 128,-1,5
 46 88 46 88 46 169 c 0,6,7
 46 285 46 285 157 328 c 1,8,9
 110 348 110 348 83.5 386 c 128,-1,10
 57 424 57 424 57 475 c 0,11,12
 57 563 57 563 118 613 c 128,-1,13
 179 663 179 663 266 663 c 0,14,15
 356 663 356 663 417 614.5 c 128,-1,16
 478 566 478 566 478 474 c 0,17,18
 478 375 478 375 380 329 c 1,19,20
 492 291 492 291 492 174 c 0,0,1
146 173 m 0,21,22
 146 131 146 131 177 103 c 128,-1,23
 208 75 208 75 267 75 c 0,24,25
 328 75 328 75 360.5 105 c 128,-1,26
 393 135 393 135 393 179 c 128,-1,27
 393 223 393 223 361 253 c 128,-1,28
 329 283 329 283 267 283 c 0,29,30
 207 282 207 282 176.5 250.5 c 128,-1,31
 146 219 146 219 146 173 c 0,21,22
157 476 m 0,32,33
 157 425 157 425 188.5 398.5 c 128,-1,34
 220 372 220 372 270 372 c 0,35,36
 317 372 317 372 347.5 399.5 c 128,-1,37
 378 427 378 427 378 477 c 0,38,39
 378 521 378 521 350.5 550 c 128,-1,40
 323 579 323 579 266 579 c 0,41,42
 215 579 215 579 186 549 c 128,-1,43
 157 519 157 519 157 476 c 0,32,33
EndSplineSet
EndChar

StartChar: nine
Encoding: 57 57 28
Width: 512
GlyphClass: 2
Flags: W
LayerCount: 2
Fore
SplineSet
252 316 m 0,0,1
 328 316 328 316 375 375 c 1,2,3
 373 467 373 467 341.5 520 c 128,-1,4
 310 573 310 573 247 573 c 0,5,6
 195 573 195 573 164 538.5 c 128,-1,7
 133 504 133 504 133 445 c 0,8,9
 133 385 133 385 165.5 350.5 c 128,-1,10
 198 316 198 316 252 316 c 0,0,1
472 366 m 0,11,12
 472 188 472 188 396.5 90 c 128,-1,13
 321 -8 321 -8 180 -8 c 0,14,15
 116 -8 116 -8 65 11 c 1,16,-1
 65 106 l 1,17,18
 116 83 116 83 173 83 c 0,19,20
 345 83 345 83 371 287 c 1,21,22
 323 232 323 232 228 232 c 0,23,24
 146 232 146 232 88.5 290 c 128,-1,25
 31 348 31 348 31 443 c 128,-1,26
 31 538 31 538 88 600 c 128,-1,27
 145 662 145 662 243 662 c 0,28,29
 355 662 355 662 413.5 579.5 c 128,-1,30
 472 497 472 497 472 366 c 0,11,12
EndSplineSet
EndChar

StartChar: colon
Encoding: 58 58 29
Width: 250
GlyphClass: 2
Flags: W
LayerCount: 2
Fore
SplineSet
192 391 m 128,-1,1
 192 363 192 363 172.5 343.5 c 128,-1,2
 153 324 153 324 125 324 c 0,3,4
 96 324 96 324 77 343 c 128,-1,5
 58 362 58 362 58 391 c 0,6,7
 58 419 58 419 77.5 438.5 c 128,-1,8
 97 458 97 458 125 458 c 128,-1,9
 153 458 153 458 172.5 438.5 c 128,-1,0
 192 419 192 419 192 391 c 128,-1,1
192 66 m 128,-1,11
 192 38 192 38 172.5 18.5 c 128,-1,12
 153 -1 153 -1 125 -1 c 0,13,14
 96 -1 96 -1 77 18.5 c 128,-1,15
 58 38 58 38 58 66 c 128,-1,16
 58 94 58 94 77.5 113.5 c 128,-1,17
 97 133 97 133 125 133 c 128,-1,18
 153 133 153 133 172.5 113.5 c 128,-1,10
 192 94 192 94 192 66 c 128,-1,11
EndSplineSet
EndChar

StartChar: semicolon
Encoding: 59 59 30
Width: 245
GlyphClass: 2
Flags: W
LayerCount: 2
Fore
SplineSet
78 -124 m 1,0,-1
 -8 -124 l 1,1,-1
 88 110 l 1,2,-1
 209 110 l 1,3,-1
 78 -124 l 1,0,-1
205 390 m 128,-1,5
 205 362 205 362 185.5 343 c 128,-1,6
 166 324 166 324 137 324 c 0,7,8
 109 324 109 324 90 343 c 128,-1,9
 71 362 71 362 71 390 c 0,10,11
 71 419 71 419 90 438.5 c 128,-1,12
 109 458 109 458 137 458 c 0,13,14
 166 458 166 458 185.5 438 c 128,-1,4
 205 418 205 418 205 390 c 128,-1,5
EndSplineSet
EndChar

StartChar: less
Encoding: 60 60 31
Width: 545
GlyphClass: 2
Flags: W
LayerCount: 2
Fore
SplineSet
497 208 m 1,0,-1
 497 108 l 1,1,-1
 53 293 l 1,2,-1
 53 388 l 1,3,-1
 497 573 l 1,4,-1
 497 473 l 1,5,-1
 155 341 l 1,6,-1
 497 208 l 1,0,-1
EndSplineSet
EndChar

StartChar: equal
Encoding: 61 61 32
Width: 564
GlyphClass: 2
Flags: W
LayerCount: 2
Fore
SplineSet
510 403 m 1,0,-1
 53 403 l 1,1,-1
 53 487 l 1,2,-1
 510 487 l 1,3,-1
 510 403 l 1,0,-1
510 193 m 1,4,-1
 53 193 l 1,5,-1
 53 278 l 1,6,-1
 510 278 l 1,7,-1
 510 193 l 1,4,-1
EndSplineSet
EndChar

StartChar: greater
Encoding: 62 62 33
Width: 545
GlyphClass: 2
Flags: W
LayerCount: 2
Fore
SplineSet
491 293 m 1,0,-1
 48 108 l 1,1,-1
 48 208 l 1,2,-1
 390 341 l 1,3,-1
 48 473 l 1,4,-1
 48 573 l 1,5,-1
 491 388 l 1,6,-1
 491 293 l 1,0,-1
EndSplineSet
EndChar

StartChar: question
Encoding: 63 63 34
Width: 454
GlyphClass: 2
Flags: W
LayerCount: 2
Fore
SplineSet
230 214 m 1,0,-1
 137 214 l 1,1,-1
 136 375 l 1,2,3
 317 375 317 375 317 492 c 0,4,5
 317 539 317 539 287 567.5 c 128,-1,6
 257 596 257 596 199 596 c 0,7,8
 125 596 125 596 51 548 c 1,9,-1
 51 645 l 1,10,11
 116 682 116 682 208 682 c 0,12,13
 303 682 303 682 360.5 633.5 c 128,-1,14
 418 585 418 585 418 499 c 0,15,16
 418 414 418 414 360 367 c 128,-1,17
 302 320 302 320 231 315 c 1,18,-1
 230 214 l 1,0,-1
251 60 m 128,-1,20
 251 31 251 31 231 11.5 c 128,-1,21
 211 -8 211 -8 182 -8 c 128,-1,22
 153 -8 153 -8 133.5 11.5 c 128,-1,23
 114 31 114 31 114 60 c 128,-1,24
 114 89 114 89 134 109 c 128,-1,25
 154 129 154 129 182 129 c 0,26,27
 211 129 211 129 231 109 c 128,-1,19
 251 89 251 89 251 60 c 128,-1,20
EndSplineSet
EndChar

StartChar: at
Encoding: 64 64 35
Width: 926
GlyphClass: 2
Flags: W
LayerCount: 2
Fore
SplineSet
611 -146 m 1,0,1
 536 -182 536 -182 430 -182 c 0,2,3
 256 -182 256 -182 155 -74.5 c 128,-1,4
 54 33 54 33 54 197 c 0,5,6
 54 319 54 319 114.5 419 c 128,-1,7
 175 519 175 519 277 574.5 c 128,-1,8
 379 630 379 630 499 630 c 0,9,10
 660 630 660 630 771.5 530.5 c 128,-1,11
 883 431 883 431 883 267 c 0,12,13
 883 152 883 152 827 83.5 c 128,-1,14
 771 15 771 15 698 15 c 0,15,16
 598 15 598 15 570 108 c 1,17,18
 522 13 522 13 421 13 c 0,19,20
 345 13 345 13 301 68 c 128,-1,21
 257 123 257 123 257 205 c 0,22,23
 257 299 257 299 314 361 c 128,-1,24
 371 423 371 423 454 423 c 0,25,26
 535 423 535 423 573 356 c 1,27,28
 573 365 573 365 574.5 386 c 128,-1,29
 576 407 576 407 577 419 c 1,30,-1
 657 419 l 1,31,-1
 647 316 l 2,32,33
 640 226 640 226 640 196 c 0,34,35
 640 93 640 93 702 93 c 0,36,37
 743 93 743 93 770.5 139.5 c 128,-1,38
 798 186 798 186 798 261 c 0,39,40
 798 399 798 399 713 473.5 c 128,-1,41
 628 548 628 548 496 548 c 0,42,43
 350 548 350 548 247.5 446 c 128,-1,44
 145 344 145 344 145 196 c 0,45,46
 145 56 145 56 228 -21.5 c 128,-1,47
 311 -99 311 -99 431 -99 c 0,48,49
 532 -99 532 -99 615 -55 c 1,50,-1
 611 -146 l 1,0,1
442 89 m 0,51,52
 481 89 481 89 514.5 116.5 c 128,-1,53
 548 144 548 144 562 193 c 0,54,55
 562 199 562 199 563 209 c 128,-1,56
 564 219 564 219 564.5 227.5 c 128,-1,57
 565 236 565 236 565 244 c 0,58,59
 549 347 549 347 463 347 c 0,60,61
 413 347 413 347 380.5 305.5 c 128,-1,62
 348 264 348 264 348 200 c 0,63,64
 348 150 348 150 374.5 119.5 c 128,-1,65
 401 89 401 89 442 89 c 0,51,52
EndSplineSet
EndChar

StartChar: A
Encoding: 65 65 36
Width: 660
GlyphClass: 2
Flags: W
LayerCount: 2
Fore
SplineSet
233 285 m 2,0,-1
 222 251 l 1,1,-1
 438 251 l 1,2,-1
 427 285 l 2,3,4
 389 403 389 403 365 480.5 c 128,-1,5
 341 558 341 558 336 577 c 2,6,-1
 331 596 l 1,7,8
 320 549 320 549 233 285 c 2,0,-1
140 0 m 1,9,-1
 31 0 l 1,10,-1
 264 674 l 1,11,-1
 399 674 l 1,12,-1
 629 0 l 1,13,-1
 519 0 l 1,14,-1
 466 165 l 1,15,-1
 194 165 l 1,16,-1
 140 0 l 1,9,-1
EndSplineSet
EndChar

StartChar: B
Encoding: 66 66 37
Width: 581
GlyphClass: 2
Flags: W
LayerCount: 2
Fore
SplineSet
332 0 m 2,0,-1
 73 0 l 1,1,-1
 73 674 l 1,2,-1
 294 674 l 2,3,4
 400 674 400 674 461 624.5 c 128,-1,5
 522 575 522 575 522 494 c 0,6,7
 522 438 522 438 490.5 396 c 128,-1,8
 459 354 459 354 410 342 c 1,9,10
 465 332 465 332 502.5 291 c 128,-1,11
 540 250 540 250 540 181 c 0,12,13
 540 101 540 101 485.5 50.5 c 128,-1,14
 431 0 431 0 332 0 c 2,0,-1
286 589 m 2,15,-1
 176 589 l 1,16,-1
 176 382 l 1,17,-1
 269 382 l 2,18,19
 344 382 344 382 380.5 412.5 c 128,-1,20
 417 443 417 443 417 492 c 0,21,22
 417 535 417 535 384.5 562 c 128,-1,23
 352 589 352 589 286 589 c 2,15,-1
298 298 m 2,24,-1
 176 298 l 1,25,-1
 176 85 l 1,26,-1
 308 85 l 2,27,28
 435 85 435 85 435 190 c 0,29,30
 435 241 435 241 400.5 269.5 c 128,-1,31
 366 298 366 298 298 298 c 2,24,-1
EndSplineSet
EndChar

StartChar: C
Encoding: 67 67 38
Width: 605
GlyphClass: 2
Flags: W
LayerCount: 2
Fore
SplineSet
561 33 m 1,0,1
 499 -8 499 -8 389 -8 c 0,2,3
 238 -8 238 -8 142 86 c 128,-1,4
 46 180 46 180 46 338 c 0,5,6
 46 491 46 491 142.5 587 c 128,-1,7
 239 683 239 683 387 683 c 0,8,9
 495 683 495 683 560 646 c 1,10,-1
 560 545 l 1,11,12
 516 569 516 569 480.5 578.5 c 128,-1,13
 445 588 445 588 390 588 c 0,14,15
 289 588 289 588 221.5 519.5 c 128,-1,16
 154 451 154 451 154 338 c 0,17,18
 154 223 154 223 221 155 c 128,-1,19
 288 87 288 87 398 87 c 0,20,21
 495 87 495 87 561 137 c 1,22,-1
 561 33 l 1,0,1
EndSplineSet
EndChar

StartChar: D
Encoding: 68 68 39
Width: 667
GlyphClass: 2
Flags: W
LayerCount: 2
Fore
SplineSet
285 0 m 2,0,-1
 73 0 l 1,1,-1
 73 674 l 1,2,-1
 283 674 l 2,3,4
 433 674 433 674 529 581 c 128,-1,5
 625 488 625 488 625 344 c 0,6,7
 625 194 625 194 534.5 97 c 128,-1,8
 444 0 444 0 285 0 c 2,0,-1
281 586 m 2,9,-1
 178 586 l 1,10,-1
 178 87 l 1,11,-1
 284 87 l 2,12,13
 399 87 399 87 459 159 c 128,-1,14
 519 231 519 231 519 344 c 0,15,16
 519 448 519 448 454 517 c 128,-1,17
 389 586 389 586 281 586 c 2,9,-1
EndSplineSet
EndChar

StartChar: E
Encoding: 69 69 40
Width: 514
GlyphClass: 2
Flags: W
LayerCount: 2
Fore
SplineSet
462 0 m 1,0,-1
 73 0 l 1,1,-1
 73 674 l 1,2,-1
 457 674 l 1,3,-1
 457 588 l 1,4,-1
 176 588 l 1,5,-1
 176 380 l 1,6,-1
 425 380 l 1,7,-1
 425 294 l 1,8,-1
 176 294 l 1,9,-1
 176 86 l 1,10,-1
 462 86 l 1,11,-1
 462 0 l 1,0,-1
EndSplineSet
EndChar

StartChar: F
Encoding: 70 70 41
Width: 494
GlyphClass: 2
Flags: W
LayerCount: 2
Fore
SplineSet
421 281 m 1,0,-1
 176 281 l 1,1,-1
 176 0 l 1,2,-1
 73 0 l 1,3,-1
 73 674 l 1,4,-1
 455 674 l 1,5,-1
 455 588 l 1,6,-1
 176 588 l 1,7,-1
 176 367 l 1,8,-1
 421 367 l 1,9,-1
 421 281 l 1,0,-1
EndSplineSet
EndChar

StartChar: G
Encoding: 71 71 42
Width: 681
GlyphClass: 2
Flags: W
LayerCount: 2
Fore
SplineSet
615 55 m 1,0,1
 528 -8 528 -8 397 -8 c 0,2,3
 239 -8 239 -8 142.5 85 c 128,-1,4
 46 178 46 178 46 338 c 0,5,6
 46 493 46 493 143.5 589.5 c 128,-1,7
 241 686 241 686 391 686 c 0,8,9
 508 686 508 686 587 641 c 1,10,-1
 587 535 l 1,11,12
 501 589 501 589 395 589 c 0,13,14
 287 589 287 589 220.5 520 c 128,-1,15
 154 451 154 451 154 338 c 0,16,17
 154 222 154 222 219.5 155 c 128,-1,18
 285 88 285 88 400 88 c 0,19,20
 460 88 460 88 514 110 c 1,21,-1
 514 296 l 1,22,-1
 377 296 l 1,23,-1
 377 385 l 1,24,-1
 615 385 l 1,25,-1
 615 62 l 1,26,-1
 614 62 l 1,27,-1
 615 55 l 1,0,1
EndSplineSet
EndChar

StartChar: H
Encoding: 72 72 43
Width: 656
GlyphClass: 2
Flags: W
LayerCount: 2
Fore
SplineSet
582 0 m 1,0,-1
 479 0 l 1,1,-1
 479 295 l 1,2,-1
 176 295 l 1,3,-1
 176 0 l 1,4,-1
 73 0 l 1,5,-1
 73 674 l 1,6,-1
 176 674 l 1,7,-1
 176 384 l 1,8,-1
 479 384 l 1,9,-1
 479 674 l 1,10,-1
 582 674 l 1,11,-1
 582 0 l 1,0,-1
EndSplineSet
EndChar

StartChar: I
Encoding: 73 73 44
Width: 264
GlyphClass: 2
Flags: W
LayerCount: 2
Fore
SplineSet
183 0 m 1,0,-1
 81 0 l 1,1,-1
 81 674 l 1,2,-1
 183 674 l 1,3,-1
 183 0 l 1,0,-1
EndSplineSet
EndChar

StartChar: J
Encoding: 74 74 45
Width: 368
GlyphClass: 2
Flags: W
LayerCount: 2
Fore
SplineSet
297 182 m 2,0,1
 297 89 297 89 251.5 44.5 c 128,-1,2
 206 0 206 0 129 0 c 0,3,4
 67 0 67 0 30 21 c 1,5,-1
 30 116 l 1,6,7
 71 91 71 91 112 91 c 0,8,9
 194 91 194 91 194 178 c 2,10,-1
 194 674 l 1,11,-1
 297 674 l 1,12,-1
 297 182 l 2,0,1
EndSplineSet
EndChar

StartChar: K
Encoding: 75 75 46
Width: 599
GlyphClass: 2
Flags: W
LayerCount: 2
Fore
SplineSet
574 0 m 1,0,-1
 444 0 l 1,1,-1
 189 333 l 1,2,-1
 434 674 l 1,3,-1
 559 674 l 1,4,-1
 312 334 l 1,5,-1
 574 0 l 1,0,-1
176 0 m 1,6,-1
 73 0 l 1,7,-1
 73 674 l 1,8,-1
 176 674 l 1,9,-1
 176 0 l 1,6,-1
EndSplineSet
EndChar

StartChar: L
Encoding: 76 76 47
Width: 480
GlyphClass: 2
Flags: W
LayerCount: 2
Fore
SplineSet
452 0 m 1,0,-1
 73 0 l 1,1,-1
 73 674 l 1,2,-1
 176 674 l 1,3,-1
 176 91 l 1,4,-1
 452 91 l 1,5,-1
 452 0 l 1,0,-1
EndSplineSet
EndChar

StartChar: M
Encoding: 77 77 48
Width: 868
GlyphClass: 2
Flags: W
LayerCount: 2
Fore
SplineSet
166 0 m 1,0,-1
 64 0 l 1,1,-1
 116 674 l 1,2,-1
 238 674 l 1,3,-1
 328 428 l 2,4,5
 352 365 352 365 376 294.5 c 128,-1,6
 400 224 400 224 412 185 c 2,7,-1
 425 146 l 1,8,9
 471 282 471 282 526 428 c 2,10,-1
 620 674 l 1,11,-1
 742 674 l 1,12,-1
 804 0 l 1,13,-1
 702 0 l 1,14,-1
 678 264 l 1,15,-1
 657 534 l 1,16,17
 612 407 612 407 559 264 c 2,18,-1
 465 13 l 1,19,-1
 384 13 l 1,20,-1
 293 264 l 1,21,-1
 202 530 l 1,22,23
 202 486 202 486 186 264 c 2,24,-1
 166 0 l 1,0,-1
EndSplineSet
EndChar

StartChar: N
Encoding: 78 78 49
Width: 680
GlyphClass: 2
Flags: W
LayerCount: 2
Fore
SplineSet
176 0 m 1,0,-1
 73 0 l 1,1,-1
 73 674 l 1,2,-1
 195 674 l 1,3,-1
 361 392 l 2,4,5
 407 313 407 313 444.5 246 c 128,-1,6
 482 179 482 179 496 152 c 2,7,-1
 510 124 l 1,8,9
 504 215 504 215 504 391 c 2,10,-1
 504 674 l 1,11,-1
 607 674 l 1,12,-1
 607 0 l 1,13,-1
 485 0 l 1,14,-1
 318 281 l 2,15,16
 273 357 273 357 235.5 424.5 c 128,-1,17
 198 492 198 492 183 522 c 2,18,-1
 168 551 l 1,19,20
 176 451 176 451 176 282 c 2,21,-1
 176 0 l 1,0,-1
EndSplineSet
EndChar

StartChar: O
Encoding: 79 79 50
Width: 711
GlyphClass: 2
Flags: W
LayerCount: 2
Fore
SplineSet
665 340 m 128,-1,1
 665 182 665 182 581.5 87 c 128,-1,2
 498 -8 498 -8 356 -8 c 0,3,4
 215 -8 215 -8 130.5 87 c 128,-1,5
 46 182 46 182 46 340 c 0,6,7
 46 497 46 497 130 592 c 128,-1,8
 214 687 214 687 355 687 c 0,9,10
 499 687 499 687 582 592.5 c 128,-1,0
 665 498 665 498 665 340 c 128,-1,1
154 340 m 128,-1,12
 154 224 154 224 209 156 c 128,-1,13
 264 88 264 88 356 88 c 0,14,15
 451 88 451 88 504 155 c 128,-1,16
 557 222 557 222 557 340 c 0,17,18
 557 457 557 457 503.5 524 c 128,-1,19
 450 591 450 591 355 591 c 0,20,21
 261 591 261 591 207.5 523.5 c 128,-1,11
 154 456 154 456 154 340 c 128,-1,12
EndSplineSet
EndChar

StartChar: P
Encoding: 80 80 51
Width: 550
GlyphClass: 2
Flags: W
LayerCount: 2
Fore
SplineSet
272 239 m 2,0,-1
 176 239 l 1,1,-1
 176 0 l 1,2,-1
 73 0 l 1,3,-1
 73 674 l 1,4,-1
 266 674 l 2,5,6
 382 674 382 674 450 612.5 c 128,-1,7
 518 551 518 551 518 455 c 128,-1,8
 518 359 518 359 449.5 299 c 128,-1,9
 381 239 381 239 272 239 c 2,0,-1
262 589 m 2,10,-1
 176 589 l 1,11,-1
 176 324 l 1,12,-1
 264 324 l 2,13,14
 337 324 337 324 375.5 360 c 128,-1,15
 414 396 414 396 414 455 c 0,16,17
 414 517 414 517 375 553 c 128,-1,18
 336 589 336 589 262 589 c 2,10,-1
EndSplineSet
EndChar

StartChar: Q
Encoding: 81 81 52
Width: 719
GlyphClass: 2
Flags: W
LayerCount: 2
Fore
SplineSet
665 340 m 0,0,1
 665 227 665 227 621 144 c 128,-1,2
 577 61 577 61 497 22 c 1,3,-1
 699 -99 l 1,4,-1
 585 -144 l 1,5,-1
 388 -7 l 1,6,7
 377 -8 377 -8 356 -8 c 0,8,9
 215 -8 215 -8 130.5 87 c 128,-1,10
 46 182 46 182 46 340 c 0,11,12
 46 497 46 497 130 592 c 128,-1,13
 214 687 214 687 355 687 c 0,14,15
 499 687 499 687 582 592.5 c 128,-1,16
 665 498 665 498 665 340 c 0,0,1
154 340 m 128,-1,18
 154 224 154 224 209 156 c 128,-1,19
 264 88 264 88 356 88 c 0,20,21
 451 88 451 88 504 155 c 128,-1,22
 557 222 557 222 557 340 c 0,23,24
 557 457 557 457 503.5 524 c 128,-1,25
 450 591 450 591 355 591 c 0,26,27
 261 591 261 591 207.5 523.5 c 128,-1,17
 154 456 154 456 154 340 c 128,-1,18
EndSplineSet
EndChar

StartChar: R
Encoding: 82 82 53
Width: 568
GlyphClass: 2
Flags: W
LayerCount: 2
Fore
SplineSet
264 588 m 2,0,-1
 176 588 l 1,1,-1
 176 342 l 1,2,-1
 269 342 l 2,3,4
 333 342 333 342 366 375.5 c 128,-1,5
 399 409 399 409 399 465 c 0,6,7
 399 588 399 588 264 588 c 2,0,-1
176 0 m 1,8,-1
 73 0 l 1,9,-1
 73 674 l 1,10,-1
 261 674 l 2,11,12
 377 674 377 674 440 617.5 c 128,-1,13
 503 561 503 561 503 464 c 0,14,15
 502 393 502 393 467 343.5 c 128,-1,16
 432 294 432 294 370 272 c 1,17,-1
 546 0 l 1,18,-1
 423 0 l 1,19,-1
 265 256 l 1,20,-1
 176 256 l 1,21,-1
 176 0 l 1,8,-1
EndSplineSet
EndChar

StartChar: S
Encoding: 83 83 54
Width: 521
GlyphClass: 2
Flags: W
LayerCount: 2
Fore
SplineSet
472 184 m 0,0,1
 472 95 472 95 409 44 c 128,-1,2
 346 -7 346 -7 246 -7 c 0,3,4
 135 -7 135 -7 62 36 c 1,5,-1
 62 143 l 1,6,7
 141 84 141 84 245 84 c 0,8,9
 300 84 300 84 332 109.5 c 128,-1,10
 364 135 364 135 364 180 c 0,11,12
 364 207 364 207 345 229.5 c 128,-1,13
 326 252 326 252 304 263.5 c 128,-1,14
 282 275 282 275 238 295 c 0,15,16
 212 307 212 307 201.5 312 c 128,-1,17
 191 317 191 317 167 330 c 128,-1,18
 143 343 143 343 131.5 352 c 128,-1,19
 120 361 120 361 103 377 c 128,-1,20
 86 393 86 393 78.5 409 c 128,-1,21
 71 425 71 425 64.5 446.5 c 128,-1,22
 58 468 58 468 58 493 c 0,23,24
 58 579 58 579 120.5 629 c 128,-1,25
 183 679 183 679 282 679 c 0,26,27
 373 679 373 679 437 647 c 1,28,-1
 437 545 l 1,29,30
 370 587 370 587 285 587 c 0,31,32
 230 587 230 587 198.5 562.5 c 128,-1,33
 167 538 167 538 167 498 c 128,-1,34
 167 458 167 458 198 434 c 128,-1,35
 229 410 229 410 293 382 c 0,36,37
 335 364 335 364 358.5 351 c 128,-1,38
 382 338 382 338 412.5 314.5 c 128,-1,39
 443 291 443 291 457.5 258.5 c 128,-1,40
 472 226 472 226 472 184 c 0,0,1
EndSplineSet
EndChar

StartChar: T
Encoding: 84 84 55
Width: 500
GlyphClass: 2
Flags: W
LayerCount: 2
Fore
SplineSet
478 588 m 1,0,-1
 301 588 l 1,1,-1
 301 0 l 1,2,-1
 198 0 l 1,3,-1
 198 588 l 1,4,-1
 22 588 l 1,5,-1
 22 674 l 1,6,-1
 478 674 l 1,7,-1
 478 588 l 1,0,-1
EndSplineSet
EndChar

StartChar: U
Encoding: 85 85 56
Width: 652
GlyphClass: 2
Flags: W
LayerCount: 2
Fore
SplineSet
581 258 m 2,0,1
 581 127 581 127 513 59 c 128,-1,2
 445 -9 445 -9 325 -9 c 0,3,4
 207 -9 207 -9 139 57.5 c 128,-1,5
 71 124 71 124 71 250 c 2,6,-1
 71 674 l 1,7,-1
 174 674 l 1,8,-1
 174 251 l 2,9,10
 174 165 174 165 215.5 125.5 c 128,-1,11
 257 86 257 86 325 86 c 0,12,13
 478 86 478 86 478 256 c 2,14,-1
 478 674 l 1,15,-1
 581 674 l 1,16,-1
 581 258 l 2,0,1
EndSplineSet
EndChar

StartChar: V
Encoding: 86 86 57
Width: 643
GlyphClass: 2
Flags: W
LayerCount: 2
Fore
SplineSet
380 0 m 1,0,-1
 258 0 l 1,1,-1
 31 674 l 1,2,-1
 141 674 l 1,3,-1
 227 406 l 2,4,5
 255 320 255 320 278 241.5 c 128,-1,6
 301 163 301 163 310 128 c 2,7,-1
 320 92 l 1,8,9
 352 212 352 212 416 406 c 2,10,-1
 503 674 l 1,11,-1
 613 674 l 1,12,-1
 380 0 l 1,0,-1
EndSplineSet
EndChar

StartChar: W
Encoding: 87 87 58
Width: 947
GlyphClass: 2
Flags: W
LayerCount: 2
Fore
SplineSet
332 0 m 1,0,-1
 208 0 l 1,1,-1
 31 674 l 1,2,-1
 138 674 l 1,3,-1
 201 425 l 1,4,-1
 275 109 l 1,5,6
 320 277 320 277 363 425 c 2,7,-1
 432 664 l 1,8,-1
 523 664 l 1,9,-1
 594 424 l 1,10,-1
 685 107 l 1,11,12
 722 289 722 289 754 424 c 2,13,-1
 813 674 l 1,14,-1
 917 674 l 1,15,-1
 752 0 l 1,16,-1
 629 0 l 1,17,-1
 565 213 l 1,18,-1
 478 514 l 1,19,20
 455 419 455 419 394 213 c 2,21,-1
 332 0 l 1,0,-1
EndSplineSet
EndChar

StartChar: X
Encoding: 88 88 59
Width: 628
GlyphClass: 2
Flags: W
LayerCount: 2
Fore
SplineSet
158 0 m 1,0,-1
 35 0 l 1,1,-1
 251 341 l 1,2,-1
 47 674 l 1,3,-1
 166 674 l 1,4,-1
 309 432 l 1,5,-1
 450 674 l 1,6,-1
 573 674 l 1,7,-1
 369 340 l 1,8,-1
 592 0 l 1,9,-1
 471 0 l 1,10,-1
 311 253 l 1,11,-1
 158 0 l 1,0,-1
EndSplineSet
EndChar

StartChar: Y
Encoding: 89 89 60
Width: 608
GlyphClass: 2
Flags: W
LayerCount: 2
Fore
SplineSet
354 0 m 1,0,-1
 251 0 l 1,1,-1
 251 251 l 1,2,-1
 23 674 l 1,3,-1
 141 674 l 1,4,-1
 189 575 l 2,5,6
 235 482 235 482 263 422 c 128,-1,7
 291 362 291 362 296 348 c 2,8,-1
 302 335 l 1,9,10
 311 365 311 365 418 575 c 2,11,-1
 467 674 l 1,12,-1
 585 674 l 1,13,-1
 354 251 l 1,14,-1
 354 0 l 1,0,-1
EndSplineSet
EndChar

StartChar: Z
Encoding: 90 90 61
Width: 584
GlyphClass: 2
Flags: W
LayerCount: 2
Fore
SplineSet
530 0 m 1,0,-1
 54 0 l 1,1,-1
 54 81 l 1,2,-1
 394 589 l 1,3,-1
 59 589 l 1,4,-1
 59 674 l 1,5,-1
 516 674 l 1,6,-1
 516 595 l 1,7,-1
 175 85 l 1,8,-1
 530 85 l 1,9,-1
 530 0 l 1,0,-1
EndSplineSet
EndChar

StartChar: bracketleft
Encoding: 91 91 62
Width: 325
GlyphClass: 2
Flags: W
LayerCount: 2
Fore
SplineSet
319 -186 m 1,0,-1
 73 -186 l 1,1,-1
 73 707 l 1,2,-1
 319 707 l 1,3,-1
 319 620 l 1,4,-1
 169 620 l 1,5,-1
 169 -99 l 1,6,-1
 319 -99 l 1,7,-1
 319 -186 l 1,0,-1
EndSplineSet
EndChar

StartChar: backslash
Encoding: 92 92 63
Width: 420
GlyphClass: 2
Flags: W
LayerCount: 2
Fore
SplineSet
428 -103 m 1,0,-1
 327 -103 l 1,1,-1
 -37 707 l 1,2,-1
 65 707 l 1,3,-1
 428 -103 l 1,0,-1
EndSplineSet
EndChar

StartChar: bracketright
Encoding: 93 93 64
Width: 325
GlyphClass: 2
Flags: W
LayerCount: 2
Fore
SplineSet
252 -186 m 1,0,-1
 7 -186 l 1,1,-1
 7 -99 l 1,2,-1
 157 -99 l 1,3,-1
 157 620 l 1,4,-1
 7 620 l 1,5,-1
 7 707 l 1,6,-1
 252 707 l 1,7,-1
 252 -186 l 1,0,-1
EndSplineSet
EndChar

StartChar: asciicircum
Encoding: 94 94 65
Width: 470
GlyphClass: 2
Flags: W
LayerCount: 2
Fore
SplineSet
137 332 m 1,0,-1
 41 332 l 1,1,-1
 186 594 l 1,2,-1
 286 594 l 1,3,-1
 428 332 l 1,4,-1
 333 332 l 1,5,-1
 236 522 l 1,6,-1
 137 332 l 1,0,-1
EndSplineSet
EndChar

StartChar: underscore
Encoding: 95 95 66
Width: 557
GlyphClass: 2
Flags: W
LayerCount: 2
Fore
SplineSet
531 -119 m 1,0,-1
 26 -119 l 1,1,-1
 26 -35 l 1,2,-1
 531 -35 l 1,3,-1
 531 -119 l 1,0,-1
EndSplineSet
EndChar

StartChar: grave
Encoding: 96 96 67
Width: 444
GlyphClass: 2
Flags: W
LayerCount: 2
Fore
SplineSet
325 636 m 1,0,-1
 241 636 l 1,1,-1
 121 798 l 1,2,-1
 230 798 l 1,3,-1
 325 636 l 1,0,-1
EndSplineSet
EndChar

StartChar: a
Encoding: 97 97 68
Width: 499
GlyphClass: 2
Flags: W
LayerCount: 2
Fore
SplineSet
233 73 m 0,0,1
 281 73 281 73 308.5 99.5 c 128,-1,2
 336 126 336 126 336 169 c 2,3,-1
 336 226 l 1,4,-1
 260 226 l 2,5,6
 204 226 204 226 175.5 204 c 128,-1,7
 147 182 147 182 147 148 c 0,8,9
 147 113 147 113 169 93 c 128,-1,10
 191 73 191 73 233 73 c 0,0,1
339 60 m 1,11,12
 300 -4 300 -4 202 -4 c 0,13,14
 130 -4 130 -4 86.5 37.5 c 128,-1,15
 43 79 43 79 43 143 c 0,16,17
 43 216 43 216 98 256.5 c 128,-1,18
 153 297 153 297 252 297 c 2,19,-1
 336 297 l 1,20,-1
 336 326 l 2,21,22
 336 378 336 378 311 404.5 c 128,-1,23
 286 431 286 431 228 431 c 0,24,25
 147 431 147 431 81 386 c 1,26,-1
 81 481 l 1,27,28
 140 515 140 515 237 515 c 0,29,30
 436 515 436 515 436 322 c 2,31,-1
 436 0 l 1,32,-1
 339 0 l 1,33,-1
 339 60 l 1,11,12
EndSplineSet
EndChar

StartChar: b
Encoding: 98 98 69
Width: 582
GlyphClass: 2
Flags: W
LayerCount: 2
Fore
SplineSet
170 0 m 1,0,-1
 71 0 l 1,1,-1
 71 707 l 1,2,-1
 170 707 l 1,3,-1
 170 430 l 1,4,5
 224 514 224 514 323 514 c 0,6,7
 419 514 419 514 480 442 c 128,-1,8
 541 370 541 370 541 251 c 0,9,10
 541 144 541 144 483 68.5 c 128,-1,11
 425 -7 425 -7 324 -7 c 128,-1,12
 223 -7 223 -7 170 77 c 1,13,-1
 170 0 l 1,0,-1
170 257 m 0,14,15
 170 167 170 167 210 123 c 128,-1,16
 250 79 250 79 308 79 c 0,17,18
 364 79 364 79 402 126.5 c 128,-1,19
 440 174 440 174 440 249 c 0,20,21
 440 335 440 335 402 381.5 c 128,-1,22
 364 428 364 428 305 428 c 0,23,24
 253 428 253 428 211.5 386 c 128,-1,25
 170 344 170 344 170 257 c 0,14,15
EndSplineSet
EndChar

StartChar: c
Encoding: 99 99 70
Width: 471
GlyphClass: 2
Flags: W
LayerCount: 2
Fore
SplineSet
427 20 m 1,0,1
 378 -10 378 -10 302 -10 c 0,2,3
 183 -10 183 -10 112 65 c 128,-1,4
 41 140 41 140 41 252 c 0,5,6
 41 361 41 361 112.5 438.5 c 128,-1,7
 184 516 184 516 306 516 c 0,8,9
 372 516 372 516 427 488 c 1,10,-1
 427 398 l 1,11,12
 378 429 378 429 316 429 c 0,13,14
 237 429 237 429 189.5 379 c 128,-1,15
 142 329 142 329 142 251 c 0,16,17
 144 174 144 174 189 124.5 c 128,-1,18
 234 75 234 75 315 75 c 0,19,20
 375 75 375 75 427 108 c 1,21,-1
 427 20 l 1,0,1
EndSplineSet
EndChar

StartChar: d
Encoding: 100 100 71
Width: 580
GlyphClass: 2
Flags: W
LayerCount: 2
Fore
SplineSet
142 249 m 0,0,1
 142 173 142 173 179.5 126 c 128,-1,2
 217 79 217 79 274 79 c 0,3,4
 332 79 332 79 372 123 c 128,-1,5
 412 167 412 167 412 257 c 0,6,7
 412 344 412 344 370.5 386 c 128,-1,8
 329 428 329 428 277 428 c 0,9,10
 218 428 218 428 180 381.5 c 128,-1,11
 142 335 142 335 142 249 c 0,0,1
511 0 m 1,12,-1
 412 0 l 1,13,-1
 412 77 l 1,14,15
 359 -7 359 -7 257 -7 c 0,16,17
 157 -7 157 -7 99 68.5 c 128,-1,18
 41 144 41 144 41 251 c 0,19,20
 41 370 41 370 102 442 c 128,-1,21
 163 514 163 514 259 514 c 0,22,23
 358 514 358 514 412 430 c 1,24,-1
 412 707 l 1,25,-1
 511 707 l 1,26,-1
 511 0 l 1,12,-1
EndSplineSet
EndChar

StartChar: e
Encoding: 101 101 72
Width: 525
GlyphClass: 2
Flags: W
LayerCount: 2
Fore
SplineSet
447 27 m 1,0,1
 391 -5 391 -5 299 -5 c 0,2,3
 181 -5 181 -5 111 66 c 128,-1,4
 41 137 41 137 41 252 c 0,5,6
 41 374 41 374 105 443.5 c 128,-1,7
 169 513 169 513 268 513 c 0,8,9
 365 513 365 513 422 452.5 c 128,-1,10
 479 392 479 392 479 278 c 0,11,12
 479 247 479 247 473 213 c 1,13,-1
 140 213 l 1,14,15
 150 147 150 147 196 112 c 128,-1,16
 242 77 242 77 312 77 c 0,17,18
 393 77 393 77 447 115 c 1,19,-1
 447 27 l 1,0,1
270 432 m 0,20,21
 220 432 220 432 184 395.5 c 128,-1,22
 148 359 148 359 139 290 c 1,23,-1
 384 290 l 1,24,-1
 384 308 l 2,25,26
 382 365 382 365 353 398.5 c 128,-1,27
 324 432 324 432 270 432 c 0,20,21
EndSplineSet
EndChar

StartChar: f
Encoding: 102 102 73
Width: 334
GlyphClass: 2
Flags: W
LayerCount: 2
Fore
SplineSet
316 431 m 1,0,-1
 209 431 l 1,1,-1
 209 0 l 1,2,-1
 111 0 l 1,3,-1
 111 431 l 1,4,-1
 30 431 l 1,5,-1
 30 507 l 1,6,-1
 111 507 l 1,7,-1
 111 546 l 2,8,9
 111 625 111 625 153.5 670.5 c 128,-1,10
 196 716 196 716 273 716 c 0,11,12
 301 716 301 716 330 708 c 1,13,-1
 330 622 l 1,14,15
 307 632 307 632 282 632 c 0,16,17
 209 632 209 632 209 545 c 2,18,-1
 209 507 l 1,19,-1
 316 507 l 1,20,-1
 316 431 l 1,0,-1
EndSplineSet
EndChar

StartChar: g
Encoding: 103 103 74
Width: 559
GlyphClass: 2
Flags: W
LayerCount: 2
Fore
SplineSet
496 43 m 2,0,1
 496 -74 496 -74 429.5 -133.5 c 128,-1,2
 363 -193 363 -193 259 -193 c 0,3,4
 161 -193 161 -193 94 -160 c 1,5,-1
 94 -61 l 1,6,7
 158 -103 158 -103 249 -103 c 0,8,9
 398 -103 398 -103 398 44 c 2,10,-1
 398 96 l 1,11,12
 349 14 349 14 251 14 c 0,13,14
 165 14 165 14 104 77.5 c 128,-1,15
 43 141 43 141 43 257 c 0,16,17
 43 369 43 369 100 441.5 c 128,-1,18
 157 514 157 514 251 514 c 0,19,20
 352 514 352 514 398 428 c 1,21,-1
 398 507 l 1,22,-1
 496 507 l 1,23,-1
 496 43 l 2,0,1
146 259 m 0,24,25
 146 180 146 180 182.5 139 c 128,-1,26
 219 98 219 98 269 98 c 0,27,28
 321 98 321 98 359.5 138.5 c 128,-1,29
 398 179 398 179 398 252 c 0,30,31
 398 342 398 342 361.5 385 c 128,-1,32
 325 428 325 428 273 428 c 0,33,34
 214 428 214 428 180 381.5 c 128,-1,35
 146 335 146 335 146 259 c 0,24,25
EndSplineSet
EndChar

StartChar: h
Encoding: 104 104 75
Width: 551
GlyphClass: 2
Flags: W
LayerCount: 2
Fore
SplineSet
488 0 m 1,0,-1
 390 0 l 1,1,-1
 390 320 l 2,2,3
 390 372 390 372 363.5 400.5 c 128,-1,4
 337 429 337 429 294 429 c 0,5,6
 244 429 244 429 205.5 391 c 128,-1,7
 167 353 167 353 167 275 c 2,8,-1
 167 0 l 1,9,-1
 69 0 l 1,10,-1
 69 707 l 1,11,-1
 167 707 l 1,12,-1
 167 420 l 1,13,14
 210 514 210 514 324 514 c 0,15,16
 398 514 398 514 443 468 c 128,-1,17
 488 422 488 422 488 340 c 2,18,-1
 488 0 l 1,0,-1
EndSplineSet
EndChar

StartChar: i
Encoding: 105 105 76
Width: 245
GlyphClass: 2
Flags: W
LayerCount: 2
Fore
SplineSet
172 0 m 1,0,-1
 73 0 l 1,1,-1
 73 507 l 1,2,-1
 172 507 l 1,3,-1
 172 0 l 1,0,-1
184 662 m 0,4,5
 184 637 184 637 166 619 c 128,-1,6
 148 601 148 601 122 601 c 128,-1,7
 96 601 96 601 78.5 618.5 c 128,-1,8
 61 636 61 636 61 662 c 128,-1,9
 61 688 61 688 78.5 706 c 128,-1,10
 96 724 96 724 122 724 c 128,-1,11
 148 724 148 724 166 706 c 128,-1,12
 184 688 184 688 184 662 c 0,4,5
EndSplineSet
EndChar

StartChar: j
Encoding: 106 106 77
Width: 242
GlyphClass: 2
Flags: W
LayerCount: 2
Fore
SplineSet
173 -45 m 2,0,1
 173 -116 173 -116 135.5 -156 c 128,-1,2
 98 -196 98 -196 29 -196 c 0,3,4
 -3 -196 -3 -196 -44 -181 c 1,5,-1
 -44 -98 l 1,6,7
 -12 -114 -12 -114 20 -114 c 0,8,9
 75 -114 75 -114 75 -43 c 2,10,-1
 75 507 l 1,11,-1
 173 507 l 1,12,-1
 173 -45 l 2,0,1
185 662 m 0,13,14
 185 637 185 637 167 619 c 128,-1,15
 149 601 149 601 123 601 c 0,16,17
 98 601 98 601 80 618.5 c 128,-1,18
 62 636 62 636 62 662 c 128,-1,19
 62 688 62 688 79.5 706 c 128,-1,20
 97 724 97 724 123 724 c 128,-1,21
 149 724 149 724 167 706 c 128,-1,22
 185 688 185 688 185 662 c 0,13,14
EndSplineSet
EndChar

StartChar: k
Encoding: 107 107 78
Width: 500
GlyphClass: 2
Flags: W
LayerCount: 2
Fore
SplineSet
167 0 m 1,0,-1
 69 0 l 1,1,-1
 69 700 l 1,2,-1
 167 700 l 1,3,-1
 167 0 l 1,0,-1
284 265 m 1,4,-1
 483 0 l 1,5,-1
 366 0 l 1,6,-1
 171 265 l 1,7,-1
 362 507 l 1,8,-1
 477 507 l 1,9,-1
 284 265 l 1,4,-1
EndSplineSet
EndChar

StartChar: l
Encoding: 108 108 79
Width: 245
GlyphClass: 2
Flags: W
LayerCount: 2
Fore
SplineSet
172 0 m 1,0,-1
 73 0 l 1,1,-1
 73 707 l 1,2,-1
 172 707 l 1,3,-1
 172 0 l 1,0,-1
EndSplineSet
EndChar

StartChar: m
Encoding: 109 109 80
Width: 830
GlyphClass: 2
Flags: W
LayerCount: 2
Fore
SplineSet
766 0 m 1,0,-1
 668 0 l 1,1,-1
 668 320 l 2,2,3
 668 429 668 429 580 429 c 0,4,5
 536 429 536 429 501.5 390 c 128,-1,6
 467 351 467 351 467 275 c 2,7,-1
 467 0 l 1,8,-1
 369 0 l 1,9,-1
 369 320 l 2,10,11
 369 429 369 429 280 429 c 0,12,13
 237 429 237 429 202 390 c 128,-1,14
 167 351 167 351 167 275 c 2,15,-1
 167 0 l 1,16,-1
 69 0 l 1,17,-1
 69 507 l 1,18,-1
 167 507 l 1,19,-1
 167 426 l 1,20,21
 210 514 210 514 310 514 c 0,22,23
 424 514 424 514 456 416 c 1,24,25
 477 463 477 463 517 488.5 c 128,-1,26
 557 514 557 514 607 514 c 0,27,28
 685 514 685 514 725.5 468 c 128,-1,29
 766 422 766 422 766 341 c 2,30,-1
 766 0 l 1,0,-1
EndSplineSet
EndChar

StartChar: n
Encoding: 110 110 81
Width: 551
GlyphClass: 2
Flags: W
LayerCount: 2
Fore
SplineSet
488 0 m 1,0,-1
 390 0 l 1,1,-1
 390 320 l 2,2,3
 390 373 390 373 363.5 401 c 128,-1,4
 337 429 337 429 293 429 c 0,5,6
 241 429 241 429 204 388.5 c 128,-1,7
 167 348 167 348 167 275 c 2,8,-1
 167 0 l 1,9,-1
 69 0 l 1,10,-1
 69 507 l 1,11,-1
 167 507 l 1,12,-1
 167 420 l 1,13,14
 212 514 212 514 325 514 c 0,15,16
 400 514 400 514 444 468 c 128,-1,17
 488 422 488 422 488 343 c 2,18,-1
 488 0 l 1,0,-1
EndSplineSet
EndChar

StartChar: o
Encoding: 111 111 82
Width: 564
GlyphClass: 2
Flags: W
LayerCount: 2
Fore
SplineSet
523 253 m 128,-1,1
 523 139 523 139 458.5 65 c 128,-1,2
 394 -9 394 -9 281 -9 c 0,3,4
 169 -9 169 -9 105 64 c 128,-1,5
 41 137 41 137 41 249 c 0,6,7
 41 363 41 363 107 438.5 c 128,-1,8
 173 514 173 514 281 514 c 0,9,10
 397 514 397 514 460 440.5 c 128,-1,0
 523 367 523 367 523 253 c 128,-1,1
143 252 m 0,11,12
 143 177 143 177 180 125.5 c 128,-1,13
 217 74 217 74 281 74 c 0,14,15
 349 74 349 74 384.5 124 c 128,-1,16
 420 174 420 174 420 251 c 0,17,18
 420 330 420 330 386 380.5 c 128,-1,19
 352 431 352 431 280 431 c 0,20,21
 215 431 215 431 179 379.5 c 128,-1,22
 143 328 143 328 143 252 c 0,11,12
EndSplineSet
EndChar

StartChar: p
Encoding: 112 112 83
Width: 580
GlyphClass: 2
Flags: W
LayerCount: 2
Fore
SplineSet
167 -194 m 1,0,-1
 69 -194 l 1,1,-1
 69 507 l 1,2,-1
 167 507 l 1,3,-1
 167 429 l 1,4,5
 219 514 219 514 323 514 c 0,6,7
 423 514 423 514 481 441.5 c 128,-1,8
 539 369 539 369 539 257 c 0,9,10
 539 142 539 142 479.5 67.5 c 128,-1,11
 420 -7 420 -7 321 -7 c 0,12,13
 220 -7 220 -7 167 77 c 1,14,-1
 167 -194 l 1,0,-1
167 255 m 0,15,16
 167 167 167 167 208.5 123 c 128,-1,17
 250 79 250 79 303 79 c 0,18,19
 362 79 362 79 400 125.5 c 128,-1,20
 438 172 438 172 438 256 c 0,21,22
 438 335 438 335 401 381.5 c 128,-1,23
 364 428 364 428 307 428 c 128,-1,24
 250 428 250 428 208.5 386.5 c 128,-1,25
 167 345 167 345 167 255 c 0,15,16
EndSplineSet
EndChar

StartChar: q
Encoding: 113 113 84
Width: 580
GlyphClass: 2
Flags: W
LayerCount: 2
Fore
SplineSet
142 256 m 0,0,1
 142 173 142 173 180.5 126 c 128,-1,2
 219 79 219 79 277 79 c 0,3,4
 331 79 331 79 371.5 123 c 128,-1,5
 412 167 412 167 412 255 c 0,6,7
 412 345 412 345 371 386.5 c 128,-1,8
 330 428 330 428 274 428 c 0,9,10
 217 428 217 428 179.5 381 c 128,-1,11
 142 334 142 334 142 256 c 0,0,1
511 -194 m 1,12,-1
 412 -194 l 1,13,-1
 412 78 l 1,14,15
 358 -7 358 -7 259 -7 c 128,-1,16
 160 -7 160 -7 100.5 67.5 c 128,-1,17
 41 142 41 142 41 257 c 0,18,19
 41 369 41 369 99.5 441.5 c 128,-1,20
 158 514 158 514 258 514 c 128,-1,21
 358 514 358 514 412 431 c 1,22,-1
 412 507 l 1,23,-1
 511 507 l 1,24,-1
 511 -194 l 1,12,-1
EndSplineSet
EndChar

StartChar: r
Encoding: 114 114 85
Width: 339
GlyphClass: 2
Flags: W
LayerCount: 2
Fore
SplineSet
167 0 m 1,0,-1
 69 0 l 1,1,-1
 69 507 l 1,2,-1
 167 507 l 1,3,-1
 167 418 l 1,4,5
 204 512 204 512 300 512 c 0,6,7
 314 512 314 512 331 509 c 1,8,-1
 331 413 l 1,9,10
 310 422 310 422 284 422 c 0,11,12
 233 422 233 422 200 377 c 128,-1,13
 167 332 167 332 167 270 c 2,14,-1
 167 0 l 1,0,-1
EndSplineSet
EndChar

StartChar: s
Encoding: 115 115 86
Width: 419
GlyphClass: 2
Flags: W
LayerCount: 2
Fore
SplineSet
386 140 m 0,0,1
 386 72 386 72 338 33.5 c 128,-1,2
 290 -5 290 -5 208 -5 c 0,3,4
 118 -5 118 -5 58 25 c 1,5,-1
 58 118 l 1,6,7
 128 75 128 75 203 75 c 0,8,9
 242 75 242 75 263.5 91 c 128,-1,10
 285 107 285 107 285 133 c 0,11,12
 285 155 285 155 268 172.5 c 128,-1,13
 251 190 251 190 233.5 198.5 c 128,-1,14
 216 207 216 207 174 225 c 0,15,16
 55 274 55 274 55 369 c 0,17,18
 55 436 55 436 105 474 c 128,-1,19
 155 512 155 512 230 512 c 0,20,21
 312 512 312 512 358 490 c 1,22,-1
 358 401 l 1,23,24
 309 430 309 430 232 430 c 0,25,26
 197 430 197 430 176.5 414 c 128,-1,27
 156 398 156 398 156 372 c 0,28,29
 156 365 156 365 157.5 358.5 c 128,-1,30
 159 352 159 352 163 345.5 c 128,-1,31
 167 339 167 339 170.5 334.5 c 128,-1,32
 174 330 174 330 182 325 c 128,-1,33
 190 320 190 320 194.5 316.5 c 128,-1,34
 199 313 199 313 209.5 308 c 128,-1,35
 220 303 220 303 225 300.5 c 128,-1,36
 230 298 230 298 242.5 292.5 c 128,-1,37
 255 287 255 287 260 285 c 0,38,39
 319 259 319 259 352.5 226.5 c 128,-1,40
 386 194 386 194 386 140 c 0,0,1
EndSplineSet
EndChar

StartChar: t
Encoding: 116 116 87
Width: 374
GlyphClass: 2
Flags: W
LayerCount: 2
Fore
SplineSet
335 13 m 1,0,1
 302 -5 302 -5 254 -5 c 0,2,3
 97 -5 97 -5 97 154 c 2,4,-1
 97 431 l 1,5,-1
 18 431 l 1,6,-1
 18 507 l 1,7,-1
 97 507 l 1,8,-1
 97 631 l 1,9,-1
 196 631 l 1,10,-1
 196 507 l 1,11,-1
 329 507 l 1,12,-1
 329 431 l 1,13,-1
 196 431 l 1,14,-1
 196 152 l 2,15,16
 196 79 196 79 266 79 c 0,17,18
 307 79 307 79 335 101 c 1,19,-1
 335 13 l 1,0,1
EndSplineSet
EndChar

StartChar: u
Encoding: 117 117 88
Width: 551
GlyphClass: 2
Flags: W
LayerCount: 2
Fore
SplineSet
482 0 m 1,0,-1
 384 0 l 1,1,-1
 384 87 l 1,2,3
 344 -6 344 -6 226 -6 c 0,4,5
 151 -6 151 -6 107 38.5 c 128,-1,6
 63 83 63 83 63 161 c 2,7,-1
 63 507 l 1,8,-1
 162 507 l 1,9,-1
 162 185 l 2,10,11
 162 133 162 133 187.5 105.5 c 128,-1,12
 213 78 213 78 258 78 c 0,13,14
 315 78 315 78 349.5 118 c 128,-1,15
 384 158 384 158 384 231 c 2,16,-1
 384 507 l 1,17,-1
 482 507 l 1,18,-1
 482 0 l 1,0,-1
EndSplineSet
EndChar

StartChar: v
Encoding: 118 118 89
Width: 514
GlyphClass: 2
Flags: W
LayerCount: 2
Fore
SplineSet
311 0 m 1,0,-1
 199 0 l 1,1,-1
 19 507 l 1,2,-1
 122 507 l 1,3,-1
 191 293 l 2,4,5
 215 219 215 219 231.5 165 c 128,-1,6
 248 111 248 111 252 94 c 2,7,-1
 256 77 l 1,8,9
 265 126 265 126 322 293 c 2,10,-1
 393 507 l 1,11,-1
 495 507 l 1,12,-1
 311 0 l 1,0,-1
EndSplineSet
EndChar

StartChar: w
Encoding: 119 119 90
Width: 796
GlyphClass: 2
Flags: W
LayerCount: 2
Fore
SplineSet
289 0 m 1,0,-1
 178 0 l 1,1,-1
 19 507 l 1,2,-1
 123 507 l 1,3,-1
 170 339 l 2,4,5
 193 259 193 259 209 198 c 128,-1,6
 225 137 225 137 229 116 c 2,7,-1
 233 95 l 1,8,9
 246 158 246 158 299 340 c 2,10,-1
 348 507 l 1,11,-1
 443 507 l 1,12,-1
 493 340 l 2,13,14
 517 257 517 257 534 195.5 c 128,-1,15
 551 134 551 134 556 114 c 2,16,-1
 560 94 l 1,17,18
 572 153 572 153 628 340 c 2,19,-1
 678 507 l 1,20,-1
 777 507 l 1,21,-1
 616 0 l 1,22,-1
 504 0 l 1,23,-1
 457 166 l 2,24,25
 436 242 436 242 420.5 300.5 c 128,-1,26
 405 359 405 359 400 380 c 2,27,-1
 396 400 l 1,28,29
 382 335 382 335 335 166 c 2,30,-1
 289 0 l 1,0,-1
EndSplineSet
EndChar

StartChar: x
Encoding: 120 120 91
Width: 492
GlyphClass: 2
Flags: W
LayerCount: 2
Fore
SplineSet
130 0 m 1,0,-1
 22 0 l 1,1,-1
 195 258 l 1,2,-1
 33 508 l 1,3,-1
 144 508 l 1,4,-1
 250 329 l 1,5,-1
 359 508 l 1,6,-1
 469 508 l 1,7,-1
 300 257 l 1,8,-1
 469 0 l 1,9,-1
 358 0 l 1,10,-1
 247 186 l 1,11,-1
 130 0 l 1,0,-1
EndSplineSet
EndChar

StartChar: y
Encoding: 121 121 92
Width: 504
GlyphClass: 2
Flags: W
LayerCount: 2
Fore
SplineSet
308 14 m 2,0,1
 235 -181 235 -181 85 -181 c 0,2,3
 58 -181 58 -181 39 -176 c 1,4,-1
 39 -92 l 1,5,6
 55 -96 55 -96 73 -96 c 0,7,8
 170 -96 170 -96 209 11 c 1,9,-1
 7 507 l 1,10,-1
 116 507 l 1,11,-1
 179 342 l 1,12,-1
 258 128 l 1,13,14
 267 158 267 158 330 342 c 2,15,-1
 387 507 l 1,16,-1
 491 507 l 1,17,-1
 308 14 l 2,0,1
EndSplineSet
EndChar

StartChar: z
Encoding: 122 122 93
Width: 461
GlyphClass: 2
Flags: W
LayerCount: 2
Fore
SplineSet
418 0 m 1,0,-1
 43 0 l 1,1,-1
 43 75 l 1,2,-1
 289 425 l 1,3,-1
 52 425 l 1,4,-1
 52 507 l 1,5,-1
 405 507 l 1,6,-1
 405 437 l 1,7,-1
 156 83 l 1,8,-1
 418 83 l 1,9,-1
 418 0 l 1,0,-1
EndSplineSet
EndChar

StartChar: braceleft
Encoding: 123 123 94
Width: 348
GlyphClass: 2
Flags: W
LayerCount: 2
Fore
SplineSet
331 -185 m 1,0,1
 304 -194 304 -194 278 -194 c 0,2,3
 220 -194 220 -194 180 -150 c 128,-1,4
 140 -106 140 -106 140 -36 c 0,5,6
 140 -11 140 -11 149 33.5 c 128,-1,7
 158 78 158 78 158 99 c 0,8,9
 158 142 158 142 136 173.5 c 128,-1,10
 114 205 114 205 71 211 c 0,11,12
 62 212 62 212 46 212 c 1,13,-1
 46 308 l 1,14,15
 60 308 60 308 71 309 c 0,16,17
 112 313 112 313 135 345 c 128,-1,18
 158 377 158 377 158 420 c 0,19,20
 158 441 158 441 149 485.5 c 128,-1,21
 140 530 140 530 140 555 c 0,22,23
 140 625 140 625 180 669 c 128,-1,24
 220 713 220 713 278 713 c 0,25,26
 304 713 304 713 331 704 c 1,27,-1
 331 610 l 1,28,29
 314 619 314 619 298 619 c 0,30,31
 270 619 270 619 254.5 600 c 128,-1,32
 239 581 239 581 239 551 c 0,33,34
 239 528 239 528 248 480.5 c 128,-1,35
 257 433 257 433 257 405 c 0,36,37
 257 348 257 348 224.5 308 c 128,-1,38
 192 268 192 268 137 260 c 1,39,40
 192 252 192 252 224.5 211.5 c 128,-1,41
 257 171 257 171 257 114 c 0,42,43
 257 86 257 86 248 38.5 c 128,-1,44
 239 -9 239 -9 239 -31 c 0,45,46
 239 -61 239 -61 254.5 -80.5 c 128,-1,47
 270 -100 270 -100 298 -100 c 0,48,49
 314 -100 314 -100 331 -91 c 1,50,-1
 331 -185 l 1,0,1
EndSplineSet
EndChar

StartChar: bar
Encoding: 124 124 95
Width: 243
GlyphClass: 2
Flags: W
LayerCount: 2
Fore
SplineSet
167 -194 m 1,0,-1
 76 -194 l 1,1,-1
 76 695 l 1,2,-1
 167 695 l 1,3,-1
 167 -194 l 1,0,-1
EndSplineSet
EndChar

StartChar: braceright
Encoding: 125 125 96
Width: 348
GlyphClass: 2
Flags: W
LayerCount: 2
Fore
SplineSet
207 -36 m 0,0,1
 207 -107 207 -107 167.5 -150.5 c 128,-1,2
 128 -194 128 -194 69 -194 c 0,3,4
 44 -194 44 -194 17 -185 c 1,5,-1
 17 -91 l 1,6,7
 32 -100 32 -100 49 -100 c 0,8,9
 77 -100 77 -100 93 -80.5 c 128,-1,10
 109 -61 109 -61 109 -31 c 0,11,12
 109 -9 109 -9 100 38.5 c 128,-1,13
 91 86 91 86 91 114 c 0,14,15
 91 171 91 171 123 211.5 c 128,-1,16
 155 252 155 252 210 260 c 1,17,18
 155 268 155 268 123 308 c 128,-1,19
 91 348 91 348 91 405 c 0,20,21
 91 433 91 433 100 480.5 c 128,-1,22
 109 528 109 528 109 551 c 0,23,24
 109 580 109 580 93 599.5 c 128,-1,25
 77 619 77 619 49 619 c 0,26,27
 32 619 32 619 17 610 c 1,28,-1
 17 704 l 1,29,30
 44 713 44 713 69 713 c 0,31,32
 128 713 128 713 167.5 669.5 c 128,-1,33
 207 626 207 626 207 555 c 0,34,35
 207 530 207 530 198 485.5 c 128,-1,36
 189 441 189 441 189 420 c 0,37,38
 189 377 189 377 212 345 c 128,-1,39
 235 313 235 313 277 309 c 0,40,41
 287 308 287 308 302 308 c 1,42,-1
 302 212 l 1,43,44
 285 212 285 212 277 211 c 0,45,46
 233 205 233 205 211 173.5 c 128,-1,47
 189 142 189 142 189 99 c 0,48,49
 189 78 189 78 198 33.5 c 128,-1,50
 207 -11 207 -11 207 -36 c 0,0,1
EndSplineSet
EndChar

StartChar: asciitilde
Encoding: 126 126 97
Width: 615
GlyphClass: 2
Flags: W
LayerCount: 2
Fore
SplineSet
212 259 m 0,0,1
 149 259 149 259 100 193 c 1,2,-1
 34 249 l 1,3,4
 103 348 103 348 194 348 c 0,5,6
 239 348 239 348 280 331.5 c 128,-1,7
 321 315 321 315 354.5 298.5 c 128,-1,8
 388 282 388 282 415 282 c 0,9,10
 470 282 470 282 510 341 c 1,11,-1
 581 288 l 1,12,13
 518 192 518 192 429 192 c 0,14,15
 378 192 378 192 309.5 225.5 c 128,-1,16
 241 259 241 259 212 259 c 0,0,1
EndSplineSet
EndChar

StartChar: exclamdown
Encoding: 161 161 98
Width: 262
GlyphClass: 2
Flags: W
LayerCount: 2
Fore
SplineSet
179 -165 m 1,0,-1
 83 -165 l 1,1,-1
 83 295 l 1,2,-1
 179 295 l 1,3,-1
 179 -165 l 1,0,-1
199 449 m 128,-1,5
 199 420 199 420 178.5 400 c 128,-1,6
 158 380 158 380 130 380 c 0,7,8
 101 380 101 380 81.5 400 c 128,-1,9
 62 420 62 420 62 449 c 128,-1,10
 62 478 62 478 81.5 497.5 c 128,-1,11
 101 517 101 517 130 517 c 128,-1,12
 159 517 159 517 179 497.5 c 128,-1,4
 199 478 199 478 199 449 c 128,-1,5
EndSplineSet
EndChar

StartChar: cent
Encoding: 162 162 99
Width: 460
GlyphClass: 2
Flags: W
LayerCount: 2
Fore
SplineSet
420 17 m 1,0,1
 386 1 386 1 341 -6 c 1,2,-1
 341 -111 l 1,3,-1
 257 -111 l 1,4,-1
 257 -5 l 1,5,6
 158 11 158 11 99.5 82 c 128,-1,7
 41 153 41 153 41 252 c 0,8,9
 42 349 42 349 99.5 421 c 128,-1,10
 157 493 157 493 257 509 c 1,11,-1
 257 617 l 1,12,-1
 341 617 l 1,13,-1
 341 511 l 1,14,15
 383 506 383 506 420 488 c 1,16,-1
 420 400 l 1,17,18
 372 427 372 427 318 427 c 0,19,20
 239 427 239 427 191 377.5 c 128,-1,21
 143 328 143 328 142 251 c 0,22,23
 144 175 144 175 190.5 126 c 128,-1,24
 237 77 237 77 318 77 c 0,25,26
 372 77 372 77 420 105 c 1,27,-1
 420 17 l 1,0,1
EndSplineSet
EndChar

StartChar: sterling
Encoding: 163 163 100
Width: 527
GlyphClass: 2
Flags: W
LayerCount: 2
Fore
SplineSet
490 0 m 1,0,-1
 56 0 l 1,1,-1
 56 82 l 1,2,3
 108 108 108 108 128 145.5 c 128,-1,4
 148 183 148 183 148 250 c 0,5,6
 148 261 148 261 146 285 c 1,7,-1
 60 285 l 1,8,-1
 60 360 l 1,9,-1
 138 360 l 1,10,11
 131 411 131 411 131 441 c 0,12,13
 131 545 131 545 186 602 c 128,-1,14
 241 659 241 659 343 659 c 0,15,16
 412 659 412 659 460 632 c 1,17,-1
 460 536 l 1,18,19
 412 566 412 566 358 566 c 0,20,21
 236 566 236 566 236 441 c 0,22,23
 236 416 236 416 242 360 c 1,24,-1
 418 360 l 1,25,-1
 418 285 l 1,26,-1
 250 285 l 1,27,28
 250 279 250 279 250.5 267 c 128,-1,29
 251 255 251 255 251 250 c 0,30,31
 251 132 251 132 177 85 c 1,32,-1
 490 85 l 1,33,-1
 490 0 l 1,0,-1
EndSplineSet
EndChar

StartChar: currency
Encoding: 164 164 101
Width: 551
GlyphClass: 2
Flags: W
LayerCount: 2
Fore
SplineSet
151 129 m 1,0,-1
 93 71 l 1,1,-1
 32 130 l 1,2,-1
 91 188 l 1,3,4
 56 238 56 238 56 310 c 0,5,6
 56 376 56 376 92 432 c 1,7,-1
 32 492 l 1,8,-1
 93 551 l 1,9,-1
 153 491 l 1,10,11
 207 528 207 528 278 528 c 0,12,13
 344 528 344 528 401 494 c 1,14,-1
 459 551 l 1,15,-1
 519 492 l 1,16,-1
 461 434 l 1,17,18
 496 379 496 379 496 314 c 0,19,20
 496 246 496 246 458 190 c 1,21,-1
 519 130 l 1,22,-1
 459 71 l 1,23,-1
 397 131 l 1,24,25
 345 96 345 96 274 96 c 0,26,27
 202 96 202 96 151 129 c 1,0,-1
140 312 m 128,-1,29
 140 254 140 254 178.5 214.5 c 128,-1,30
 217 175 217 175 276 175 c 0,31,32
 336 175 336 175 374 214 c 128,-1,33
 412 253 412 253 412 312 c 0,34,35
 412 370 412 370 373.5 409.5 c 128,-1,36
 335 449 335 449 276 449 c 128,-1,37
 217 449 217 449 178.5 409.5 c 128,-1,28
 140 370 140 370 140 312 c 128,-1,29
EndSplineSet
EndChar

StartChar: yen
Encoding: 165 165 102
Width: 600
GlyphClass: 2
Flags: W
LayerCount: 2
Fore
SplineSet
526 145 m 1,0,-1
 349 145 l 1,1,-1
 349 0 l 1,2,-1
 246 0 l 1,3,-1
 246 145 l 1,4,-1
 70 145 l 1,5,-1
 70 213 l 1,6,-1
 246 213 l 1,7,-1
 246 254 l 1,8,-1
 224 294 l 1,9,-1
 70 294 l 1,10,-1
 70 362 l 1,11,-1
 186 362 l 1,12,-1
 26 654 l 1,13,-1
 144 654 l 1,14,-1
 297 354 l 1,15,-1
 454 654 l 1,16,-1
 571 654 l 1,17,-1
 409 362 l 1,18,-1
 526 362 l 1,19,-1
 526 294 l 1,20,-1
 371 294 l 1,21,-1
 349 254 l 1,22,-1
 349 213 l 1,23,-1
 526 213 l 1,24,-1
 526 145 l 1,0,-1
EndSplineSet
EndChar

StartChar: brokenbar
Encoding: 166 166 103
Width: 243
GlyphClass: 2
Flags: W
LayerCount: 2
Fore
SplineSet
167 367 m 1,0,-1
 76 367 l 1,1,-1
 76 700 l 1,2,-1
 167 700 l 1,3,-1
 167 367 l 1,0,-1
167 -160 m 1,4,-1
 76 -160 l 1,5,-1
 76 173 l 1,6,-1
 167 173 l 1,7,-1
 167 -160 l 1,4,-1
EndSplineSet
EndChar

StartChar: section
Encoding: 167 167 104
Width: 537
GlyphClass: 2
Flags: W
LayerCount: 2
Fore
SplineSet
288 176 m 0,0,1
 332 158 332 158 361 142 c 1,2,3
 380 167 380 167 380 202 c 0,4,5
 380 242 380 242 351.5 265 c 128,-1,6
 323 288 323 288 258 320 c 0,7,8
 249 324 249 324 245 326 c 0,9,10
 233 331 233 331 210 342 c 128,-1,11
 187 353 187 353 175 359 c 1,12,13
 153 331 153 331 153 297 c 0,14,15
 153 256 153 256 184.5 232 c 128,-1,16
 216 208 216 208 288 176 c 0,0,1
479 201 m 0,17,18
 479 131 479 131 437 84 c 1,19,20
 475 39 475 39 475 -18 c 0,21,22
 475 -104 475 -104 413.5 -151 c 128,-1,23
 352 -198 352 -198 251 -198 c 0,24,25
 140 -198 140 -198 67 -155 c 1,26,-1
 67 -48 l 1,27,28
 146 -107 146 -107 250 -107 c 0,29,30
 307 -107 307 -107 338.5 -84.5 c 128,-1,31
 370 -62 370 -62 370 -19 c 0,32,33
 370 18 370 18 340 41.5 c 128,-1,34
 310 65 310 65 223 103 c 0,35,36
 142 139 142 139 97.5 181.5 c 128,-1,37
 53 224 53 224 53 297 c 0,38,39
 53 362 53 362 96 412 c 1,40,41
 60 450 60 450 60 505 c 0,42,43
 60 588 60 588 121 634 c 128,-1,44
 182 680 182 680 280 680 c 0,45,46
 371 680 371 680 435 648 c 1,47,-1
 435 546 l 1,48,49
 365 588 365 588 283 588 c 0,50,51
 227 588 227 588 197 567 c 128,-1,52
 167 546 167 546 167 508 c 0,53,54
 167 491 167 491 173 478.5 c 128,-1,55
 179 466 179 466 195.5 454.5 c 128,-1,56
 212 443 212 443 225 436 c 128,-1,57
 238 429 238 429 269 415 c 128,-1,58
 300 401 300 401 319 392 c 0,59,60
 357 374 357 374 380.5 360 c 128,-1,61
 404 346 404 346 429.5 323.5 c 128,-1,62
 455 301 455 301 467 270.5 c 128,-1,63
 479 240 479 240 479 201 c 0,17,18
EndSplineSet
EndChar

StartChar: dieresis
Encoding: 168 168 105
Width: 444
GlyphClass: 2
Flags: W
LayerCount: 2
Fore
SplineSet
393 719 m 128,-1,1
 393 693 393 693 375.5 676 c 128,-1,2
 358 659 358 659 332 659 c 128,-1,3
 306 659 306 659 289 676.5 c 128,-1,4
 272 694 272 694 272 719 c 128,-1,5
 272 744 272 744 289 761.5 c 128,-1,6
 306 779 306 779 332 779 c 128,-1,7
 358 779 358 779 375.5 762 c 128,-1,0
 393 745 393 745 393 719 c 128,-1,1
172 719 m 128,-1,9
 172 694 172 694 155 676.5 c 128,-1,10
 138 659 138 659 112 659 c 0,11,12
 85 659 85 659 68 676 c 128,-1,13
 51 693 51 693 51 719 c 128,-1,14
 51 745 51 745 68 762 c 128,-1,15
 85 779 85 779 112 779 c 0,16,17
 138 779 138 779 155 761.5 c 128,-1,8
 172 744 172 744 172 719 c 128,-1,9
EndSplineSet
EndChar

StartChar: copyright
Encoding: 169 169 106
Width: 772
GlyphClass: 2
Flags: W
LayerCount: 2
Fore
SplineSet
493 175 m 1,0,1
 457 154 457 154 405 154 c 0,2,3
 325 154 325 154 274 206 c 128,-1,4
 223 258 223 258 223 335 c 128,-1,5
 223 412 223 412 273 465.5 c 128,-1,6
 323 519 323 519 408 519 c 0,7,8
 455 519 455 519 493 498 c 1,9,-1
 493 425 l 1,10,11
 459 447 459 447 414 447 c 0,12,13
 367 447 367 447 336 416.5 c 128,-1,14
 305 386 305 386 305 335 c 0,15,16
 306 287 306 287 336 255.5 c 128,-1,17
 366 224 366 224 413 224 c 0,18,19
 458 224 458 224 493 249 c 1,20,-1
 493 175 l 1,0,1
731 337 m 128,-1,22
 731 195 731 195 629.5 93 c 128,-1,23
 528 -9 528 -9 386 -9 c 128,-1,24
 244 -9 244 -9 142.5 93 c 128,-1,25
 41 195 41 195 41 337 c 128,-1,26
 41 479 41 479 142.5 580.5 c 128,-1,27
 244 682 244 682 386 682 c 128,-1,28
 528 682 528 682 629.5 580.5 c 128,-1,21
 731 479 731 479 731 337 c 128,-1,22
116 336 m 128,-1,30
 116 223 116 223 194.5 144.5 c 128,-1,31
 273 66 273 66 387 66 c 0,32,33
 500 66 500 66 578 144.5 c 128,-1,34
 656 223 656 223 656 336 c 128,-1,35
 656 449 656 449 577.5 528 c 128,-1,36
 499 607 499 607 387 607 c 0,37,38
 273 607 273 607 194.5 528 c 128,-1,29
 116 449 116 449 116 336 c 128,-1,30
EndSplineSet
EndChar

StartChar: ordfeminine
Encoding: 170 170 107
Width: 365
GlyphClass: 2
Flags: W
LayerCount: 2
Fore
SplineSet
164 454 m 0,0,1
 202 454 202 454 226.5 476.5 c 128,-1,2
 251 499 251 499 251 531 c 2,3,-1
 251 582 l 1,4,-1
 194 582 l 2,5,6
 144 582 144 582 117 565 c 128,-1,7
 90 548 90 548 90 516 c 0,8,9
 90 487 90 487 109 470.5 c 128,-1,10
 128 454 128 454 164 454 c 0,0,1
253 445 m 1,11,12
 214 388 214 388 138 388 c 0,13,14
 77 388 77 388 40.5 422 c 128,-1,15
 4 456 4 456 4 513 c 0,16,17
 4 574 4 574 50.5 609 c 128,-1,18
 97 644 97 644 181 644 c 2,19,-1
 251 644 l 1,20,-1
 251 666 l 2,21,22
 251 710 251 710 230 732.5 c 128,-1,23
 209 755 209 755 159 755 c 0,24,25
 90 755 90 755 36 718 c 1,26,-1
 36 797 l 1,27,28
 87 826 87 826 168 826 c 0,29,30
 254 826 254 826 294.5 785.5 c 128,-1,31
 335 745 335 745 335 664 c 2,32,-1
 335 392 l 1,33,-1
 253 392 l 1,34,-1
 253 445 l 1,11,12
EndSplineSet
EndChar

StartChar: guillemotleft
Encoding: 171 171 108
Width: 512
GlyphClass: 2
Flags: W
LayerCount: 2
Fore
SplineSet
333 253 m 1,0,-1
 479 91 l 1,1,-1
 373 91 l 1,2,-1
 222 253 l 1,3,-1
 373 415 l 1,4,-1
 479 415 l 1,5,-1
 333 253 l 1,0,-1
284 91 m 1,6,-1
 177 91 l 1,7,-1
 27 253 l 1,8,-1
 177 415 l 1,9,-1
 284 415 l 1,10,-1
 137 253 l 1,11,-1
 284 91 l 1,6,-1
EndSplineSet
EndChar

StartChar: logicalnot
Encoding: 172 172 109
Width: 565
GlyphClass: 2
Flags: W
LayerCount: 2
Fore
SplineSet
526 153 m 1,0,-1
 439 153 l 1,1,-1
 439 330 l 1,2,-1
 31 330 l 1,3,-1
 31 414 l 1,4,-1
 526 414 l 1,5,-1
 526 153 l 1,0,-1
EndSplineSet
EndChar

StartChar: uni00AD
Encoding: 173 173 110
Width: 350
GlyphClass: 2
Flags: W
LayerCount: 2
Fore
SplineSet
297 225 m 1,0,-1
 53 225 l 1,1,-1
 53 309 l 1,2,-1
 297 309 l 1,3,-1
 297 225 l 1,0,-1
EndSplineSet
EndChar

StartChar: registered
Encoding: 174 174 111
Width: 462
GlyphClass: 2
Flags: W
LayerCount: 2
Fore
SplineSet
210 464 m 1,0,-1
 163 464 l 1,1,-1
 163 684 l 1,2,-1
 227 684 l 2,3,4
 311 684 311 684 311 614 c 0,5,6
 311 570 311 570 275 552 c 1,7,-1
 331 464 l 1,8,-1
 275 464 l 1,9,-1
 227 544 l 1,10,-1
 210 544 l 1,11,-1
 210 464 l 1,0,-1
231 645 m 2,12,-1
 210 645 l 1,13,-1
 210 582 l 1,14,-1
 234 582 l 2,15,16
 263 582 263 582 263 614 c 0,17,18
 263 645 263 645 231 645 c 2,12,-1
452 567 m 128,-1,20
 452 471 452 471 389.5 409 c 128,-1,21
 327 347 327 347 231 347 c 128,-1,22
 135 347 135 347 72.5 409 c 128,-1,23
 10 471 10 471 10 567 c 128,-1,24
 10 663 10 663 72.5 725 c 128,-1,25
 135 787 135 787 231 787 c 128,-1,26
 327 787 327 787 389.5 725 c 128,-1,19
 452 663 452 663 452 567 c 128,-1,20
62 567 m 128,-1,28
 62 491 62 491 108.5 444 c 128,-1,29
 155 397 155 397 232 397 c 0,30,31
 308 397 308 397 354.5 444 c 128,-1,32
 401 491 401 491 401 567 c 128,-1,33
 401 643 401 643 354.5 690.5 c 128,-1,34
 308 738 308 738 232 738 c 0,35,36
 155 738 155 738 108.5 690.5 c 128,-1,27
 62 643 62 643 62 567 c 128,-1,28
EndSplineSet
EndChar

StartChar: macron
Encoding: 175 175 112
Width: 444
GlyphClass: 2
Flags: W
LayerCount: 2
Fore
SplineSet
374 681 m 1,0,-1
 70 681 l 1,1,-1
 70 749 l 1,2,-1
 374 749 l 1,3,-1
 374 681 l 1,0,-1
EndSplineSet
EndChar

StartChar: degree
Encoding: 176 176 113
Width: 380
GlyphClass: 2
Flags: W
LayerCount: 2
Fore
SplineSet
350 522 m 0,0,1
 350 454 350 454 303.5 408.5 c 128,-1,2
 257 363 257 363 189 363 c 128,-1,3
 121 363 121 363 75.5 407.5 c 128,-1,4
 30 452 30 452 30 520 c 0,5,6
 30 587 30 587 76.5 633 c 128,-1,7
 123 679 123 679 191 679 c 128,-1,8
 259 679 259 679 304.5 634 c 128,-1,9
 350 589 350 589 350 522 c 0,0,1
105 521 m 128,-1,11
 105 485 105 485 130 459.5 c 128,-1,12
 155 434 155 434 191 434 c 128,-1,13
 227 434 227 434 251 459.5 c 128,-1,14
 275 485 275 485 275 521 c 128,-1,15
 275 557 275 557 250 582.5 c 128,-1,16
 225 608 225 608 189 608 c 128,-1,17
 153 608 153 608 129 582.5 c 128,-1,10
 105 557 105 557 105 521 c 128,-1,11
EndSplineSet
EndChar

StartChar: plusminus
Encoding: 177 177 114
Width: 564
GlyphClass: 2
Flags: W
LayerCount: 2
Fore
SplineSet
510 329 m 1,0,-1
 325 329 l 1,1,-1
 325 169 l 1,2,-1
 234 169 l 1,3,-1
 234 329 l 1,4,-1
 53 329 l 1,5,-1
 53 414 l 1,6,-1
 234 414 l 1,7,-1
 234 574 l 1,8,-1
 325 574 l 1,9,-1
 325 414 l 1,10,-1
 510 414 l 1,11,-1
 510 329 l 1,0,-1
510 30 m 1,12,-1
 53 30 l 1,13,-1
 53 114 l 1,14,-1
 510 114 l 1,15,-1
 510 30 l 1,12,-1
EndSplineSet
EndChar

StartChar: twosuperior
Encoding: 178 178 115
Width: 365
GlyphClass: 2
Flags: W
LayerCount: 2
Fore
SplineSet
327 392 m 1,0,-1
 43 392 l 1,1,-1
 43 449 l 1,2,3
 233 590 233 590 233 687 c 0,4,5
 233 720 233 720 213.5 737.5 c 128,-1,6
 194 755 194 755 161 755 c 0,7,8
 110 755 110 755 56 715 c 1,9,-1
 56 794 l 1,10,11
 109 827 109 827 168 827 c 0,12,13
 230 827 230 827 271.5 792 c 128,-1,14
 313 757 313 757 313 694 c 0,15,16
 313 635 313 635 267 573.5 c 128,-1,17
 221 512 221 512 146 457 c 1,18,-1
 327 457 l 1,19,-1
 327 392 l 1,0,-1
EndSplineSet
EndChar

StartChar: threesuperior
Encoding: 179 179 116
Width: 333
GlyphClass: 2
Flags: W
LayerCount: 2
Fore
SplineSet
298 508 m 0,0,1
 298 455 298 455 260 421.5 c 128,-1,2
 222 388 222 388 154 388 c 0,3,4
 85 388 85 388 35 413 c 1,5,-1
 35 483 l 1,6,7
 88 455 88 455 146 455 c 0,8,9
 181 455 181 455 200.5 471.5 c 128,-1,10
 220 488 220 488 220 515 c 0,11,12
 220 577 220 577 126 577 c 2,13,-1
 105 577 l 1,14,-1
 105 642 l 1,15,-1
 126 642 l 2,16,17
 162 642 162 642 185 657.5 c 128,-1,18
 208 673 208 673 208 702 c 0,19,20
 208 759 208 759 142 759 c 0,21,22
 96 759 96 759 48 726 c 1,23,-1
 48 800 l 1,24,25
 91 827 91 827 146 827 c 0,26,27
 213 827 213 827 250 793.5 c 128,-1,28
 287 760 287 760 287 710 c 0,29,30
 287 670 287 670 266 644.5 c 128,-1,31
 245 619 245 619 208 611 c 1,32,33
 246 607 246 607 272 579 c 128,-1,34
 298 551 298 551 298 508 c 0,0,1
EndSplineSet
EndChar

StartChar: acute
Encoding: 180 180 117
Width: 444
GlyphClass: 2
Flags: W
LayerCount: 2
Fore
SplineSet
205 636 m 1,0,-1
 121 636 l 1,1,-1
 216 798 l 1,2,-1
 325 798 l 1,3,-1
 205 636 l 1,0,-1
EndSplineSet
EndChar

StartChar: uni00B5
Encoding: 181 181 118
Width: 557
GlyphClass: 2
Flags: W
LayerCount: 2
Fore
SplineSet
167 -179 m 1,0,-1
 69 -179 l 1,1,-1
 69 507 l 1,2,-1
 167 507 l 1,3,-1
 167 185 l 2,4,5
 167 134 167 134 199.5 106 c 128,-1,6
 232 78 232 78 279 78 c 0,7,8
 332 78 332 78 361 117.5 c 128,-1,9
 390 157 390 157 390 231 c 2,10,-1
 390 507 l 1,11,-1
 488 507 l 1,12,-1
 488 0 l 1,13,-1
 390 0 l 1,14,-1
 390 72 l 1,15,16
 354 -6 354 -6 265 -6 c 0,17,18
 208 -6 208 -6 167 23 c 1,19,-1
 167 -179 l 1,0,-1
EndSplineSet
EndChar

StartChar: paragraph
Encoding: 182 182 119
Width: 559
GlyphClass: 2
Flags: W
LayerCount: 2
Fore
SplineSet
297 -148 m 1,0,-1
 215 -148 l 1,1,-1
 215 334 l 1,2,3
 123 334 123 334 72 382.5 c 128,-1,4
 21 431 21 431 21 503 c 0,5,6
 21 573 21 573 72.5 623.5 c 128,-1,7
 124 674 124 674 222 674 c 2,8,-1
 297 674 l 1,9,-1
 297 -148 l 1,0,-1
488 -148 m 1,10,-1
 405 -148 l 1,11,-1
 406 674 l 1,12,-1
 488 674 l 1,13,-1
 488 -148 l 1,10,-1
EndSplineSet
EndChar

StartChar: periodcentered
Encoding: 183 183 120
Width: 242
GlyphClass: 2
Flags: W
LayerCount: 2
Fore
SplineSet
189 300 m 128,-1,1
 189 272 189 272 169.5 252 c 128,-1,2
 150 232 150 232 122 232 c 128,-1,3
 94 232 94 232 74 252 c 128,-1,4
 54 272 54 272 54 300 c 128,-1,5
 54 328 54 328 73.5 347.5 c 128,-1,6
 93 367 93 367 122 367 c 0,7,8
 150 367 150 367 169.5 347.5 c 128,-1,0
 189 328 189 328 189 300 c 128,-1,1
EndSplineSet
EndChar

StartChar: cedilla
Encoding: 184 184 121
Width: 444
GlyphClass: 2
Flags: W
LayerCount: 2
Fore
SplineSet
301 -123 m 0,0,1
 301 -179 301 -179 260 -217.5 c 128,-1,2
 219 -256 219 -256 142 -257 c 1,3,-1
 142 -189 l 1,4,5
 224 -184 224 -184 224 -120 c 0,6,7
 224 -88 224 -88 199 -51 c 1,8,-1
 283 -51 l 1,9,10
 301 -76 301 -76 301 -123 c 0,0,1
EndSplineSet
EndChar

StartChar: onesuperior
Encoding: 185 185 122
Width: 258
GlyphClass: 2
Flags: W
LayerCount: 2
Fore
SplineSet
194 392 m 1,0,-1
 119 392 l 1,1,-1
 119 738 l 1,2,-1
 10 678 l 1,3,-1
 10 753 l 1,4,-1
 132 823 l 1,5,-1
 194 823 l 1,6,-1
 194 392 l 1,0,-1
EndSplineSet
EndChar

StartChar: ordmasculine
Encoding: 186 186 123
Width: 395
GlyphClass: 2
Flags: W
LayerCount: 2
Fore
SplineSet
396 608 m 0,0,1
 396 511 396 511 343.5 448.5 c 128,-1,2
 291 386 291 386 197 386 c 0,3,4
 104 386 104 386 51.5 447.5 c 128,-1,5
 -1 509 -1 509 -1 604 c 0,6,7
 -1 701 -1 701 53 764.5 c 128,-1,8
 107 828 107 828 197 828 c 0,9,10
 293 828 293 828 344.5 766 c 128,-1,11
 396 704 396 704 396 608 c 0,0,1
85 606 m 0,12,13
 85 542 85 542 115 498.5 c 128,-1,14
 145 455 145 455 197 455 c 0,15,16
 252 455 252 455 280.5 497.5 c 128,-1,17
 309 540 309 540 309 606 c 0,18,19
 309 673 309 673 282 716 c 128,-1,20
 255 759 255 759 196 759 c 0,21,22
 143 759 143 759 114 715 c 128,-1,23
 85 671 85 671 85 606 c 0,12,13
EndSplineSet
EndChar

StartChar: guillemotright
Encoding: 187 187 124
Width: 514
GlyphClass: 2
Flags: W
LayerCount: 2
Fore
SplineSet
485 253 m 1,0,-1
 335 91 l 1,1,-1
 229 91 l 1,2,-1
 375 253 l 1,3,-1
 229 415 l 1,4,-1
 335 415 l 1,5,-1
 485 253 l 1,0,-1
139 91 m 1,6,-1
 33 91 l 1,7,-1
 179 253 l 1,8,-1
 33 415 l 1,9,-1
 139 415 l 1,10,-1
 290 253 l 1,11,-1
 139 91 l 1,6,-1
EndSplineSet
EndChar

StartChar: onequarter
Encoding: 188 188 125
Width: 831
GlyphClass: 2
Flags: W
LayerCount: 2
Fore
SplineSet
220 0 m 1,0,-1
 138 0 l 1,1,-1
 582 712 l 1,2,-1
 664 712 l 1,3,-1
 220 0 l 1,0,-1
233 280 m 1,4,-1
 158 280 l 1,5,-1
 158 626 l 1,6,-1
 49 567 l 1,7,-1
 49 642 l 1,8,-1
 171 711 l 1,9,-1
 233 711 l 1,10,-1
 233 280 l 1,4,-1
544 156 m 1,11,-1
 665 156 l 1,12,-1
 665 373 l 1,13,-1
 544 156 l 1,11,-1
738 0 m 1,14,-1
 665 0 l 1,15,-1
 665 95 l 1,16,-1
 469 95 l 1,17,-1
 469 156 l 1,18,-1
 624 429 l 1,19,-1
 738 429 l 1,20,-1
 738 156 l 1,21,-1
 797 156 l 1,22,-1
 797 95 l 1,23,-1
 738 95 l 1,24,-1
 738 0 l 1,14,-1
EndSplineSet
EndChar

StartChar: onehalf
Encoding: 189 189 126
Width: 833
GlyphClass: 2
Flags: W
LayerCount: 2
Fore
SplineSet
220 0 m 1,0,-1
 138 0 l 1,1,-1
 582 712 l 1,2,-1
 664 712 l 1,3,-1
 220 0 l 1,0,-1
233 280 m 1,4,-1
 158 280 l 1,5,-1
 158 626 l 1,6,-1
 49 567 l 1,7,-1
 49 642 l 1,8,-1
 171 711 l 1,9,-1
 233 711 l 1,10,-1
 233 280 l 1,4,-1
800 0 m 1,11,-1
 516 0 l 1,12,-1
 516 57 l 1,13,14
 706 198 706 198 706 295 c 0,15,16
 706 328 706 328 686.5 345.5 c 128,-1,17
 667 363 667 363 634 363 c 0,18,19
 583 363 583 363 529 323 c 1,20,-1
 529 402 l 1,21,22
 582 435 582 435 641 435 c 0,23,24
 703 435 703 435 744.5 400 c 128,-1,25
 786 365 786 365 786 302 c 0,26,27
 786 243 786 243 740 181.5 c 128,-1,28
 694 120 694 120 619 65 c 1,29,-1
 800 65 l 1,30,-1
 800 0 l 1,11,-1
EndSplineSet
EndChar

StartChar: threequarters
Encoding: 190 190 127
Width: 876
GlyphClass: 2
Flags: W
LayerCount: 2
Fore
SplineSet
275 0 m 1,0,-1
 193 0 l 1,1,-1
 637 712 l 1,2,-1
 720 712 l 1,3,-1
 275 0 l 1,0,-1
321 396 m 0,4,5
 321 342 321 342 283 309 c 128,-1,6
 245 276 245 276 177 276 c 0,7,8
 108 276 108 276 58 301 c 1,9,-1
 58 371 l 1,10,11
 110 343 110 343 169 343 c 0,12,13
 203 343 203 343 223 359.5 c 128,-1,14
 243 376 243 376 243 403 c 0,15,16
 243 465 243 465 149 465 c 2,17,-1
 127 465 l 1,18,-1
 127 529 l 1,19,-1
 149 529 l 2,20,21
 184 529 184 529 207.5 545 c 128,-1,22
 231 561 231 561 231 590 c 0,23,24
 231 647 231 647 165 647 c 0,25,26
 117 647 117 647 71 614 c 1,27,-1
 71 688 l 1,28,29
 114 715 114 715 168 715 c 0,30,31
 236 715 236 715 273 681.5 c 128,-1,32
 310 648 310 648 310 597 c 0,33,34
 310 558 310 558 289 532 c 128,-1,35
 268 506 268 506 231 498 c 1,36,37
 268 495 268 495 294.5 467 c 128,-1,38
 321 439 321 439 321 396 c 0,4,5
600 156 m 1,39,-1
 720 156 l 1,40,-1
 720 373 l 1,41,-1
 600 156 l 1,39,-1
793 0 m 1,42,-1
 720 0 l 1,43,-1
 720 95 l 1,44,-1
 524 95 l 1,45,-1
 524 156 l 1,46,-1
 679 429 l 1,47,-1
 793 429 l 1,48,-1
 793 156 l 1,49,-1
 852 156 l 1,50,-1
 852 95 l 1,51,-1
 793 95 l 1,52,-1
 793 0 l 1,42,-1
EndSplineSet
EndChar

StartChar: questiondown
Encoding: 191 191 128
Width: 454
GlyphClass: 2
Flags: W
LayerCount: 2
Fore
SplineSet
418 -136 m 1,0,1
 350 -173 350 -173 260 -173 c 0,2,3
 165 -173 165 -173 108 -124.5 c 128,-1,4
 51 -76 51 -76 51 10 c 0,5,6
 51 69 51 69 82 111.5 c 128,-1,7
 113 154 113 154 153.5 173 c 128,-1,8
 194 192 194 192 238 195 c 1,9,-1
 239 296 l 1,10,-1
 332 296 l 1,11,-1
 333 134 l 1,12,13
 152 134 152 134 152 18 c 0,14,15
 152 -29 152 -29 181.5 -57.5 c 128,-1,16
 211 -86 211 -86 270 -86 c 0,17,18
 345 -86 345 -86 418 -39 c 1,19,-1
 418 -136 l 1,0,1
355 449 m 128,-1,21
 355 420 355 420 335.5 400.5 c 128,-1,22
 316 381 316 381 287 381 c 128,-1,23
 258 381 258 381 238 400.5 c 128,-1,24
 218 420 218 420 218 449 c 128,-1,25
 218 478 218 478 238 497.5 c 128,-1,26
 258 517 258 517 287 517 c 128,-1,27
 316 517 316 517 335.5 497.5 c 128,-1,20
 355 478 355 478 355 449 c 128,-1,21
EndSplineSet
EndChar

StartChar: Agrave
Encoding: 192 192 129
Width: 660
GlyphClass: 2
Flags: W
LayerCount: 2
Fore
SplineSet
233 285 m 2,0,-1
 222 251 l 1,1,-1
 438 251 l 1,2,-1
 427 285 l 2,3,4
 389 403 389 403 365 480.5 c 128,-1,5
 341 558 341 558 336 577 c 2,6,-1
 331 596 l 1,7,8
 320 549 320 549 233 285 c 2,0,-1
140 0 m 1,9,-1
 31 0 l 1,10,-1
 264 674 l 1,11,-1
 399 674 l 1,12,-1
 629 0 l 1,13,-1
 519 0 l 1,14,-1
 466 165 l 1,15,-1
 194 165 l 1,16,-1
 140 0 l 1,9,-1
369 725 m 1,17,-1
 285 725 l 1,18,-1
 165 887 l 1,19,-1
 274 887 l 1,20,-1
 369 725 l 1,17,-1
EndSplineSet
EndChar

StartChar: Aacute
Encoding: 193 193 130
Width: 660
GlyphClass: 2
Flags: W
LayerCount: 2
Fore
SplineSet
233 285 m 2,0,-1
 222 251 l 1,1,-1
 438 251 l 1,2,-1
 427 285 l 2,3,4
 389 403 389 403 365 480.5 c 128,-1,5
 341 558 341 558 336 577 c 2,6,-1
 331 596 l 1,7,8
 320 549 320 549 233 285 c 2,0,-1
140 0 m 1,9,-1
 31 0 l 1,10,-1
 264 674 l 1,11,-1
 399 674 l 1,12,-1
 629 0 l 1,13,-1
 519 0 l 1,14,-1
 466 165 l 1,15,-1
 194 165 l 1,16,-1
 140 0 l 1,9,-1
382 725 m 1,17,-1
 298 725 l 1,18,-1
 393 887 l 1,19,-1
 502 887 l 1,20,-1
 382 725 l 1,17,-1
EndSplineSet
EndChar

StartChar: Acircumflex
Encoding: 194 194 131
Width: 660
GlyphClass: 2
Flags: W
LayerCount: 2
Fore
SplineSet
233 285 m 2,0,-1
 222 251 l 1,1,-1
 438 251 l 1,2,-1
 427 285 l 2,3,4
 389 403 389 403 365 480.5 c 128,-1,5
 341 558 341 558 336 577 c 2,6,-1
 331 596 l 1,7,8
 320 549 320 549 233 285 c 2,0,-1
140 0 m 1,9,-1
 31 0 l 1,10,-1
 264 674 l 1,11,-1
 399 674 l 1,12,-1
 629 0 l 1,13,-1
 519 0 l 1,14,-1
 466 165 l 1,15,-1
 194 165 l 1,16,-1
 140 0 l 1,9,-1
250 725 m 1,17,-1
 153 725 l 1,18,-1
 288 887 l 1,19,-1
 378 887 l 1,20,-1
 513 725 l 1,21,-1
 416 725 l 1,22,-1
 332 827 l 1,23,-1
 250 725 l 1,17,-1
EndSplineSet
EndChar

StartChar: Atilde
Encoding: 195 195 132
Width: 660
GlyphClass: 2
Flags: W
LayerCount: 2
Fore
SplineSet
233 285 m 2,0,-1
 222 251 l 1,1,-1
 438 251 l 1,2,-1
 427 285 l 2,3,4
 389 403 389 403 365 480.5 c 128,-1,5
 341 558 341 558 336 577 c 2,6,-1
 331 596 l 1,7,8
 320 549 320 549 233 285 c 2,0,-1
140 0 m 1,9,-1
 31 0 l 1,10,-1
 264 674 l 1,11,-1
 399 674 l 1,12,-1
 629 0 l 1,13,-1
 519 0 l 1,14,-1
 466 165 l 1,15,-1
 194 165 l 1,16,-1
 140 0 l 1,9,-1
274 793 m 0,17,18
 251 793 251 793 235.5 782 c 128,-1,19
 220 771 220 771 204 747 c 1,20,-1
 155 792 l 1,21,22
 169 823 169 823 197.5 844.5 c 128,-1,23
 226 866 226 866 260 866 c 0,24,25
 292 866 292 866 334 845.5 c 128,-1,26
 376 825 376 825 395 825 c 0,27,28
 432 825 432 825 453 868 c 1,29,-1
 509 826 l 1,30,31
 474 752 474 752 400 752 c 0,32,33
 371 752 371 752 330.5 772.5 c 128,-1,34
 290 793 290 793 274 793 c 0,17,18
EndSplineSet
EndChar

StartChar: Adieresis
Encoding: 196 196 133
Width: 660
GlyphClass: 2
Flags: W
LayerCount: 2
Fore
SplineSet
233 285 m 2,0,-1
 222 251 l 1,1,-1
 438 251 l 1,2,-1
 427 285 l 2,3,4
 389 403 389 403 365 480.5 c 128,-1,5
 341 558 341 558 336 577 c 2,6,-1
 331 596 l 1,7,8
 320 549 320 549 233 285 c 2,0,-1
140 0 m 1,9,-1
 31 0 l 1,10,-1
 264 674 l 1,11,-1
 399 674 l 1,12,-1
 629 0 l 1,13,-1
 519 0 l 1,14,-1
 466 165 l 1,15,-1
 194 165 l 1,16,-1
 140 0 l 1,9,-1
506 807 m 128,-1,18
 506 781 506 781 488.5 764 c 128,-1,19
 471 747 471 747 445 747 c 0,20,21
 420 747 420 747 402.5 764.5 c 128,-1,22
 385 782 385 782 385 807 c 128,-1,23
 385 832 385 832 402.5 849.5 c 128,-1,24
 420 867 420 867 445 867 c 0,25,26
 471 867 471 867 488.5 850 c 128,-1,17
 506 833 506 833 506 807 c 128,-1,18
285 807 m 128,-1,28
 285 782 285 782 267.5 764.5 c 128,-1,29
 250 747 250 747 225 747 c 0,30,31
 198 747 198 747 181 764 c 128,-1,32
 164 781 164 781 164 807 c 128,-1,33
 164 833 164 833 181 850 c 128,-1,34
 198 867 198 867 225 867 c 0,35,36
 250 867 250 867 267.5 849.5 c 128,-1,27
 285 832 285 832 285 807 c 128,-1,28
EndSplineSet
EndChar

StartChar: Aring
Encoding: 197 197 134
Width: 660
GlyphClass: 2
Flags: W
LayerCount: 2
Fore
SplineSet
233 285 m 2,0,-1
 222 251 l 1,1,-1
 438 251 l 1,2,-1
 427 285 l 2,3,4
 389 403 389 403 365 480.5 c 128,-1,5
 341 558 341 558 336 577 c 2,6,-1
 331 596 l 1,7,8
 320 549 320 549 233 285 c 2,0,-1
140 0 m 1,9,-1
 31 0 l 1,10,-1
 264 674 l 1,11,-1
 399 674 l 1,12,-1
 629 0 l 1,13,-1
 519 0 l 1,14,-1
 466 165 l 1,15,-1
 194 165 l 1,16,-1
 140 0 l 1,9,-1
449 829 m 0,17,18
 449 782 449 782 415 748.5 c 128,-1,19
 381 715 381 715 333 715 c 0,20,21
 286 715 286 715 252.5 748.5 c 128,-1,22
 219 782 219 782 219 829 c 0,23,24
 219 877 219 877 252.5 911 c 128,-1,25
 286 945 286 945 333 945 c 0,26,27
 381 945 381 945 415 911 c 128,-1,28
 449 877 449 877 449 829 c 0,17,18
280 831 m 128,-1,30
 280 809 280 809 295.5 792.5 c 128,-1,31
 311 776 311 776 333 776 c 0,32,33
 356 776 356 776 371.5 792.5 c 128,-1,34
 387 809 387 809 387 831 c 128,-1,35
 387 853 387 853 371.5 869 c 128,-1,36
 356 885 356 885 333 885 c 0,37,38
 311 885 311 885 295.5 869 c 128,-1,29
 280 853 280 853 280 831 c 128,-1,30
EndSplineSet
EndChar

StartChar: AE
Encoding: 198 198 135
Width: 897
GlyphClass: 2
Flags: W
LayerCount: 2
Fore
SplineSet
127 0 m 1,0,-1
 19 0 l 1,1,-1
 385 674 l 1,2,-1
 840 674 l 1,3,-1
 840 588 l 1,4,-1
 559 588 l 1,5,-1
 559 380 l 1,6,-1
 808 380 l 1,7,-1
 808 294 l 1,8,-1
 559 294 l 1,9,-1
 559 86 l 1,10,-1
 845 86 l 1,11,-1
 845 0 l 1,12,-1
 459 0 l 1,13,-1
 459 165 l 1,14,-1
 218 165 l 1,15,-1
 127 0 l 1,0,-1
285 285 m 2,16,-1
 266 251 l 1,17,-1
 459 251 l 1,18,-1
 459 608 l 1,19,20
 403 495 403 495 285 285 c 2,16,-1
EndSplineSet
EndChar

StartChar: Ccedilla
Encoding: 199 199 136
Width: 605
GlyphClass: 2
Flags: W
LayerCount: 2
Fore
SplineSet
561 33 m 1,0,1
 499 -8 499 -8 389 -8 c 0,2,3
 238 -8 238 -8 142 86 c 128,-1,4
 46 180 46 180 46 338 c 0,5,6
 46 491 46 491 142.5 587 c 128,-1,7
 239 683 239 683 387 683 c 0,8,9
 495 683 495 683 560 646 c 1,10,-1
 560 545 l 1,11,12
 516 569 516 569 480.5 578.5 c 128,-1,13
 445 588 445 588 390 588 c 0,14,15
 289 588 289 588 221.5 519.5 c 128,-1,16
 154 451 154 451 154 338 c 0,17,18
 154 223 154 223 221 155 c 128,-1,19
 288 87 288 87 398 87 c 0,20,21
 495 87 495 87 561 137 c 1,22,-1
 561 33 l 1,0,1
430 -123 m 0,23,24
 430 -179 430 -179 389 -217.5 c 128,-1,25
 348 -256 348 -256 271 -257 c 1,26,-1
 271 -189 l 1,27,28
 353 -184 353 -184 353 -120 c 0,29,30
 353 -88 353 -88 328 -51 c 1,31,-1
 412 -51 l 1,32,33
 430 -76 430 -76 430 -123 c 0,23,24
EndSplineSet
EndChar

StartChar: Egrave
Encoding: 200 200 137
Width: 514
GlyphClass: 2
Flags: W
LayerCount: 2
Fore
SplineSet
462 0 m 1,0,-1
 73 0 l 1,1,-1
 73 674 l 1,2,-1
 457 674 l 1,3,-1
 457 588 l 1,4,-1
 176 588 l 1,5,-1
 176 380 l 1,6,-1
 425 380 l 1,7,-1
 425 294 l 1,8,-1
 176 294 l 1,9,-1
 176 86 l 1,10,-1
 462 86 l 1,11,-1
 462 0 l 1,0,-1
327 725 m 1,12,-1
 243 725 l 1,13,-1
 123 887 l 1,14,-1
 232 887 l 1,15,-1
 327 725 l 1,12,-1
EndSplineSet
EndChar

StartChar: Eacute
Encoding: 201 201 138
Width: 514
GlyphClass: 2
Flags: W
LayerCount: 2
Fore
SplineSet
462 0 m 1,0,-1
 73 0 l 1,1,-1
 73 674 l 1,2,-1
 457 674 l 1,3,-1
 457 588 l 1,4,-1
 176 588 l 1,5,-1
 176 380 l 1,6,-1
 425 380 l 1,7,-1
 425 294 l 1,8,-1
 176 294 l 1,9,-1
 176 86 l 1,10,-1
 462 86 l 1,11,-1
 462 0 l 1,0,-1
322 725 m 1,12,-1
 238 725 l 1,13,-1
 333 887 l 1,14,-1
 442 887 l 1,15,-1
 322 725 l 1,12,-1
EndSplineSet
EndChar

StartChar: Ecircumflex
Encoding: 202 202 139
Width: 514
GlyphClass: 2
Flags: W
LayerCount: 2
Fore
SplineSet
462 0 m 1,0,-1
 73 0 l 1,1,-1
 73 674 l 1,2,-1
 457 674 l 1,3,-1
 457 588 l 1,4,-1
 176 588 l 1,5,-1
 176 380 l 1,6,-1
 425 380 l 1,7,-1
 425 294 l 1,8,-1
 176 294 l 1,9,-1
 176 86 l 1,10,-1
 462 86 l 1,11,-1
 462 0 l 1,0,-1
190 725 m 1,12,-1
 93 725 l 1,13,-1
 228 887 l 1,14,-1
 318 887 l 1,15,-1
 453 725 l 1,16,-1
 356 725 l 1,17,-1
 272 827 l 1,18,-1
 190 725 l 1,12,-1
EndSplineSet
EndChar

StartChar: Edieresis
Encoding: 203 203 140
Width: 514
GlyphClass: 2
Flags: W
LayerCount: 2
Fore
SplineSet
462 0 m 1,0,-1
 73 0 l 1,1,-1
 73 674 l 1,2,-1
 457 674 l 1,3,-1
 457 588 l 1,4,-1
 176 588 l 1,5,-1
 176 380 l 1,6,-1
 425 380 l 1,7,-1
 425 294 l 1,8,-1
 176 294 l 1,9,-1
 176 86 l 1,10,-1
 462 86 l 1,11,-1
 462 0 l 1,0,-1
440 806 m 128,-1,13
 440 780 440 780 422.5 763 c 128,-1,14
 405 746 405 746 379 746 c 0,15,16
 354 746 354 746 336.5 763 c 128,-1,17
 319 780 319 780 319 806 c 128,-1,18
 319 832 319 832 336.5 849 c 128,-1,19
 354 866 354 866 379 866 c 0,20,21
 405 866 405 866 422.5 849 c 128,-1,12
 440 832 440 832 440 806 c 128,-1,13
219 806 m 128,-1,23
 219 780 219 780 201.5 763 c 128,-1,24
 184 746 184 746 159 746 c 0,25,26
 132 746 132 746 115 763 c 128,-1,27
 98 780 98 780 98 806 c 128,-1,28
 98 832 98 832 115 849 c 128,-1,29
 132 866 132 866 159 866 c 0,30,31
 184 866 184 866 201.5 849 c 128,-1,22
 219 832 219 832 219 806 c 128,-1,23
EndSplineSet
EndChar

StartChar: Igrave
Encoding: 204 204 141
Width: 264
GlyphClass: 2
Flags: W
LayerCount: 2
Fore
SplineSet
183 0 m 1,0,-1
 81 0 l 1,1,-1
 81 674 l 1,2,-1
 183 674 l 1,3,-1
 183 0 l 1,0,-1
169 725 m 1,4,-1
 85 725 l 1,5,-1
 -35 887 l 1,6,-1
 74 887 l 1,7,-1
 169 725 l 1,4,-1
EndSplineSet
EndChar

StartChar: Iacute
Encoding: 205 205 142
Width: 264
GlyphClass: 2
Flags: W
LayerCount: 2
Fore
SplineSet
183 0 m 1,0,-1
 81 0 l 1,1,-1
 81 674 l 1,2,-1
 183 674 l 1,3,-1
 183 0 l 1,0,-1
178 725 m 1,4,-1
 94 725 l 1,5,-1
 189 887 l 1,6,-1
 298 887 l 1,7,-1
 178 725 l 1,4,-1
EndSplineSet
EndChar

StartChar: Icircumflex
Encoding: 206 206 143
Width: 264
GlyphClass: 2
Flags: W
LayerCount: 2
Fore
SplineSet
183 0 m 1,0,-1
 81 0 l 1,1,-1
 81 674 l 1,2,-1
 183 674 l 1,3,-1
 183 0 l 1,0,-1
50 725 m 1,4,-1
 -47 725 l 1,5,-1
 88 887 l 1,6,-1
 178 887 l 1,7,-1
 313 725 l 1,8,-1
 216 725 l 1,9,-1
 132 827 l 1,10,-1
 50 725 l 1,4,-1
EndSplineSet
EndChar

StartChar: Idieresis
Encoding: 207 207 144
Width: 264
GlyphClass: 2
Flags: W
LayerCount: 2
Fore
SplineSet
183 0 m 1,0,-1
 81 0 l 1,1,-1
 81 674 l 1,2,-1
 183 674 l 1,3,-1
 183 0 l 1,0,-1
306 807 m 128,-1,5
 306 781 306 781 288.5 764 c 128,-1,6
 271 747 271 747 245 747 c 0,7,8
 220 747 220 747 202.5 764.5 c 128,-1,9
 185 782 185 782 185 807 c 128,-1,10
 185 832 185 832 202.5 849.5 c 128,-1,11
 220 867 220 867 245 867 c 0,12,13
 271 867 271 867 288.5 850 c 128,-1,4
 306 833 306 833 306 807 c 128,-1,5
85 807 m 128,-1,15
 85 782 85 782 67.5 764.5 c 128,-1,16
 50 747 50 747 25 747 c 0,17,18
 -2 747 -2 747 -19 764 c 128,-1,19
 -36 781 -36 781 -36 807 c 128,-1,20
 -36 833 -36 833 -19 850 c 128,-1,21
 -2 867 -2 867 25 867 c 0,22,23
 50 867 50 867 67.5 849.5 c 128,-1,14
 85 832 85 832 85 807 c 128,-1,15
EndSplineSet
EndChar

StartChar: Eth
Encoding: 208 208 145
Width: 736
GlyphClass: 2
Flags: W
LayerCount: 2
Fore
SplineSet
353 0 m 2,0,-1
 142 0 l 1,1,-1
 142 294 l 1,2,-1
 62 294 l 1,3,-1
 62 378 l 1,4,-1
 142 378 l 1,5,-1
 142 674 l 1,6,-1
 351 674 l 2,7,8
 501 674 501 674 597 581 c 128,-1,9
 693 488 693 488 693 344 c 0,10,11
 693 194 693 194 602.5 97 c 128,-1,12
 512 0 512 0 353 0 c 2,0,-1
410 294 m 1,13,-1
 246 294 l 1,14,-1
 246 87 l 1,15,-1
 352 87 l 2,16,17
 468 87 468 87 528 159 c 128,-1,18
 588 231 588 231 588 344 c 0,19,20
 588 448 588 448 522.5 517 c 128,-1,21
 457 586 457 586 349 586 c 2,22,-1
 246 586 l 1,23,-1
 246 378 l 1,24,-1
 410 378 l 1,25,-1
 410 294 l 1,13,-1
EndSplineSet
EndChar

StartChar: Ntilde
Encoding: 209 209 146
Width: 680
GlyphClass: 2
Flags: W
LayerCount: 2
Fore
SplineSet
176 0 m 1,0,-1
 73 0 l 1,1,-1
 73 674 l 1,2,-1
 195 674 l 1,3,-1
 361 392 l 2,4,5
 407 313 407 313 444.5 246 c 128,-1,6
 482 179 482 179 496 152 c 2,7,-1
 510 124 l 1,8,9
 504 215 504 215 504 391 c 2,10,-1
 504 674 l 1,11,-1
 607 674 l 1,12,-1
 607 0 l 1,13,-1
 485 0 l 1,14,-1
 318 281 l 2,15,16
 273 357 273 357 235.5 424.5 c 128,-1,17
 198 492 198 492 183 522 c 2,18,-1
 168 551 l 1,19,20
 176 451 176 451 176 282 c 2,21,-1
 176 0 l 1,0,-1
290 793 m 0,22,23
 267 793 267 793 251.5 782 c 128,-1,24
 236 771 236 771 220 747 c 1,25,-1
 171 792 l 1,26,27
 185 823 185 823 213.5 844.5 c 128,-1,28
 242 866 242 866 276 866 c 0,29,30
 308 866 308 866 350 845.5 c 128,-1,31
 392 825 392 825 411 825 c 0,32,33
 448 825 448 825 469 868 c 1,34,-1
 525 826 l 1,35,36
 490 752 490 752 416 752 c 0,37,38
 387 752 387 752 346.5 772.5 c 128,-1,39
 306 793 306 793 290 793 c 0,22,23
EndSplineSet
EndChar

StartChar: Ograve
Encoding: 210 210 147
Width: 711
GlyphClass: 2
Flags: W
LayerCount: 2
Fore
SplineSet
665 340 m 128,-1,1
 665 182 665 182 581.5 87 c 128,-1,2
 498 -8 498 -8 356 -8 c 0,3,4
 215 -8 215 -8 130.5 87 c 128,-1,5
 46 182 46 182 46 340 c 0,6,7
 46 497 46 497 130 592 c 128,-1,8
 214 687 214 687 355 687 c 0,9,10
 499 687 499 687 582 592.5 c 128,-1,0
 665 498 665 498 665 340 c 128,-1,1
154 340 m 128,-1,12
 154 224 154 224 209 156 c 128,-1,13
 264 88 264 88 356 88 c 0,14,15
 451 88 451 88 504 155 c 128,-1,16
 557 222 557 222 557 340 c 0,17,18
 557 457 557 457 503.5 524 c 128,-1,19
 450 591 450 591 355 591 c 0,20,21
 261 591 261 591 207.5 523.5 c 128,-1,11
 154 456 154 456 154 340 c 128,-1,12
407 725 m 1,22,-1
 323 725 l 1,23,-1
 203 887 l 1,24,-1
 312 887 l 1,25,-1
 407 725 l 1,22,-1
EndSplineSet
EndChar

StartChar: Oacute
Encoding: 211 211 148
Width: 711
GlyphClass: 2
Flags: W
LayerCount: 2
Fore
SplineSet
665 340 m 128,-1,1
 665 182 665 182 581.5 87 c 128,-1,2
 498 -8 498 -8 356 -8 c 0,3,4
 215 -8 215 -8 130.5 87 c 128,-1,5
 46 182 46 182 46 340 c 0,6,7
 46 497 46 497 130 592 c 128,-1,8
 214 687 214 687 355 687 c 0,9,10
 499 687 499 687 582 592.5 c 128,-1,0
 665 498 665 498 665 340 c 128,-1,1
154 340 m 128,-1,12
 154 224 154 224 209 156 c 128,-1,13
 264 88 264 88 356 88 c 0,14,15
 451 88 451 88 504 155 c 128,-1,16
 557 222 557 222 557 340 c 0,17,18
 557 457 557 457 503.5 524 c 128,-1,19
 450 591 450 591 355 591 c 0,20,21
 261 591 261 591 207.5 523.5 c 128,-1,11
 154 456 154 456 154 340 c 128,-1,12
404 725 m 1,22,-1
 320 725 l 1,23,-1
 415 887 l 1,24,-1
 524 887 l 1,25,-1
 404 725 l 1,22,-1
EndSplineSet
EndChar

StartChar: Ocircumflex
Encoding: 212 212 149
Width: 711
GlyphClass: 2
Flags: W
LayerCount: 2
Fore
SplineSet
665 340 m 128,-1,1
 665 182 665 182 581.5 87 c 128,-1,2
 498 -8 498 -8 356 -8 c 0,3,4
 215 -8 215 -8 130.5 87 c 128,-1,5
 46 182 46 182 46 340 c 0,6,7
 46 497 46 497 130 592 c 128,-1,8
 214 687 214 687 355 687 c 0,9,10
 499 687 499 687 582 592.5 c 128,-1,0
 665 498 665 498 665 340 c 128,-1,1
154 340 m 128,-1,12
 154 224 154 224 209 156 c 128,-1,13
 264 88 264 88 356 88 c 0,14,15
 451 88 451 88 504 155 c 128,-1,16
 557 222 557 222 557 340 c 0,17,18
 557 457 557 457 503.5 524 c 128,-1,19
 450 591 450 591 355 591 c 0,20,21
 261 591 261 591 207.5 523.5 c 128,-1,11
 154 456 154 456 154 340 c 128,-1,12
279 725 m 1,22,-1
 182 725 l 1,23,-1
 317 887 l 1,24,-1
 407 887 l 1,25,-1
 542 725 l 1,26,-1
 445 725 l 1,27,-1
 361 827 l 1,28,-1
 279 725 l 1,22,-1
EndSplineSet
EndChar

StartChar: Otilde
Encoding: 213 213 150
Width: 711
GlyphClass: 2
Flags: W
LayerCount: 2
Fore
SplineSet
665 340 m 128,-1,1
 665 182 665 182 581.5 87 c 128,-1,2
 498 -8 498 -8 356 -8 c 0,3,4
 215 -8 215 -8 130.5 87 c 128,-1,5
 46 182 46 182 46 340 c 0,6,7
 46 497 46 497 130 592 c 128,-1,8
 214 687 214 687 355 687 c 0,9,10
 499 687 499 687 582 592.5 c 128,-1,0
 665 498 665 498 665 340 c 128,-1,1
154 340 m 128,-1,12
 154 224 154 224 209 156 c 128,-1,13
 264 88 264 88 356 88 c 0,14,15
 451 88 451 88 504 155 c 128,-1,16
 557 222 557 222 557 340 c 0,17,18
 557 457 557 457 503.5 524 c 128,-1,19
 450 591 450 591 355 591 c 0,20,21
 261 591 261 591 207.5 523.5 c 128,-1,11
 154 456 154 456 154 340 c 128,-1,12
299 794 m 0,22,23
 276 794 276 794 260.5 783 c 128,-1,24
 245 772 245 772 229 748 c 1,25,-1
 180 793 l 1,26,27
 194 824 194 824 222.5 845.5 c 128,-1,28
 251 867 251 867 285 867 c 0,29,30
 317 867 317 867 359 846.5 c 128,-1,31
 401 826 401 826 420 826 c 0,32,33
 457 826 457 826 478 869 c 1,34,-1
 534 827 l 1,35,36
 499 753 499 753 425 753 c 0,37,38
 396 753 396 753 355.5 773.5 c 128,-1,39
 315 794 315 794 299 794 c 0,22,23
EndSplineSet
EndChar

StartChar: Odieresis
Encoding: 214 214 151
Width: 711
GlyphClass: 2
Flags: W
LayerCount: 2
Fore
SplineSet
665 340 m 128,-1,1
 665 182 665 182 581.5 87 c 128,-1,2
 498 -8 498 -8 356 -8 c 0,3,4
 215 -8 215 -8 130.5 87 c 128,-1,5
 46 182 46 182 46 340 c 0,6,7
 46 497 46 497 130 592 c 128,-1,8
 214 687 214 687 355 687 c 0,9,10
 499 687 499 687 582 592.5 c 128,-1,0
 665 498 665 498 665 340 c 128,-1,1
154 340 m 128,-1,12
 154 224 154 224 209 156 c 128,-1,13
 264 88 264 88 356 88 c 0,14,15
 451 88 451 88 504 155 c 128,-1,16
 557 222 557 222 557 340 c 0,17,18
 557 457 557 457 503.5 524 c 128,-1,19
 450 591 450 591 355 591 c 0,20,21
 261 591 261 591 207.5 523.5 c 128,-1,11
 154 456 154 456 154 340 c 128,-1,12
532 807 m 128,-1,23
 532 781 532 781 514.5 764 c 128,-1,24
 497 747 497 747 471 747 c 0,25,26
 446 747 446 747 428.5 764.5 c 128,-1,27
 411 782 411 782 411 807 c 128,-1,28
 411 832 411 832 428.5 849.5 c 128,-1,29
 446 867 446 867 471 867 c 0,30,31
 497 867 497 867 514.5 850 c 128,-1,22
 532 833 532 833 532 807 c 128,-1,23
311 807 m 128,-1,33
 311 782 311 782 293.5 764.5 c 128,-1,34
 276 747 276 747 251 747 c 0,35,36
 224 747 224 747 207 764 c 128,-1,37
 190 781 190 781 190 807 c 128,-1,38
 190 833 190 833 207 850 c 128,-1,39
 224 867 224 867 251 867 c 0,40,41
 276 867 276 867 293.5 849.5 c 128,-1,32
 311 832 311 832 311 807 c 128,-1,33
EndSplineSet
EndChar

StartChar: multiply
Encoding: 215 215 152
Width: 503
GlyphClass: 2
Flags: W
LayerCount: 2
Fore
SplineSet
445 210 m 1,0,-1
 382 147 l 1,1,-1
 251 277 l 1,2,-1
 121 148 l 1,3,-1
 57 211 l 1,4,-1
 187 341 l 1,5,-1
 54 473 l 1,6,-1
 117 536 l 1,7,-1
 250 404 l 1,8,-1
 383 536 l 1,9,-1
 447 472 l 1,10,-1
 314 340 l 1,11,-1
 445 210 l 1,0,-1
EndSplineSet
EndChar

StartChar: Oslash
Encoding: 216 216 153
Width: 686
GlyphClass: 2
Flags: W
LayerCount: 2
Fore
SplineSet
660 340 m 0,0,1
 660 182 660 182 576.5 87 c 128,-1,2
 493 -8 493 -8 351 -8 c 0,3,4
 253 -8 253 -8 180 40 c 1,5,-1
 144 -8 l 1,6,-1
 40 -8 l 1,7,-1
 117 96 l 1,8,9
 40 190 40 190 40 340 c 0,10,11
 40 497 40 497 124 592 c 128,-1,12
 208 687 208 687 350 687 c 0,13,14
 448 687 448 687 522 640 c 1,15,-1
 557 686 l 1,16,-1
 661 686 l 1,17,-1
 585 583 l 1,18,19
 660 489 660 489 660 340 c 0,0,1
146 340 m 0,20,21
 146 246 146 246 182 182 c 1,22,-1
 464 562 l 1,23,24
 419 595 419 595 350 595 c 0,25,26
 255 595 255 595 200.5 526.5 c 128,-1,27
 146 458 146 458 146 340 c 0,20,21
351 84 m 0,28,29
 447 84 447 84 500.5 152.5 c 128,-1,30
 554 221 554 221 554 340 c 0,31,32
 554 434 554 434 520 497 c 1,33,-1
 238 118 l 1,34,35
 286 84 286 84 351 84 c 0,28,29
EndSplineSet
EndChar

StartChar: Ugrave
Encoding: 217 217 154
Width: 652
GlyphClass: 2
Flags: W
LayerCount: 2
Fore
SplineSet
581 258 m 2,0,1
 581 127 581 127 513 59 c 128,-1,2
 445 -9 445 -9 325 -9 c 0,3,4
 207 -9 207 -9 139 57.5 c 128,-1,5
 71 124 71 124 71 250 c 2,6,-1
 71 674 l 1,7,-1
 174 674 l 1,8,-1
 174 251 l 2,9,10
 174 165 174 165 215.5 125.5 c 128,-1,11
 257 86 257 86 325 86 c 0,12,13
 478 86 478 86 478 256 c 2,14,-1
 478 674 l 1,15,-1
 581 674 l 1,16,-1
 581 258 l 2,0,1
372 725 m 1,17,-1
 288 725 l 1,18,-1
 168 887 l 1,19,-1
 277 887 l 1,20,-1
 372 725 l 1,17,-1
EndSplineSet
EndChar

StartChar: Uacute
Encoding: 218 218 155
Width: 652
GlyphClass: 2
Flags: W
LayerCount: 2
Fore
SplineSet
581 258 m 2,0,1
 581 127 581 127 513 59 c 128,-1,2
 445 -9 445 -9 325 -9 c 0,3,4
 207 -9 207 -9 139 57.5 c 128,-1,5
 71 124 71 124 71 250 c 2,6,-1
 71 674 l 1,7,-1
 174 674 l 1,8,-1
 174 251 l 2,9,10
 174 165 174 165 215.5 125.5 c 128,-1,11
 257 86 257 86 325 86 c 0,12,13
 478 86 478 86 478 256 c 2,14,-1
 478 674 l 1,15,-1
 581 674 l 1,16,-1
 581 258 l 2,0,1
381 725 m 1,17,-1
 297 725 l 1,18,-1
 392 887 l 1,19,-1
 501 887 l 1,20,-1
 381 725 l 1,17,-1
EndSplineSet
EndChar

StartChar: Ucircumflex
Encoding: 219 219 156
Width: 652
GlyphClass: 2
Flags: W
LayerCount: 2
Fore
SplineSet
581 258 m 2,0,1
 581 127 581 127 513 59 c 128,-1,2
 445 -9 445 -9 325 -9 c 0,3,4
 207 -9 207 -9 139 57.5 c 128,-1,5
 71 124 71 124 71 250 c 2,6,-1
 71 674 l 1,7,-1
 174 674 l 1,8,-1
 174 251 l 2,9,10
 174 165 174 165 215.5 125.5 c 128,-1,11
 257 86 257 86 325 86 c 0,12,13
 478 86 478 86 478 256 c 2,14,-1
 478 674 l 1,15,-1
 581 674 l 1,16,-1
 581 258 l 2,0,1
244 725 m 1,17,-1
 147 725 l 1,18,-1
 282 887 l 1,19,-1
 372 887 l 1,20,-1
 507 725 l 1,21,-1
 410 725 l 1,22,-1
 326 827 l 1,23,-1
 244 725 l 1,17,-1
EndSplineSet
EndChar

StartChar: Udieresis
Encoding: 220 220 157
Width: 652
GlyphClass: 2
Flags: W
LayerCount: 2
Fore
SplineSet
581 258 m 2,0,1
 581 127 581 127 513 59 c 128,-1,2
 445 -9 445 -9 325 -9 c 0,3,4
 207 -9 207 -9 139 57.5 c 128,-1,5
 71 124 71 124 71 250 c 2,6,-1
 71 674 l 1,7,-1
 174 674 l 1,8,-1
 174 251 l 2,9,10
 174 165 174 165 215.5 125.5 c 128,-1,11
 257 86 257 86 325 86 c 0,12,13
 478 86 478 86 478 256 c 2,14,-1
 478 674 l 1,15,-1
 581 674 l 1,16,-1
 581 258 l 2,0,1
499 807 m 128,-1,18
 499 781 499 781 481.5 764 c 128,-1,19
 464 747 464 747 438 747 c 128,-1,20
 412 747 412 747 395 764.5 c 128,-1,21
 378 782 378 782 378 807 c 128,-1,22
 378 832 378 832 395 849.5 c 128,-1,23
 412 867 412 867 438 867 c 128,-1,24
 464 867 464 867 481.5 850 c 128,-1,17
 499 833 499 833 499 807 c 128,-1,18
278 807 m 128,-1,26
 278 782 278 782 261 764.5 c 128,-1,27
 244 747 244 747 218 747 c 0,28,29
 191 747 191 747 174 764 c 128,-1,30
 157 781 157 781 157 807 c 128,-1,31
 157 833 157 833 174 850 c 128,-1,32
 191 867 191 867 218 867 c 0,33,34
 244 867 244 867 261 849.5 c 128,-1,25
 278 832 278 832 278 807 c 128,-1,26
EndSplineSet
EndChar

StartChar: Yacute
Encoding: 221 221 158
Width: 608
GlyphClass: 2
Flags: W
LayerCount: 2
Fore
SplineSet
354 0 m 1,0,-1
 251 0 l 1,1,-1
 251 251 l 1,2,-1
 23 674 l 1,3,-1
 141 674 l 1,4,-1
 189 575 l 2,5,6
 235 482 235 482 263 422 c 128,-1,7
 291 362 291 362 296 348 c 2,8,-1
 302 335 l 1,9,10
 311 365 311 365 418 575 c 2,11,-1
 467 674 l 1,12,-1
 585 674 l 1,13,-1
 354 251 l 1,14,-1
 354 0 l 1,0,-1
362 725 m 1,15,-1
 278 725 l 1,16,-1
 373 887 l 1,17,-1
 482 887 l 1,18,-1
 362 725 l 1,15,-1
EndSplineSet
EndChar

StartChar: Thorn
Encoding: 222 222 159
Width: 544
GlyphClass: 2
Flags: W
LayerCount: 2
Fore
SplineSet
267 120 m 2,0,-1
 176 120 l 1,1,-1
 176 0 l 1,2,-1
 73 0 l 1,3,-1
 73 674 l 1,4,-1
 176 674 l 1,5,-1
 176 554 l 1,6,-1
 261 554 l 2,7,8
 380 554 380 554 446.5 493.5 c 128,-1,9
 513 433 513 433 513 335 c 0,10,11
 513 238 513 238 446 179 c 128,-1,12
 379 120 379 120 267 120 c 2,0,-1
259 469 m 2,13,-1
 176 469 l 1,14,-1
 176 205 l 1,15,-1
 265 205 l 2,16,17
 337 205 337 205 373 240.5 c 128,-1,18
 409 276 409 276 409 333 c 0,19,20
 409 394 409 394 372.5 431.5 c 128,-1,21
 336 469 336 469 259 469 c 2,13,-1
EndSplineSet
EndChar

StartChar: germandbls
Encoding: 223 223 160
Width: 558
GlyphClass: 2
Flags: W
LayerCount: 2
Fore
SplineSet
531 143 m 0,0,1
 531 76 531 76 485 34 c 128,-1,2
 439 -8 439 -8 359 -8 c 0,3,4
 300 -8 300 -8 264 8 c 1,5,-1
 264 98 l 1,6,7
 307 74 307 74 354 74 c 0,8,9
 391 74 391 74 413.5 92 c 128,-1,10
 436 110 436 110 436 140 c 0,11,12
 436 164 436 164 421 184.5 c 128,-1,13
 406 205 406 205 384 221.5 c 128,-1,14
 362 238 362 238 340 255.5 c 128,-1,15
 318 273 318 273 303 297.5 c 128,-1,16
 288 322 288 322 288 352 c 0,17,18
 288 392 288 392 325 442 c 128,-1,19
 362 492 362 492 362 526 c 128,-1,20
 362 560 362 560 338 580.5 c 128,-1,21
 314 601 314 601 274 601 c 0,22,23
 168 601 168 601 168 490 c 2,24,-1
 168 0 l 1,25,-1
 71 0 l 1,26,-1
 71 486 l 2,27,28
 71 586 71 586 125 638 c 128,-1,29
 179 690 179 690 273 690 c 0,30,31
 357 690 357 690 409.5 643.5 c 128,-1,32
 462 597 462 597 462 531 c 0,33,34
 462 489 462 489 444 456.5 c 128,-1,35
 426 424 426 424 408.5 401.5 c 128,-1,36
 391 379 391 379 391 360 c 128,-1,37
 391 341 391 341 413 320 c 128,-1,38
 435 299 435 299 461 280.5 c 128,-1,39
 487 262 487 262 509 225.5 c 128,-1,40
 531 189 531 189 531 143 c 0,0,1
EndSplineSet
EndChar

StartChar: agrave
Encoding: 224 224 161
Width: 499
GlyphClass: 2
Flags: W
LayerCount: 2
Fore
SplineSet
233 73 m 0,0,1
 281 73 281 73 308.5 99.5 c 128,-1,2
 336 126 336 126 336 169 c 2,3,-1
 336 226 l 1,4,-1
 260 226 l 2,5,6
 204 226 204 226 175.5 204 c 128,-1,7
 147 182 147 182 147 148 c 0,8,9
 147 113 147 113 169 93 c 128,-1,10
 191 73 191 73 233 73 c 0,0,1
339 60 m 1,11,12
 300 -4 300 -4 202 -4 c 0,13,14
 130 -4 130 -4 86.5 37.5 c 128,-1,15
 43 79 43 79 43 143 c 0,16,17
 43 216 43 216 98 256.5 c 128,-1,18
 153 297 153 297 252 297 c 2,19,-1
 336 297 l 1,20,-1
 336 326 l 2,21,22
 336 378 336 378 311 404.5 c 128,-1,23
 286 431 286 431 228 431 c 0,24,25
 147 431 147 431 81 386 c 1,26,-1
 81 481 l 1,27,28
 140 515 140 515 237 515 c 0,29,30
 436 515 436 515 436 322 c 2,31,-1
 436 0 l 1,32,-1
 339 0 l 1,33,-1
 339 60 l 1,11,12
301 558 m 1,34,-1
 217 558 l 1,35,-1
 97 720 l 1,36,-1
 206 720 l 1,37,-1
 301 558 l 1,34,-1
EndSplineSet
EndChar

StartChar: aacute
Encoding: 225 225 162
Width: 499
GlyphClass: 2
Flags: W
LayerCount: 2
Fore
SplineSet
233 73 m 0,0,1
 281 73 281 73 308.5 99.5 c 128,-1,2
 336 126 336 126 336 169 c 2,3,-1
 336 226 l 1,4,-1
 260 226 l 2,5,6
 204 226 204 226 175.5 204 c 128,-1,7
 147 182 147 182 147 148 c 0,8,9
 147 113 147 113 169 93 c 128,-1,10
 191 73 191 73 233 73 c 0,0,1
339 60 m 1,11,12
 300 -4 300 -4 202 -4 c 0,13,14
 130 -4 130 -4 86.5 37.5 c 128,-1,15
 43 79 43 79 43 143 c 0,16,17
 43 216 43 216 98 256.5 c 128,-1,18
 153 297 153 297 252 297 c 2,19,-1
 336 297 l 1,20,-1
 336 326 l 2,21,22
 336 378 336 378 311 404.5 c 128,-1,23
 286 431 286 431 228 431 c 0,24,25
 147 431 147 431 81 386 c 1,26,-1
 81 481 l 1,27,28
 140 515 140 515 237 515 c 0,29,30
 436 515 436 515 436 322 c 2,31,-1
 436 0 l 1,32,-1
 339 0 l 1,33,-1
 339 60 l 1,11,12
299 558 m 1,34,-1
 215 558 l 1,35,-1
 310 720 l 1,36,-1
 419 720 l 1,37,-1
 299 558 l 1,34,-1
EndSplineSet
EndChar

StartChar: acircumflex
Encoding: 226 226 163
Width: 499
GlyphClass: 2
Flags: W
LayerCount: 2
Fore
SplineSet
233 73 m 0,0,1
 281 73 281 73 308.5 99.5 c 128,-1,2
 336 126 336 126 336 169 c 2,3,-1
 336 226 l 1,4,-1
 260 226 l 2,5,6
 204 226 204 226 175.5 204 c 128,-1,7
 147 182 147 182 147 148 c 0,8,9
 147 113 147 113 169 93 c 128,-1,10
 191 73 191 73 233 73 c 0,0,1
339 60 m 1,11,12
 300 -4 300 -4 202 -4 c 0,13,14
 130 -4 130 -4 86.5 37.5 c 128,-1,15
 43 79 43 79 43 143 c 0,16,17
 43 216 43 216 98 256.5 c 128,-1,18
 153 297 153 297 252 297 c 2,19,-1
 336 297 l 1,20,-1
 336 326 l 2,21,22
 336 378 336 378 311 404.5 c 128,-1,23
 286 431 286 431 228 431 c 0,24,25
 147 431 147 431 81 386 c 1,26,-1
 81 481 l 1,27,28
 140 515 140 515 237 515 c 0,29,30
 436 515 436 515 436 322 c 2,31,-1
 436 0 l 1,32,-1
 339 0 l 1,33,-1
 339 60 l 1,11,12
172 558 m 1,34,-1
 75 558 l 1,35,-1
 210 720 l 1,36,-1
 300 720 l 1,37,-1
 435 558 l 1,38,-1
 338 558 l 1,39,-1
 254 660 l 1,40,-1
 172 558 l 1,34,-1
EndSplineSet
EndChar

StartChar: atilde
Encoding: 227 227 164
Width: 499
GlyphClass: 2
Flags: W
LayerCount: 2
Fore
SplineSet
233 73 m 0,0,1
 281 73 281 73 308.5 99.5 c 128,-1,2
 336 126 336 126 336 169 c 2,3,-1
 336 226 l 1,4,-1
 260 226 l 2,5,6
 204 226 204 226 175.5 204 c 128,-1,7
 147 182 147 182 147 148 c 0,8,9
 147 113 147 113 169 93 c 128,-1,10
 191 73 191 73 233 73 c 0,0,1
339 60 m 1,11,12
 300 -4 300 -4 202 -4 c 0,13,14
 130 -4 130 -4 86.5 37.5 c 128,-1,15
 43 79 43 79 43 143 c 0,16,17
 43 216 43 216 98 256.5 c 128,-1,18
 153 297 153 297 252 297 c 2,19,-1
 336 297 l 1,20,-1
 336 326 l 2,21,22
 336 378 336 378 311 404.5 c 128,-1,23
 286 431 286 431 228 431 c 0,24,25
 147 431 147 431 81 386 c 1,26,-1
 81 481 l 1,27,28
 140 515 140 515 237 515 c 0,29,30
 436 515 436 515 436 322 c 2,31,-1
 436 0 l 1,32,-1
 339 0 l 1,33,-1
 339 60 l 1,11,12
194 626 m 0,34,35
 171 626 171 626 155.5 615 c 128,-1,36
 140 604 140 604 124 580 c 1,37,-1
 75 625 l 1,38,39
 89 656 89 656 117.5 677.5 c 128,-1,40
 146 699 146 699 180 699 c 0,41,42
 212 699 212 699 254 678.5 c 128,-1,43
 296 658 296 658 315 658 c 0,44,45
 352 658 352 658 373 701 c 1,46,-1
 429 659 l 1,47,48
 394 585 394 585 320 585 c 0,49,50
 291 585 291 585 250.5 605.5 c 128,-1,51
 210 626 210 626 194 626 c 0,34,35
EndSplineSet
EndChar

StartChar: adieresis
Encoding: 228 228 165
Width: 499
GlyphClass: 2
Flags: W
LayerCount: 2
Fore
SplineSet
233 73 m 0,0,1
 281 73 281 73 308.5 99.5 c 128,-1,2
 336 126 336 126 336 169 c 2,3,-1
 336 226 l 1,4,-1
 260 226 l 2,5,6
 204 226 204 226 175.5 204 c 128,-1,7
 147 182 147 182 147 148 c 0,8,9
 147 113 147 113 169 93 c 128,-1,10
 191 73 191 73 233 73 c 0,0,1
339 60 m 1,11,12
 300 -4 300 -4 202 -4 c 0,13,14
 130 -4 130 -4 86.5 37.5 c 128,-1,15
 43 79 43 79 43 143 c 0,16,17
 43 216 43 216 98 256.5 c 128,-1,18
 153 297 153 297 252 297 c 2,19,-1
 336 297 l 1,20,-1
 336 326 l 2,21,22
 336 378 336 378 311 404.5 c 128,-1,23
 286 431 286 431 228 431 c 0,24,25
 147 431 147 431 81 386 c 1,26,-1
 81 481 l 1,27,28
 140 515 140 515 237 515 c 0,29,30
 436 515 436 515 436 322 c 2,31,-1
 436 0 l 1,32,-1
 339 0 l 1,33,-1
 339 60 l 1,11,12
427 638 m 128,-1,35
 427 612 427 612 409.5 595 c 128,-1,36
 392 578 392 578 366 578 c 128,-1,37
 340 578 340 578 323 595 c 128,-1,38
 306 612 306 612 306 638 c 128,-1,39
 306 664 306 664 323 681 c 128,-1,40
 340 698 340 698 366 698 c 128,-1,41
 392 698 392 698 409.5 681 c 128,-1,34
 427 664 427 664 427 638 c 128,-1,35
206 638 m 128,-1,43
 206 612 206 612 189 595 c 128,-1,44
 172 578 172 578 146 578 c 0,45,46
 119 578 119 578 102 595 c 128,-1,47
 85 612 85 612 85 638 c 128,-1,48
 85 664 85 664 102 681 c 128,-1,49
 119 698 119 698 146 698 c 0,50,51
 172 698 172 698 189 681 c 128,-1,42
 206 664 206 664 206 638 c 128,-1,43
EndSplineSet
EndChar

StartChar: aring
Encoding: 229 229 166
Width: 499
GlyphClass: 2
Flags: W
LayerCount: 2
Fore
SplineSet
233 73 m 0,0,1
 281 73 281 73 308.5 99.5 c 128,-1,2
 336 126 336 126 336 169 c 2,3,-1
 336 226 l 1,4,-1
 260 226 l 2,5,6
 204 226 204 226 175.5 204 c 128,-1,7
 147 182 147 182 147 148 c 0,8,9
 147 113 147 113 169 93 c 128,-1,10
 191 73 191 73 233 73 c 0,0,1
339 60 m 1,11,12
 300 -4 300 -4 202 -4 c 0,13,14
 130 -4 130 -4 86.5 37.5 c 128,-1,15
 43 79 43 79 43 143 c 0,16,17
 43 216 43 216 98 256.5 c 128,-1,18
 153 297 153 297 252 297 c 2,19,-1
 336 297 l 1,20,-1
 336 326 l 2,21,22
 336 378 336 378 311 404.5 c 128,-1,23
 286 431 286 431 228 431 c 0,24,25
 147 431 147 431 81 386 c 1,26,-1
 81 481 l 1,27,28
 140 515 140 515 237 515 c 0,29,30
 436 515 436 515 436 322 c 2,31,-1
 436 0 l 1,32,-1
 339 0 l 1,33,-1
 339 60 l 1,11,12
372 662 m 0,34,35
 372 615 372 615 338 581.5 c 128,-1,36
 304 548 304 548 256 548 c 0,37,38
 209 548 209 548 175.5 581.5 c 128,-1,39
 142 615 142 615 142 662 c 0,40,41
 142 710 142 710 175.5 744 c 128,-1,42
 209 778 209 778 256 778 c 0,43,44
 304 778 304 778 338 744 c 128,-1,45
 372 710 372 710 372 662 c 0,34,35
203 664 m 128,-1,47
 203 642 203 642 218.5 625.5 c 128,-1,48
 234 609 234 609 256 609 c 0,49,50
 279 609 279 609 294.5 625.5 c 128,-1,51
 310 642 310 642 310 664 c 128,-1,52
 310 686 310 686 294.5 702 c 128,-1,53
 279 718 279 718 256 718 c 0,54,55
 234 718 234 718 218.5 702 c 128,-1,46
 203 686 203 686 203 664 c 128,-1,47
EndSplineSet
EndChar

StartChar: ae
Encoding: 230 230 167
Width: 816
GlyphClass: 2
Flags: W
LayerCount: 2
Fore
SplineSet
395 96 m 1,0,1
 376 52 376 52 330.5 23.5 c 128,-1,2
 285 -5 285 -5 216 -5 c 0,3,4
 139 -5 139 -5 93.5 35 c 128,-1,5
 48 75 48 75 48 143 c 0,6,7
 48 216 48 216 103.5 257 c 128,-1,8
 159 298 159 298 259 298 c 2,9,-1
 341 298 l 1,10,-1
 341 326 l 2,11,12
 341 378 341 378 316 404.5 c 128,-1,13
 291 431 291 431 233 431 c 0,14,15
 153 431 153 431 86 387 c 1,16,-1
 86 480 l 1,17,18
 144 515 144 515 238 515 c 0,19,20
 363 515 363 515 398 430 c 1,21,22
 454 513 454 513 568 513 c 0,23,24
 667 513 667 513 721.5 452 c 128,-1,25
 776 391 776 391 776 275 c 0,26,27
 776 247 776 247 770 213 c 1,28,-1
 439 213 l 1,29,30
 450 147 450 147 495.5 112 c 128,-1,31
 541 77 541 77 607 77 c 0,32,33
 687 77 687 77 741 115 c 1,34,-1
 741 27 l 1,35,36
 685 -5 685 -5 598 -5 c 0,37,38
 535 -5 535 -5 479.5 21.5 c 128,-1,39
 424 48 424 48 395 96 c 1,0,1
151 147 m 0,40,41
 151 113 151 113 173 93.5 c 128,-1,42
 195 74 195 74 238 74 c 0,43,44
 282 74 282 74 311.5 101.5 c 128,-1,45
 341 129 341 129 341 175 c 2,46,-1
 341 225 l 1,47,-1
 274 225 l 2,48,49
 151 225 151 225 151 147 c 0,40,41
569 432 m 0,50,51
 519 432 519 432 482.5 396 c 128,-1,52
 446 360 446 360 437 290 c 1,53,-1
 681 290 l 1,54,-1
 681 308 l 2,55,56
 680 367 680 367 650 399.5 c 128,-1,57
 620 432 620 432 569 432 c 0,50,51
EndSplineSet
EndChar

StartChar: ccedilla
Encoding: 231 231 168
Width: 471
GlyphClass: 2
Flags: W
LayerCount: 2
Fore
SplineSet
427 20 m 1,0,1
 378 -10 378 -10 302 -10 c 0,2,3
 183 -10 183 -10 112 65 c 128,-1,4
 41 140 41 140 41 252 c 0,5,6
 41 361 41 361 112.5 438.5 c 128,-1,7
 184 516 184 516 306 516 c 0,8,9
 372 516 372 516 427 488 c 1,10,-1
 427 398 l 1,11,12
 378 429 378 429 316 429 c 0,13,14
 237 429 237 429 189.5 379 c 128,-1,15
 142 329 142 329 142 251 c 0,16,17
 144 174 144 174 189 124.5 c 128,-1,18
 234 75 234 75 315 75 c 0,19,20
 375 75 375 75 427 108 c 1,21,-1
 427 20 l 1,0,1
348 -123 m 0,22,23
 348 -179 348 -179 307 -217.5 c 128,-1,24
 266 -256 266 -256 189 -257 c 1,25,-1
 189 -189 l 1,26,27
 271 -184 271 -184 271 -120 c 0,28,29
 271 -88 271 -88 246 -51 c 1,30,-1
 330 -51 l 1,31,32
 348 -76 348 -76 348 -123 c 0,22,23
EndSplineSet
EndChar

StartChar: egrave
Encoding: 232 232 169
Width: 525
GlyphClass: 2
Flags: W
LayerCount: 2
Fore
SplineSet
447 27 m 1,0,1
 391 -5 391 -5 299 -5 c 0,2,3
 181 -5 181 -5 111 66 c 128,-1,4
 41 137 41 137 41 252 c 0,5,6
 41 374 41 374 105 443.5 c 128,-1,7
 169 513 169 513 268 513 c 0,8,9
 365 513 365 513 422 452.5 c 128,-1,10
 479 392 479 392 479 278 c 0,11,12
 479 247 479 247 473 213 c 1,13,-1
 140 213 l 1,14,15
 150 147 150 147 196 112 c 128,-1,16
 242 77 242 77 312 77 c 0,17,18
 393 77 393 77 447 115 c 1,19,-1
 447 27 l 1,0,1
270 432 m 0,20,21
 220 432 220 432 184 395.5 c 128,-1,22
 148 359 148 359 139 290 c 1,23,-1
 384 290 l 1,24,-1
 384 308 l 2,25,26
 382 365 382 365 353 398.5 c 128,-1,27
 324 432 324 432 270 432 c 0,20,21
324 558 m 1,28,-1
 240 558 l 1,29,-1
 120 720 l 1,30,-1
 229 720 l 1,31,-1
 324 558 l 1,28,-1
EndSplineSet
EndChar

StartChar: eacute
Encoding: 233 233 170
Width: 525
GlyphClass: 2
Flags: W
LayerCount: 2
Fore
SplineSet
447 27 m 1,0,1
 391 -5 391 -5 299 -5 c 0,2,3
 181 -5 181 -5 111 66 c 128,-1,4
 41 137 41 137 41 252 c 0,5,6
 41 374 41 374 105 443.5 c 128,-1,7
 169 513 169 513 268 513 c 0,8,9
 365 513 365 513 422 452.5 c 128,-1,10
 479 392 479 392 479 278 c 0,11,12
 479 247 479 247 473 213 c 1,13,-1
 140 213 l 1,14,15
 150 147 150 147 196 112 c 128,-1,16
 242 77 242 77 312 77 c 0,17,18
 393 77 393 77 447 115 c 1,19,-1
 447 27 l 1,0,1
270 432 m 0,20,21
 220 432 220 432 184 395.5 c 128,-1,22
 148 359 148 359 139 290 c 1,23,-1
 384 290 l 1,24,-1
 384 308 l 2,25,26
 382 365 382 365 353 398.5 c 128,-1,27
 324 432 324 432 270 432 c 0,20,21
328 558 m 1,28,-1
 244 558 l 1,29,-1
 339 720 l 1,30,-1
 448 720 l 1,31,-1
 328 558 l 1,28,-1
EndSplineSet
EndChar

StartChar: ecircumflex
Encoding: 234 234 171
Width: 525
GlyphClass: 2
Flags: W
LayerCount: 2
Fore
SplineSet
447 27 m 1,0,1
 391 -5 391 -5 299 -5 c 0,2,3
 181 -5 181 -5 111 66 c 128,-1,4
 41 137 41 137 41 252 c 0,5,6
 41 374 41 374 105 443.5 c 128,-1,7
 169 513 169 513 268 513 c 0,8,9
 365 513 365 513 422 452.5 c 128,-1,10
 479 392 479 392 479 278 c 0,11,12
 479 247 479 247 473 213 c 1,13,-1
 140 213 l 1,14,15
 150 147 150 147 196 112 c 128,-1,16
 242 77 242 77 312 77 c 0,17,18
 393 77 393 77 447 115 c 1,19,-1
 447 27 l 1,0,1
270 432 m 0,20,21
 220 432 220 432 184 395.5 c 128,-1,22
 148 359 148 359 139 290 c 1,23,-1
 384 290 l 1,24,-1
 384 308 l 2,25,26
 382 365 382 365 353 398.5 c 128,-1,27
 324 432 324 432 270 432 c 0,20,21
195 558 m 1,28,-1
 98 558 l 1,29,-1
 233 720 l 1,30,-1
 323 720 l 1,31,-1
 458 558 l 1,32,-1
 361 558 l 1,33,-1
 277 660 l 1,34,-1
 195 558 l 1,28,-1
EndSplineSet
EndChar

StartChar: edieresis
Encoding: 235 235 172
Width: 525
GlyphClass: 2
Flags: W
LayerCount: 2
Fore
SplineSet
447 27 m 1,0,1
 391 -5 391 -5 299 -5 c 0,2,3
 181 -5 181 -5 111 66 c 128,-1,4
 41 137 41 137 41 252 c 0,5,6
 41 374 41 374 105 443.5 c 128,-1,7
 169 513 169 513 268 513 c 0,8,9
 365 513 365 513 422 452.5 c 128,-1,10
 479 392 479 392 479 278 c 0,11,12
 479 247 479 247 473 213 c 1,13,-1
 140 213 l 1,14,15
 150 147 150 147 196 112 c 128,-1,16
 242 77 242 77 312 77 c 0,17,18
 393 77 393 77 447 115 c 1,19,-1
 447 27 l 1,0,1
270 432 m 0,20,21
 220 432 220 432 184 395.5 c 128,-1,22
 148 359 148 359 139 290 c 1,23,-1
 384 290 l 1,24,-1
 384 308 l 2,25,26
 382 365 382 365 353 398.5 c 128,-1,27
 324 432 324 432 270 432 c 0,20,21
453 640 m 128,-1,29
 453 614 453 614 435.5 597 c 128,-1,30
 418 580 418 580 392 580 c 128,-1,31
 366 580 366 580 349 597 c 128,-1,32
 332 614 332 614 332 640 c 128,-1,33
 332 666 332 666 349 683 c 128,-1,34
 366 700 366 700 392 700 c 128,-1,35
 418 700 418 700 435.5 683 c 128,-1,28
 453 666 453 666 453 640 c 128,-1,29
232 640 m 128,-1,37
 232 614 232 614 215 597 c 128,-1,38
 198 580 198 580 172 580 c 0,39,40
 145 580 145 580 128 597 c 128,-1,41
 111 614 111 614 111 640 c 128,-1,42
 111 666 111 666 128 683 c 128,-1,43
 145 700 145 700 172 700 c 0,44,45
 198 700 198 700 215 683 c 128,-1,36
 232 666 232 666 232 640 c 128,-1,37
EndSplineSet
EndChar

StartChar: igrave
Encoding: 236 236 173
Width: 245
GlyphClass: 2
Flags: W
LayerCount: 2
Fore
SplineSet
172 0 m 1,0,-1
 73 0 l 1,1,-1
 73 507 l 1,2,-1
 172 507 l 1,3,-1
 172 0 l 1,0,-1
158 558 m 1,4,-1
 74 558 l 1,5,-1
 -46 720 l 1,6,-1
 63 720 l 1,7,-1
 158 558 l 1,4,-1
EndSplineSet
EndChar

StartChar: iacute
Encoding: 237 237 174
Width: 245
GlyphClass: 2
Flags: W
LayerCount: 2
Fore
SplineSet
172 0 m 1,0,-1
 73 0 l 1,1,-1
 73 507 l 1,2,-1
 172 507 l 1,3,-1
 172 0 l 1,0,-1
172 558 m 1,4,-1
 88 558 l 1,5,-1
 183 720 l 1,6,-1
 292 720 l 1,7,-1
 172 558 l 1,4,-1
EndSplineSet
EndChar

StartChar: icircumflex
Encoding: 238 238 175
Width: 245
GlyphClass: 2
Flags: W
LayerCount: 2
Fore
SplineSet
172 0 m 1,0,-1
 73 0 l 1,1,-1
 73 507 l 1,2,-1
 172 507 l 1,3,-1
 172 0 l 1,0,-1
41 558 m 1,4,-1
 -56 558 l 1,5,-1
 79 720 l 1,6,-1
 169 720 l 1,7,-1
 304 558 l 1,8,-1
 207 558 l 1,9,-1
 123 660 l 1,10,-1
 41 558 l 1,4,-1
EndSplineSet
EndChar

StartChar: idieresis
Encoding: 239 239 176
Width: 245
GlyphClass: 2
Flags: W
LayerCount: 2
Fore
SplineSet
172 0 m 1,0,-1
 73 0 l 1,1,-1
 73 507 l 1,2,-1
 172 507 l 1,3,-1
 172 0 l 1,0,-1
294 641 m 128,-1,5
 294 615 294 615 276.5 598 c 128,-1,6
 259 581 259 581 233 581 c 0,7,8
 208 581 208 581 190.5 598.5 c 128,-1,9
 173 616 173 616 173 641 c 128,-1,10
 173 666 173 666 190.5 683.5 c 128,-1,11
 208 701 208 701 233 701 c 0,12,13
 259 701 259 701 276.5 684 c 128,-1,4
 294 667 294 667 294 641 c 128,-1,5
73 641 m 128,-1,15
 73 616 73 616 55.5 598.5 c 128,-1,16
 38 581 38 581 13 581 c 0,17,18
 -14 581 -14 581 -31 598 c 128,-1,19
 -48 615 -48 615 -48 641 c 128,-1,20
 -48 667 -48 667 -31 684 c 128,-1,21
 -14 701 -14 701 13 701 c 0,22,23
 38 701 38 701 55.5 683.5 c 128,-1,14
 73 666 73 666 73 641 c 128,-1,15
EndSplineSet
EndChar

StartChar: eth
Encoding: 240 240 177
Width: 528
GlyphClass: 2
Flags: W
LayerCount: 2
Fore
SplineSet
483 275 m 0,0,1
 483 140 483 140 423 65.5 c 128,-1,2
 363 -9 363 -9 256 -9 c 0,3,4
 157 -9 157 -9 97 53 c 128,-1,5
 37 115 37 115 37 203 c 0,6,7
 37 296 37 296 94.5 351 c 128,-1,8
 152 406 152 406 236 406 c 0,9,10
 323 406 323 406 382 344 c 1,11,12
 365 443 365 443 301 529 c 1,13,-1
 160 458 l 1,14,-1
 160 525 l 1,15,-1
 260 575 l 1,16,17
 203 633 203 633 130 674 c 1,18,-1
 272 674 l 1,19,20
 309 649 309 649 341 616 c 1,21,-1
 461 676 l 1,22,-1
 461 609 l 1,23,-1
 381 569 l 1,24,25
 483 435 483 435 483 275 c 0,0,1
256 80 m 0,26,27
 309 80 309 80 345 120 c 128,-1,28
 381 160 381 160 386 250 c 1,29,30
 332 319 332 319 251 319 c 0,31,32
 201 319 201 319 170 287 c 128,-1,33
 139 255 139 255 139 198 c 0,34,35
 139 144 139 144 171.5 112 c 128,-1,36
 204 80 204 80 256 80 c 0,26,27
EndSplineSet
EndChar

StartChar: ntilde
Encoding: 241 241 178
Width: 551
GlyphClass: 2
Flags: W
LayerCount: 2
Fore
SplineSet
488 0 m 1,0,-1
 390 0 l 1,1,-1
 390 320 l 2,2,3
 390 373 390 373 363.5 401 c 128,-1,4
 337 429 337 429 293 429 c 0,5,6
 241 429 241 429 204 388.5 c 128,-1,7
 167 348 167 348 167 275 c 2,8,-1
 167 0 l 1,9,-1
 69 0 l 1,10,-1
 69 507 l 1,11,-1
 167 507 l 1,12,-1
 167 420 l 1,13,14
 212 514 212 514 325 514 c 0,15,16
 400 514 400 514 444 468 c 128,-1,17
 488 422 488 422 488 343 c 2,18,-1
 488 0 l 1,0,-1
225 626 m 0,19,20
 202 626 202 626 186.5 615 c 128,-1,21
 171 604 171 604 155 580 c 1,22,-1
 106 625 l 1,23,24
 120 656 120 656 148.5 677.5 c 128,-1,25
 177 699 177 699 211 699 c 0,26,27
 243 699 243 699 285 678.5 c 128,-1,28
 327 658 327 658 346 658 c 0,29,30
 383 658 383 658 404 701 c 1,31,-1
 460 659 l 1,32,33
 425 585 425 585 351 585 c 0,34,35
 322 585 322 585 281.5 605.5 c 128,-1,36
 241 626 241 626 225 626 c 0,19,20
EndSplineSet
EndChar

StartChar: ograve
Encoding: 242 242 179
Width: 564
GlyphClass: 2
Flags: W
LayerCount: 2
Fore
SplineSet
523 253 m 128,-1,1
 523 139 523 139 458.5 65 c 128,-1,2
 394 -9 394 -9 281 -9 c 0,3,4
 169 -9 169 -9 105 64 c 128,-1,5
 41 137 41 137 41 249 c 0,6,7
 41 363 41 363 107 438.5 c 128,-1,8
 173 514 173 514 281 514 c 0,9,10
 397 514 397 514 460 440.5 c 128,-1,0
 523 367 523 367 523 253 c 128,-1,1
143 252 m 0,11,12
 143 177 143 177 180 125.5 c 128,-1,13
 217 74 217 74 281 74 c 0,14,15
 349 74 349 74 384.5 124 c 128,-1,16
 420 174 420 174 420 251 c 0,17,18
 420 330 420 330 386 380.5 c 128,-1,19
 352 431 352 431 280 431 c 0,20,21
 215 431 215 431 179 379.5 c 128,-1,22
 143 328 143 328 143 252 c 0,11,12
329 558 m 1,23,-1
 245 558 l 1,24,-1
 125 720 l 1,25,-1
 234 720 l 1,26,-1
 329 558 l 1,23,-1
EndSplineSet
EndChar

StartChar: oacute
Encoding: 243 243 180
Width: 564
GlyphClass: 2
Flags: W
LayerCount: 2
Fore
SplineSet
523 253 m 128,-1,1
 523 139 523 139 458.5 65 c 128,-1,2
 394 -9 394 -9 281 -9 c 0,3,4
 169 -9 169 -9 105 64 c 128,-1,5
 41 137 41 137 41 249 c 0,6,7
 41 363 41 363 107 438.5 c 128,-1,8
 173 514 173 514 281 514 c 0,9,10
 397 514 397 514 460 440.5 c 128,-1,0
 523 367 523 367 523 253 c 128,-1,1
143 252 m 0,11,12
 143 177 143 177 180 125.5 c 128,-1,13
 217 74 217 74 281 74 c 0,14,15
 349 74 349 74 384.5 124 c 128,-1,16
 420 174 420 174 420 251 c 0,17,18
 420 330 420 330 386 380.5 c 128,-1,19
 352 431 352 431 280 431 c 0,20,21
 215 431 215 431 179 379.5 c 128,-1,22
 143 328 143 328 143 252 c 0,11,12
336 558 m 1,23,-1
 252 558 l 1,24,-1
 347 720 l 1,25,-1
 456 720 l 1,26,-1
 336 558 l 1,23,-1
EndSplineSet
EndChar

StartChar: ocircumflex
Encoding: 244 244 181
Width: 564
GlyphClass: 2
Flags: W
LayerCount: 2
Fore
SplineSet
523 253 m 128,-1,1
 523 139 523 139 458.5 65 c 128,-1,2
 394 -9 394 -9 281 -9 c 0,3,4
 169 -9 169 -9 105 64 c 128,-1,5
 41 137 41 137 41 249 c 0,6,7
 41 363 41 363 107 438.5 c 128,-1,8
 173 514 173 514 281 514 c 0,9,10
 397 514 397 514 460 440.5 c 128,-1,0
 523 367 523 367 523 253 c 128,-1,1
143 252 m 0,11,12
 143 177 143 177 180 125.5 c 128,-1,13
 217 74 217 74 281 74 c 0,14,15
 349 74 349 74 384.5 124 c 128,-1,16
 420 174 420 174 420 251 c 0,17,18
 420 330 420 330 386 380.5 c 128,-1,19
 352 431 352 431 280 431 c 0,20,21
 215 431 215 431 179 379.5 c 128,-1,22
 143 328 143 328 143 252 c 0,11,12
202 557 m 1,23,-1
 105 557 l 1,24,-1
 240 719 l 1,25,-1
 330 719 l 1,26,-1
 465 557 l 1,27,-1
 368 557 l 1,28,-1
 284 659 l 1,29,-1
 202 557 l 1,23,-1
EndSplineSet
EndChar

StartChar: otilde
Encoding: 245 245 182
Width: 564
GlyphClass: 2
Flags: W
LayerCount: 2
Fore
SplineSet
523 253 m 128,-1,1
 523 139 523 139 458.5 65 c 128,-1,2
 394 -9 394 -9 281 -9 c 0,3,4
 169 -9 169 -9 105 64 c 128,-1,5
 41 137 41 137 41 249 c 0,6,7
 41 363 41 363 107 438.5 c 128,-1,8
 173 514 173 514 281 514 c 0,9,10
 397 514 397 514 460 440.5 c 128,-1,0
 523 367 523 367 523 253 c 128,-1,1
143 252 m 0,11,12
 143 177 143 177 180 125.5 c 128,-1,13
 217 74 217 74 281 74 c 0,14,15
 349 74 349 74 384.5 124 c 128,-1,16
 420 174 420 174 420 251 c 0,17,18
 420 330 420 330 386 380.5 c 128,-1,19
 352 431 352 431 280 431 c 0,20,21
 215 431 215 431 179 379.5 c 128,-1,22
 143 328 143 328 143 252 c 0,11,12
227 626 m 0,23,24
 204 626 204 626 188.5 615 c 128,-1,25
 173 604 173 604 157 580 c 1,26,-1
 108 625 l 1,27,28
 122 656 122 656 150.5 677.5 c 128,-1,29
 179 699 179 699 213 699 c 0,30,31
 245 699 245 699 287 678.5 c 128,-1,32
 329 658 329 658 348 658 c 0,33,34
 385 658 385 658 406 701 c 1,35,-1
 462 659 l 1,36,37
 427 585 427 585 353 585 c 0,38,39
 324 585 324 585 283.5 605.5 c 128,-1,40
 243 626 243 626 227 626 c 0,23,24
EndSplineSet
EndChar

StartChar: odieresis
Encoding: 246 246 183
Width: 564
GlyphClass: 2
Flags: W
LayerCount: 2
Fore
SplineSet
523 253 m 128,-1,1
 523 139 523 139 458.5 65 c 128,-1,2
 394 -9 394 -9 281 -9 c 0,3,4
 169 -9 169 -9 105 64 c 128,-1,5
 41 137 41 137 41 249 c 0,6,7
 41 363 41 363 107 438.5 c 128,-1,8
 173 514 173 514 281 514 c 0,9,10
 397 514 397 514 460 440.5 c 128,-1,0
 523 367 523 367 523 253 c 128,-1,1
143 252 m 0,11,12
 143 177 143 177 180 125.5 c 128,-1,13
 217 74 217 74 281 74 c 0,14,15
 349 74 349 74 384.5 124 c 128,-1,16
 420 174 420 174 420 251 c 0,17,18
 420 330 420 330 386 380.5 c 128,-1,19
 352 431 352 431 280 431 c 0,20,21
 215 431 215 431 179 379.5 c 128,-1,22
 143 328 143 328 143 252 c 0,11,12
462 639 m 128,-1,24
 462 613 462 613 444.5 596 c 128,-1,25
 427 579 427 579 401 579 c 0,26,27
 376 579 376 579 358.5 596.5 c 128,-1,28
 341 614 341 614 341 639 c 128,-1,29
 341 664 341 664 358.5 681.5 c 128,-1,30
 376 699 376 699 401 699 c 0,31,32
 427 699 427 699 444.5 682 c 128,-1,23
 462 665 462 665 462 639 c 128,-1,24
241 639 m 128,-1,34
 241 614 241 614 223.5 596.5 c 128,-1,35
 206 579 206 579 181 579 c 0,36,37
 154 579 154 579 137 596 c 128,-1,38
 120 613 120 613 120 639 c 128,-1,39
 120 665 120 665 137 682 c 128,-1,40
 154 699 154 699 181 699 c 0,41,42
 206 699 206 699 223.5 681.5 c 128,-1,33
 241 664 241 664 241 639 c 128,-1,34
EndSplineSet
EndChar

StartChar: divide
Encoding: 247 247 184
Width: 564
GlyphClass: 2
Flags: W
LayerCount: 2
Fore
SplineSet
510 296 m 1,0,-1
 53 296 l 1,1,-1
 53 384 l 1,2,-1
 510 384 l 1,3,-1
 510 296 l 1,0,-1
339 162 m 128,-1,5
 339 138 339 138 321.5 120.5 c 128,-1,6
 304 103 304 103 280 103 c 128,-1,7
 256 103 256 103 238.5 120.5 c 128,-1,8
 221 138 221 138 221 162 c 128,-1,9
 221 186 221 186 238.5 204 c 128,-1,10
 256 222 256 222 280 222 c 128,-1,11
 304 222 304 222 321.5 204 c 128,-1,4
 339 186 339 186 339 162 c 128,-1,5
339 518 m 128,-1,13
 339 494 339 494 321.5 476 c 128,-1,14
 304 458 304 458 280 458 c 128,-1,15
 256 458 256 458 238.5 476 c 128,-1,16
 221 494 221 494 221 518 c 128,-1,17
 221 542 221 542 238.5 559.5 c 128,-1,18
 256 577 256 577 280 577 c 128,-1,19
 304 577 304 577 321.5 559.5 c 128,-1,12
 339 542 339 542 339 518 c 128,-1,13
EndSplineSet
EndChar

StartChar: oslash
Encoding: 248 248 185
Width: 563
GlyphClass: 2
Flags: W
LayerCount: 2
Fore
SplineSet
533 253 m 0,0,1
 533 139 533 139 468 65 c 128,-1,2
 403 -9 403 -9 290 -9 c 0,3,4
 219 -9 219 -9 166 22 c 1,5,-1
 143 -9 l 1,6,-1
 50 -9 l 1,7,-1
 109 70 l 1,8,9
 50 141 50 141 50 249 c 0,10,11
 50 363 50 363 116 438.5 c 128,-1,12
 182 514 182 514 290 514 c 0,13,14
 363 514 363 514 416 483 c 1,15,-1
 439 514 l 1,16,-1
 533 514 l 1,17,-1
 474 435 l 1,18,19
 533 364 533 364 533 253 c 0,0,1
143 252 m 0,20,21
 143 193 143 193 166 147 c 1,22,-1
 368 419 l 1,23,24
 336 440 336 440 290 440 c 0,25,26
 220 440 220 440 181.5 386 c 128,-1,27
 143 332 143 332 143 252 c 0,20,21
291 65 m 0,28,29
 363 65 363 65 401 117.5 c 128,-1,30
 439 170 439 170 439 251 c 0,31,32
 439 317 439 317 418 360 c 1,33,-1
 215 88 l 1,34,35
 247 65 247 65 291 65 c 0,28,29
EndSplineSet
EndChar

StartChar: ugrave
Encoding: 249 249 186
Width: 551
GlyphClass: 2
Flags: W
LayerCount: 2
Fore
SplineSet
482 0 m 1,0,-1
 384 0 l 1,1,-1
 384 87 l 1,2,3
 344 -6 344 -6 226 -6 c 0,4,5
 151 -6 151 -6 107 38.5 c 128,-1,6
 63 83 63 83 63 161 c 2,7,-1
 63 507 l 1,8,-1
 162 507 l 1,9,-1
 162 185 l 2,10,11
 162 133 162 133 187.5 105.5 c 128,-1,12
 213 78 213 78 258 78 c 0,13,14
 315 78 315 78 349.5 118 c 128,-1,15
 384 158 384 158 384 231 c 2,16,-1
 384 507 l 1,17,-1
 482 507 l 1,18,-1
 482 0 l 1,0,-1
318 557 m 1,19,-1
 234 557 l 1,20,-1
 114 719 l 1,21,-1
 223 719 l 1,22,-1
 318 557 l 1,19,-1
EndSplineSet
EndChar

StartChar: uacute
Encoding: 250 250 187
Width: 551
GlyphClass: 2
Flags: W
LayerCount: 2
Fore
SplineSet
482 0 m 1,0,-1
 384 0 l 1,1,-1
 384 87 l 1,2,3
 344 -6 344 -6 226 -6 c 0,4,5
 151 -6 151 -6 107 38.5 c 128,-1,6
 63 83 63 83 63 161 c 2,7,-1
 63 507 l 1,8,-1
 162 507 l 1,9,-1
 162 185 l 2,10,11
 162 133 162 133 187.5 105.5 c 128,-1,12
 213 78 213 78 258 78 c 0,13,14
 315 78 315 78 349.5 118 c 128,-1,15
 384 158 384 158 384 231 c 2,16,-1
 384 507 l 1,17,-1
 482 507 l 1,18,-1
 482 0 l 1,0,-1
324 558 m 1,19,-1
 240 558 l 1,20,-1
 335 720 l 1,21,-1
 444 720 l 1,22,-1
 324 558 l 1,19,-1
EndSplineSet
EndChar

StartChar: ucircumflex
Encoding: 251 251 188
Width: 551
GlyphClass: 2
Flags: W
LayerCount: 2
Fore
SplineSet
482 0 m 1,0,-1
 384 0 l 1,1,-1
 384 87 l 1,2,3
 344 -6 344 -6 226 -6 c 0,4,5
 151 -6 151 -6 107 38.5 c 128,-1,6
 63 83 63 83 63 161 c 2,7,-1
 63 507 l 1,8,-1
 162 507 l 1,9,-1
 162 185 l 2,10,11
 162 133 162 133 187.5 105.5 c 128,-1,12
 213 78 213 78 258 78 c 0,13,14
 315 78 315 78 349.5 118 c 128,-1,15
 384 158 384 158 384 231 c 2,16,-1
 384 507 l 1,17,-1
 482 507 l 1,18,-1
 482 0 l 1,0,-1
192 558 m 1,19,-1
 95 558 l 1,20,-1
 230 720 l 1,21,-1
 320 720 l 1,22,-1
 455 558 l 1,23,-1
 358 558 l 1,24,-1
 274 660 l 1,25,-1
 192 558 l 1,19,-1
EndSplineSet
EndChar

StartChar: udieresis
Encoding: 252 252 189
Width: 551
GlyphClass: 2
Flags: W
LayerCount: 2
Fore
SplineSet
482 0 m 1,0,-1
 384 0 l 1,1,-1
 384 87 l 1,2,3
 344 -6 344 -6 226 -6 c 0,4,5
 151 -6 151 -6 107 38.5 c 128,-1,6
 63 83 63 83 63 161 c 2,7,-1
 63 507 l 1,8,-1
 162 507 l 1,9,-1
 162 185 l 2,10,11
 162 133 162 133 187.5 105.5 c 128,-1,12
 213 78 213 78 258 78 c 0,13,14
 315 78 315 78 349.5 118 c 128,-1,15
 384 158 384 158 384 231 c 2,16,-1
 384 507 l 1,17,-1
 482 507 l 1,18,-1
 482 0 l 1,0,-1
446 639 m 128,-1,20
 446 613 446 613 428.5 596 c 128,-1,21
 411 579 411 579 385 579 c 0,22,23
 360 579 360 579 342.5 596.5 c 128,-1,24
 325 614 325 614 325 639 c 128,-1,25
 325 664 325 664 342.5 681.5 c 128,-1,26
 360 699 360 699 385 699 c 0,27,28
 411 699 411 699 428.5 682 c 128,-1,19
 446 665 446 665 446 639 c 128,-1,20
225 639 m 128,-1,30
 225 614 225 614 207.5 596.5 c 128,-1,31
 190 579 190 579 165 579 c 0,32,33
 138 579 138 579 121 596 c 128,-1,34
 104 613 104 613 104 639 c 128,-1,35
 104 665 104 665 121 682 c 128,-1,36
 138 699 138 699 165 699 c 0,37,38
 190 699 190 699 207.5 681.5 c 128,-1,29
 225 664 225 664 225 639 c 128,-1,30
EndSplineSet
EndChar

StartChar: yacute
Encoding: 253 253 190
Width: 504
GlyphClass: 2
Flags: W
LayerCount: 2
Fore
SplineSet
308 14 m 2,0,1
 235 -181 235 -181 85 -181 c 0,2,3
 58 -181 58 -181 39 -176 c 1,4,-1
 39 -92 l 1,5,6
 55 -96 55 -96 73 -96 c 0,7,8
 170 -96 170 -96 209 11 c 1,9,-1
 7 507 l 1,10,-1
 116 507 l 1,11,-1
 179 342 l 1,12,-1
 258 128 l 1,13,14
 267 158 267 158 330 342 c 2,15,-1
 387 507 l 1,16,-1
 491 507 l 1,17,-1
 308 14 l 2,0,1
307 558 m 1,18,-1
 223 558 l 1,19,-1
 318 720 l 1,20,-1
 427 720 l 1,21,-1
 307 558 l 1,18,-1
EndSplineSet
EndChar

StartChar: thorn
Encoding: 254 254 191
Width: 580
GlyphClass: 2
Flags: W
LayerCount: 2
Fore
SplineSet
167 -194 m 1,0,-1
 69 -194 l 1,1,-1
 69 707 l 1,2,-1
 167 707 l 1,3,-1
 167 429 l 1,4,5
 219 514 219 514 323 514 c 0,6,7
 423 514 423 514 481 441.5 c 128,-1,8
 539 369 539 369 539 257 c 0,9,10
 539 142 539 142 479.5 67.5 c 128,-1,11
 420 -7 420 -7 321 -7 c 0,12,13
 220 -7 220 -7 167 77 c 1,14,-1
 167 -194 l 1,0,-1
167 255 m 0,15,16
 167 167 167 167 208.5 123 c 128,-1,17
 250 79 250 79 303 79 c 0,18,19
 362 79 362 79 400 125.5 c 128,-1,20
 438 172 438 172 438 256 c 0,21,22
 438 335 438 335 401 381.5 c 128,-1,23
 364 428 364 428 307 428 c 128,-1,24
 250 428 250 428 208.5 386.5 c 128,-1,25
 167 345 167 345 167 255 c 0,15,16
EndSplineSet
EndChar

StartChar: ydieresis
Encoding: 255 255 192
Width: 504
GlyphClass: 2
Flags: W
LayerCount: 2
Fore
SplineSet
308 14 m 2,0,1
 235 -181 235 -181 85 -181 c 0,2,3
 58 -181 58 -181 39 -176 c 1,4,-1
 39 -92 l 1,5,6
 55 -96 55 -96 73 -96 c 0,7,8
 170 -96 170 -96 209 11 c 1,9,-1
 7 507 l 1,10,-1
 116 507 l 1,11,-1
 179 342 l 1,12,-1
 258 128 l 1,13,14
 267 158 267 158 330 342 c 2,15,-1
 387 507 l 1,16,-1
 491 507 l 1,17,-1
 308 14 l 2,0,1
432 639 m 128,-1,19
 432 613 432 613 414.5 596 c 128,-1,20
 397 579 397 579 371 579 c 0,21,22
 346 579 346 579 328.5 596.5 c 128,-1,23
 311 614 311 614 311 639 c 128,-1,24
 311 664 311 664 328.5 681.5 c 128,-1,25
 346 699 346 699 371 699 c 0,26,27
 397 699 397 699 414.5 682 c 128,-1,18
 432 665 432 665 432 639 c 128,-1,19
211 639 m 128,-1,29
 211 614 211 614 193.5 596.5 c 128,-1,30
 176 579 176 579 151 579 c 0,31,32
 124 579 124 579 107 596 c 128,-1,33
 90 613 90 613 90 639 c 128,-1,34
 90 665 90 665 107 682 c 128,-1,35
 124 699 124 699 151 699 c 0,36,37
 176 699 176 699 193.5 681.5 c 128,-1,28
 211 664 211 664 211 639 c 128,-1,29
EndSplineSet
EndChar

StartChar: Amacron
Encoding: 256 256 193
Width: 660
GlyphClass: 2
Flags: W
LayerCount: 2
Fore
SplineSet
233 285 m 2,0,-1
 222 251 l 1,1,-1
 438 251 l 1,2,-1
 427 285 l 2,3,4
 389 403 389 403 365 480.5 c 128,-1,5
 341 558 341 558 336 577 c 2,6,-1
 331 596 l 1,7,8
 320 549 320 549 233 285 c 2,0,-1
140 0 m 1,9,-1
 31 0 l 1,10,-1
 264 674 l 1,11,-1
 399 674 l 1,12,-1
 629 0 l 1,13,-1
 519 0 l 1,14,-1
 466 165 l 1,15,-1
 194 165 l 1,16,-1
 140 0 l 1,9,-1
486 773 m 1,17,-1
 182 773 l 1,18,-1
 182 841 l 1,19,-1
 486 841 l 1,20,-1
 486 773 l 1,17,-1
EndSplineSet
EndChar

StartChar: amacron
Encoding: 257 257 194
Width: 499
GlyphClass: 2
Flags: W
LayerCount: 2
Fore
SplineSet
233 73 m 0,0,1
 281 73 281 73 308.5 99.5 c 128,-1,2
 336 126 336 126 336 169 c 2,3,-1
 336 226 l 1,4,-1
 260 226 l 2,5,6
 204 226 204 226 175.5 204 c 128,-1,7
 147 182 147 182 147 148 c 0,8,9
 147 113 147 113 169 93 c 128,-1,10
 191 73 191 73 233 73 c 0,0,1
339 60 m 1,11,12
 300 -4 300 -4 202 -4 c 0,13,14
 130 -4 130 -4 86.5 37.5 c 128,-1,15
 43 79 43 79 43 143 c 0,16,17
 43 216 43 216 98 256.5 c 128,-1,18
 153 297 153 297 252 297 c 2,19,-1
 336 297 l 1,20,-1
 336 326 l 2,21,22
 336 378 336 378 311 404.5 c 128,-1,23
 286 431 286 431 228 431 c 0,24,25
 147 431 147 431 81 386 c 1,26,-1
 81 481 l 1,27,28
 140 515 140 515 237 515 c 0,29,30
 436 515 436 515 436 322 c 2,31,-1
 436 0 l 1,32,-1
 339 0 l 1,33,-1
 339 60 l 1,11,12
403 605 m 1,34,-1
 99 605 l 1,35,-1
 99 673 l 1,36,-1
 403 673 l 1,37,-1
 403 605 l 1,34,-1
EndSplineSet
EndChar

StartChar: Abreve
Encoding: 258 258 195
Width: 660
GlyphClass: 2
Flags: W
LayerCount: 2
Fore
SplineSet
233 285 m 2,0,-1
 222 251 l 1,1,-1
 438 251 l 1,2,-1
 427 285 l 2,3,4
 389 403 389 403 365 480.5 c 128,-1,5
 341 558 341 558 336 577 c 2,6,-1
 331 596 l 1,7,8
 320 549 320 549 233 285 c 2,0,-1
140 0 m 1,9,-1
 31 0 l 1,10,-1
 264 674 l 1,11,-1
 399 674 l 1,12,-1
 629 0 l 1,13,-1
 519 0 l 1,14,-1
 466 165 l 1,15,-1
 194 165 l 1,16,-1
 140 0 l 1,9,-1
504 887 m 1,17,18
 504 808 504 808 459 765 c 128,-1,19
 414 722 414 722 330 722 c 128,-1,20
 246 722 246 722 201 765 c 128,-1,21
 156 808 156 808 156 887 c 1,22,-1
 234 887 l 1,23,24
 234 843 234 843 258 816 c 128,-1,25
 282 789 282 789 330 789 c 128,-1,26
 378 789 378 789 402 816 c 128,-1,27
 426 843 426 843 426 887 c 1,28,-1
 504 887 l 1,17,18
EndSplineSet
EndChar

StartChar: abreve
Encoding: 259 259 196
Width: 499
GlyphClass: 2
Flags: W
LayerCount: 2
Fore
SplineSet
233 73 m 0,0,1
 281 73 281 73 308.5 99.5 c 128,-1,2
 336 126 336 126 336 169 c 2,3,-1
 336 226 l 1,4,-1
 260 226 l 2,5,6
 204 226 204 226 175.5 204 c 128,-1,7
 147 182 147 182 147 148 c 0,8,9
 147 113 147 113 169 93 c 128,-1,10
 191 73 191 73 233 73 c 0,0,1
339 60 m 1,11,12
 300 -4 300 -4 202 -4 c 0,13,14
 130 -4 130 -4 86.5 37.5 c 128,-1,15
 43 79 43 79 43 143 c 0,16,17
 43 216 43 216 98 256.5 c 128,-1,18
 153 297 153 297 252 297 c 2,19,-1
 336 297 l 1,20,-1
 336 326 l 2,21,22
 336 378 336 378 311 404.5 c 128,-1,23
 286 431 286 431 228 431 c 0,24,25
 147 431 147 431 81 386 c 1,26,-1
 81 481 l 1,27,28
 140 515 140 515 237 515 c 0,29,30
 436 515 436 515 436 322 c 2,31,-1
 436 0 l 1,32,-1
 339 0 l 1,33,-1
 339 60 l 1,11,12
425 719 m 1,34,35
 425 640 425 640 380 597 c 128,-1,36
 335 554 335 554 251 554 c 128,-1,37
 167 554 167 554 122 597 c 128,-1,38
 77 640 77 640 77 719 c 1,39,-1
 155 719 l 1,40,41
 155 675 155 675 179 648 c 128,-1,42
 203 621 203 621 251 621 c 128,-1,43
 299 621 299 621 323 648 c 128,-1,44
 347 675 347 675 347 719 c 1,45,-1
 425 719 l 1,34,35
EndSplineSet
EndChar

StartChar: Aogonek
Encoding: 260 260 197
Width: 656
GlyphClass: 2
Flags: W
LayerCount: 2
Fore
SplineSet
230 285 m 2,0,-1
 219 251 l 1,1,-1
 436 251 l 1,2,-1
 425 285 l 1,3,-1
 328 596 l 1,4,5
 318 549 318 549 230 285 c 2,0,-1
645 -226 m 1,6,7
 609 -247 609 -247 557 -247 c 0,8,9
 495 -247 495 -247 462.5 -215.5 c 128,-1,10
 430 -184 430 -184 430 -135 c 0,11,12
 430 -54 430 -54 514 8 c 1,13,-1
 464 165 l 1,14,-1
 191 165 l 1,15,-1
 138 0 l 1,16,-1
 29 0 l 1,17,-1
 261 674 l 1,18,-1
 397 674 l 1,19,-1
 627 0 l 1,20,21
 513 -60 513 -60 513 -127 c 0,22,23
 513 -178 513 -178 571 -178 c 0,24,25
 610 -178 610 -178 645 -154 c 1,26,-1
 645 -226 l 1,6,7
EndSplineSet
EndChar

StartChar: aogonek
Encoding: 261 261 198
Width: 497
GlyphClass: 2
Flags: W
LayerCount: 2
Fore
SplineSet
233 74 m 0,0,1
 279 74 279 74 307.5 100.5 c 128,-1,2
 336 127 336 127 336 165 c 2,3,-1
 336 225 l 1,4,-1
 269 225 l 2,5,6
 146 225 146 225 146 147 c 0,7,8
 146 113 146 113 168 93.5 c 128,-1,9
 190 74 190 74 233 74 c 0,0,1
454 -226 m 1,10,11
 418 -247 418 -247 366 -247 c 0,12,13
 304 -247 304 -247 271.5 -215.5 c 128,-1,14
 239 -184 239 -184 239 -135 c 0,15,16
 239 -48 239 -48 339 15 c 1,17,-1
 339 63 l 1,18,19
 292 -4 292 -4 202 -4 c 0,20,21
 130 -4 130 -4 86.5 36.5 c 128,-1,22
 43 77 43 77 43 143 c 0,23,24
 43 216 43 216 98.5 257 c 128,-1,25
 154 298 154 298 254 298 c 2,26,-1
 336 298 l 1,27,-1
 336 326 l 2,28,29
 336 378 336 378 311 404.5 c 128,-1,30
 286 431 286 431 228 431 c 0,31,32
 148 431 148 431 81 387 c 1,33,-1
 81 480 l 1,34,35
 139 515 139 515 237 515 c 0,36,37
 436 515 436 515 436 322 c 2,38,-1
 436 0 l 1,39,40
 322 -61 322 -61 322 -127 c 0,41,42
 322 -178 322 -178 380 -178 c 0,43,44
 419 -178 419 -178 454 -154 c 1,45,-1
 454 -226 l 1,10,11
EndSplineSet
EndChar

StartChar: Cacute
Encoding: 262 262 199
Width: 605
GlyphClass: 2
Flags: W
LayerCount: 2
Fore
SplineSet
561 33 m 1,0,1
 499 -8 499 -8 389 -8 c 0,2,3
 238 -8 238 -8 142 86 c 128,-1,4
 46 180 46 180 46 338 c 0,5,6
 46 491 46 491 142.5 587 c 128,-1,7
 239 683 239 683 387 683 c 0,8,9
 495 683 495 683 560 646 c 1,10,-1
 560 545 l 1,11,12
 516 569 516 569 480.5 578.5 c 128,-1,13
 445 588 445 588 390 588 c 0,14,15
 289 588 289 588 221.5 519.5 c 128,-1,16
 154 451 154 451 154 338 c 0,17,18
 154 223 154 223 221 155 c 128,-1,19
 288 87 288 87 398 87 c 0,20,21
 495 87 495 87 561 137 c 1,22,-1
 561 33 l 1,0,1
407 725 m 1,23,-1
 323 725 l 1,24,-1
 418 887 l 1,25,-1
 527 887 l 1,26,-1
 407 725 l 1,23,-1
EndSplineSet
EndChar

StartChar: cacute
Encoding: 263 263 200
Width: 471
GlyphClass: 2
Flags: W
LayerCount: 2
Fore
SplineSet
427 20 m 1,0,1
 378 -10 378 -10 302 -10 c 0,2,3
 183 -10 183 -10 112 65 c 128,-1,4
 41 140 41 140 41 252 c 0,5,6
 41 361 41 361 112.5 438.5 c 128,-1,7
 184 516 184 516 306 516 c 0,8,9
 372 516 372 516 427 488 c 1,10,-1
 427 398 l 1,11,12
 378 429 378 429 316 429 c 0,13,14
 237 429 237 429 189.5 379 c 128,-1,15
 142 329 142 329 142 251 c 0,16,17
 144 174 144 174 189 124.5 c 128,-1,18
 234 75 234 75 315 75 c 0,19,20
 375 75 375 75 427 108 c 1,21,-1
 427 20 l 1,0,1
337 557 m 1,22,-1
 253 557 l 1,23,-1
 348 719 l 1,24,-1
 457 719 l 1,25,-1
 337 557 l 1,22,-1
EndSplineSet
EndChar

StartChar: Ccaron
Encoding: 268 268 201
Width: 605
GlyphClass: 2
Flags: W
LayerCount: 2
Fore
SplineSet
561 33 m 1,0,1
 499 -8 499 -8 389 -8 c 0,2,3
 238 -8 238 -8 142 86 c 128,-1,4
 46 180 46 180 46 338 c 0,5,6
 46 491 46 491 142.5 587 c 128,-1,7
 239 683 239 683 387 683 c 0,8,9
 495 683 495 683 560 646 c 1,10,-1
 560 545 l 1,11,12
 516 569 516 569 480.5 578.5 c 128,-1,13
 445 588 445 588 390 588 c 0,14,15
 289 588 289 588 221.5 519.5 c 128,-1,16
 154 451 154 451 154 338 c 0,17,18
 154 223 154 223 221 155 c 128,-1,19
 288 87 288 87 398 87 c 0,20,21
 495 87 495 87 561 137 c 1,22,-1
 561 33 l 1,0,1
418 725 m 1,23,-1
 328 725 l 1,24,-1
 193 887 l 1,25,-1
 290 887 l 1,26,-1
 373 785 l 1,27,-1
 456 887 l 1,28,-1
 553 887 l 1,29,-1
 418 725 l 1,23,-1
EndSplineSet
EndChar

StartChar: ccaron
Encoding: 269 269 202
Width: 471
GlyphClass: 2
Flags: W
LayerCount: 2
Fore
SplineSet
427 20 m 1,0,1
 378 -10 378 -10 302 -10 c 0,2,3
 183 -10 183 -10 112 65 c 128,-1,4
 41 140 41 140 41 252 c 0,5,6
 41 361 41 361 112.5 438.5 c 128,-1,7
 184 516 184 516 306 516 c 0,8,9
 372 516 372 516 427 488 c 1,10,-1
 427 398 l 1,11,12
 378 429 378 429 316 429 c 0,13,14
 237 429 237 429 189.5 379 c 128,-1,15
 142 329 142 329 142 251 c 0,16,17
 144 174 144 174 189 124.5 c 128,-1,18
 234 75 234 75 315 75 c 0,19,20
 375 75 375 75 427 108 c 1,21,-1
 427 20 l 1,0,1
321 558 m 1,22,-1
 231 558 l 1,23,-1
 96 720 l 1,24,-1
 193 720 l 1,25,-1
 276 618 l 1,26,-1
 359 720 l 1,27,-1
 456 720 l 1,28,-1
 321 558 l 1,22,-1
EndSplineSet
EndChar

StartChar: Dcaron
Encoding: 270 270 203
Width: 667
GlyphClass: 2
Flags: W
LayerCount: 2
Fore
SplineSet
285 0 m 2,0,-1
 73 0 l 1,1,-1
 73 674 l 1,2,-1
 283 674 l 2,3,4
 433 674 433 674 529 581 c 128,-1,5
 625 488 625 488 625 344 c 0,6,7
 625 194 625 194 534.5 97 c 128,-1,8
 444 0 444 0 285 0 c 2,0,-1
281 586 m 2,9,-1
 178 586 l 1,10,-1
 178 87 l 1,11,-1
 284 87 l 2,12,13
 399 87 399 87 459 159 c 128,-1,14
 519 231 519 231 519 344 c 0,15,16
 519 448 519 448 454 517 c 128,-1,17
 389 586 389 586 281 586 c 2,9,-1
355 725 m 1,18,-1
 265 725 l 1,19,-1
 130 887 l 1,20,-1
 227 887 l 1,21,-1
 310 785 l 1,22,-1
 393 887 l 1,23,-1
 490 887 l 1,24,-1
 355 725 l 1,18,-1
EndSplineSet
EndChar

StartChar: dcaron
Encoding: 271 271 204
Width: 685
GlyphClass: 2
Flags: W
LayerCount: 2
Fore
SplineSet
142 249 m 0,0,1
 142 173 142 173 179.5 126 c 128,-1,2
 217 79 217 79 274 79 c 0,3,4
 332 79 332 79 372 123 c 128,-1,5
 412 167 412 167 412 257 c 0,6,7
 412 344 412 344 370.5 386 c 128,-1,8
 329 428 329 428 277 428 c 0,9,10
 218 428 218 428 180 381.5 c 128,-1,11
 142 335 142 335 142 249 c 0,0,1
511 0 m 1,12,-1
 412 0 l 1,13,-1
 412 77 l 1,14,15
 359 -7 359 -7 257 -7 c 0,16,17
 157 -7 157 -7 99 68.5 c 128,-1,18
 41 144 41 144 41 251 c 0,19,20
 41 370 41 370 102 442 c 128,-1,21
 163 514 163 514 259 514 c 0,22,23
 358 514 358 514 412 430 c 1,24,-1
 412 707 l 1,25,-1
 511 707 l 1,26,-1
 511 0 l 1,12,-1
642 510 m 1,27,-1
 565 510 l 1,28,-1
 646 707 l 1,29,-1
 755 707 l 1,30,-1
 642 510 l 1,27,-1
EndSplineSet
EndChar

StartChar: Dcroat
Encoding: 272 272 205
Width: 736
GlyphClass: 2
Flags: W
LayerCount: 2
Fore
SplineSet
353 0 m 2,0,-1
 142 0 l 1,1,-1
 142 294 l 1,2,-1
 62 294 l 1,3,-1
 62 378 l 1,4,-1
 142 378 l 1,5,-1
 142 674 l 1,6,-1
 351 674 l 2,7,8
 501 674 501 674 597 581 c 128,-1,9
 693 488 693 488 693 344 c 0,10,11
 693 194 693 194 602.5 97 c 128,-1,12
 512 0 512 0 353 0 c 2,0,-1
410 294 m 1,13,-1
 246 294 l 1,14,-1
 246 87 l 1,15,-1
 352 87 l 2,16,17
 468 87 468 87 528 159 c 128,-1,18
 588 231 588 231 588 344 c 0,19,20
 588 448 588 448 522.5 517 c 128,-1,21
 457 586 457 586 349 586 c 2,22,-1
 246 586 l 1,23,-1
 246 378 l 1,24,-1
 410 378 l 1,25,-1
 410 294 l 1,13,-1
EndSplineSet
EndChar

StartChar: dcroat
Encoding: 273 273 206
Width: 580
GlyphClass: 2
Flags: W
LayerCount: 2
Fore
SplineSet
142 249 m 0,0,1
 142 173 142 173 179.5 126 c 128,-1,2
 217 79 217 79 274 79 c 0,3,4
 332 79 332 79 372 123 c 128,-1,5
 412 167 412 167 412 257 c 0,6,7
 412 344 412 344 370.5 386 c 128,-1,8
 329 428 329 428 277 428 c 0,9,10
 218 428 218 428 180 381.5 c 128,-1,11
 142 335 142 335 142 249 c 0,0,1
511 0 m 1,12,-1
 412 0 l 1,13,-1
 412 77 l 1,14,15
 359 -7 359 -7 257 -7 c 0,16,17
 157 -7 157 -7 99 68.5 c 128,-1,18
 41 144 41 144 41 251 c 0,19,20
 41 370 41 370 102 442 c 128,-1,21
 163 514 163 514 259 514 c 0,22,23
 358 514 358 514 412 430 c 1,24,-1
 412 580 l 1,25,-1
 231 580 l 1,26,-1
 231 643 l 1,27,-1
 412 643 l 1,28,-1
 412 707 l 1,29,-1
 511 707 l 1,30,-1
 511 643 l 1,31,-1
 578 643 l 1,32,-1
 578 580 l 1,33,-1
 511 580 l 1,34,-1
 511 0 l 1,12,-1
EndSplineSet
EndChar

StartChar: Emacron
Encoding: 274 274 207
Width: 514
GlyphClass: 2
Flags: W
LayerCount: 2
Fore
SplineSet
462 0 m 1,0,-1
 73 0 l 1,1,-1
 73 674 l 1,2,-1
 457 674 l 1,3,-1
 457 588 l 1,4,-1
 176 588 l 1,5,-1
 176 380 l 1,6,-1
 425 380 l 1,7,-1
 425 294 l 1,8,-1
 176 294 l 1,9,-1
 176 86 l 1,10,-1
 462 86 l 1,11,-1
 462 0 l 1,0,-1
418 774 m 1,12,-1
 114 774 l 1,13,-1
 114 842 l 1,14,-1
 418 842 l 1,15,-1
 418 774 l 1,12,-1
EndSplineSet
EndChar

StartChar: emacron
Encoding: 275 275 208
Width: 525
GlyphClass: 2
Flags: W
LayerCount: 2
Fore
SplineSet
447 27 m 1,0,1
 391 -5 391 -5 299 -5 c 0,2,3
 181 -5 181 -5 111 66 c 128,-1,4
 41 137 41 137 41 252 c 0,5,6
 41 374 41 374 105 443.5 c 128,-1,7
 169 513 169 513 268 513 c 0,8,9
 365 513 365 513 422 452.5 c 128,-1,10
 479 392 479 392 479 278 c 0,11,12
 479 247 479 247 473 213 c 1,13,-1
 140 213 l 1,14,15
 150 147 150 147 196 112 c 128,-1,16
 242 77 242 77 312 77 c 0,17,18
 393 77 393 77 447 115 c 1,19,-1
 447 27 l 1,0,1
270 432 m 0,20,21
 220 432 220 432 184 395.5 c 128,-1,22
 148 359 148 359 139 290 c 1,23,-1
 384 290 l 1,24,-1
 384 308 l 2,25,26
 382 365 382 365 353 398.5 c 128,-1,27
 324 432 324 432 270 432 c 0,20,21
426 605 m 1,28,-1
 122 605 l 1,29,-1
 122 673 l 1,30,-1
 426 673 l 1,31,-1
 426 605 l 1,28,-1
EndSplineSet
EndChar

StartChar: Edotaccent
Encoding: 278 278 209
Width: 514
GlyphClass: 2
Flags: W
LayerCount: 2
Fore
SplineSet
462 0 m 1,0,-1
 73 0 l 1,1,-1
 73 674 l 1,2,-1
 457 674 l 1,3,-1
 457 588 l 1,4,-1
 176 588 l 1,5,-1
 176 380 l 1,6,-1
 425 380 l 1,7,-1
 425 294 l 1,8,-1
 176 294 l 1,9,-1
 176 86 l 1,10,-1
 462 86 l 1,11,-1
 462 0 l 1,0,-1
337 808 m 128,-1,13
 337 782 337 782 320 765 c 128,-1,14
 303 748 303 748 277 748 c 128,-1,15
 251 748 251 748 233.5 765 c 128,-1,16
 216 782 216 782 216 808 c 128,-1,17
 216 834 216 834 233.5 851 c 128,-1,18
 251 868 251 868 277 868 c 128,-1,19
 303 868 303 868 320 851 c 128,-1,12
 337 834 337 834 337 808 c 128,-1,13
EndSplineSet
EndChar

StartChar: edotaccent
Encoding: 279 279 210
Width: 525
GlyphClass: 2
Flags: W
LayerCount: 2
Fore
SplineSet
447 27 m 1,0,1
 391 -5 391 -5 299 -5 c 0,2,3
 181 -5 181 -5 111 66 c 128,-1,4
 41 137 41 137 41 252 c 0,5,6
 41 374 41 374 105 443.5 c 128,-1,7
 169 513 169 513 268 513 c 0,8,9
 365 513 365 513 422 452.5 c 128,-1,10
 479 392 479 392 479 278 c 0,11,12
 479 247 479 247 473 213 c 1,13,-1
 140 213 l 1,14,15
 150 147 150 147 196 112 c 128,-1,16
 242 77 242 77 312 77 c 0,17,18
 393 77 393 77 447 115 c 1,19,-1
 447 27 l 1,0,1
270 432 m 0,20,21
 220 432 220 432 184 395.5 c 128,-1,22
 148 359 148 359 139 290 c 1,23,-1
 384 290 l 1,24,-1
 384 308 l 2,25,26
 382 365 382 365 353 398.5 c 128,-1,27
 324 432 324 432 270 432 c 0,20,21
341 640 m 128,-1,29
 341 614 341 614 324 597 c 128,-1,30
 307 580 307 580 281 580 c 128,-1,31
 255 580 255 580 237.5 597 c 128,-1,32
 220 614 220 614 220 640 c 128,-1,33
 220 666 220 666 237.5 683 c 128,-1,34
 255 700 255 700 281 700 c 128,-1,35
 307 700 307 700 324 683 c 128,-1,28
 341 666 341 666 341 640 c 128,-1,29
EndSplineSet
EndChar

StartChar: Eogonek
Encoding: 280 280 211
Width: 514
GlyphClass: 2
Flags: W
LayerCount: 2
Fore
SplineSet
417 -226 m 1,0,1
 381 -247 381 -247 330 -247 c 0,2,3
 268 -247 268 -247 235.5 -215.5 c 128,-1,4
 203 -184 203 -184 203 -135 c 0,5,6
 203 -61 203 -61 281 0 c 1,7,-1
 73 0 l 1,8,-1
 73 674 l 1,9,-1
 457 674 l 1,10,-1
 457 588 l 1,11,-1
 176 588 l 1,12,-1
 176 380 l 1,13,-1
 425 380 l 1,14,-1
 425 294 l 1,15,-1
 176 294 l 1,16,-1
 176 86 l 1,17,-1
 462 86 l 1,18,-1
 462 0 l 1,19,-1
 399 0 l 1,20,21
 285 -61 285 -61 285 -127 c 0,22,23
 285 -178 285 -178 343 -178 c 0,24,25
 384 -178 384 -178 417 -154 c 1,26,-1
 417 -226 l 1,0,1
EndSplineSet
EndChar

StartChar: eogonek
Encoding: 281 281 212
Width: 525
GlyphClass: 2
Flags: W
LayerCount: 2
Fore
SplineSet
270 432 m 0,0,1
 220 432 220 432 184 395.5 c 128,-1,2
 148 359 148 359 139 290 c 1,3,-1
 384 290 l 1,4,-1
 384 308 l 2,5,6
 382 365 382 365 353 398.5 c 128,-1,7
 324 432 324 432 270 432 c 0,0,1
407 -217 m 1,8,9
 371 -238 371 -238 320 -238 c 0,10,11
 258 -238 258 -238 225.5 -206.5 c 128,-1,12
 193 -175 193 -175 193 -126 c 0,13,14
 193 -59 193 -59 257 -2 c 1,15,16
 157 10 157 10 99 79 c 128,-1,17
 41 148 41 148 41 252 c 0,18,19
 41 374 41 374 105 443.5 c 128,-1,20
 169 513 169 513 268 513 c 0,21,22
 365 513 365 513 422 452.5 c 128,-1,23
 479 392 479 392 479 278 c 0,24,25
 479 247 479 247 473 213 c 1,26,-1
 140 213 l 1,27,28
 150 147 150 147 196 112 c 128,-1,29
 242 77 242 77 312 77 c 0,30,31
 393 77 393 77 447 115 c 1,32,-1
 447 27 l 1,33,34
 420 12 420 12 379 4 c 1,35,36
 275 -55 275 -55 275 -118 c 0,37,38
 275 -169 275 -169 333 -169 c 0,39,40
 374 -169 374 -169 407 -145 c 1,41,-1
 407 -217 l 1,8,9
EndSplineSet
EndChar

StartChar: Ecaron
Encoding: 282 282 213
Width: 514
GlyphClass: 2
Flags: W
LayerCount: 2
Fore
SplineSet
462 0 m 1,0,-1
 73 0 l 1,1,-1
 73 674 l 1,2,-1
 457 674 l 1,3,-1
 457 588 l 1,4,-1
 176 588 l 1,5,-1
 176 380 l 1,6,-1
 425 380 l 1,7,-1
 425 294 l 1,8,-1
 176 294 l 1,9,-1
 176 86 l 1,10,-1
 462 86 l 1,11,-1
 462 0 l 1,0,-1
319 725 m 1,12,-1
 229 725 l 1,13,-1
 94 887 l 1,14,-1
 191 887 l 1,15,-1
 274 785 l 1,16,-1
 357 887 l 1,17,-1
 454 887 l 1,18,-1
 319 725 l 1,12,-1
EndSplineSet
EndChar

StartChar: ecaron
Encoding: 283 283 214
Width: 525
GlyphClass: 2
Flags: W
LayerCount: 2
Fore
SplineSet
447 27 m 1,0,1
 391 -5 391 -5 299 -5 c 0,2,3
 181 -5 181 -5 111 66 c 128,-1,4
 41 137 41 137 41 252 c 0,5,6
 41 374 41 374 105 443.5 c 128,-1,7
 169 513 169 513 268 513 c 0,8,9
 365 513 365 513 422 452.5 c 128,-1,10
 479 392 479 392 479 278 c 0,11,12
 479 247 479 247 473 213 c 1,13,-1
 140 213 l 1,14,15
 150 147 150 147 196 112 c 128,-1,16
 242 77 242 77 312 77 c 0,17,18
 393 77 393 77 447 115 c 1,19,-1
 447 27 l 1,0,1
270 432 m 0,20,21
 220 432 220 432 184 395.5 c 128,-1,22
 148 359 148 359 139 290 c 1,23,-1
 384 290 l 1,24,-1
 384 308 l 2,25,26
 382 365 382 365 353 398.5 c 128,-1,27
 324 432 324 432 270 432 c 0,20,21
319 558 m 1,28,-1
 229 558 l 1,29,-1
 94 720 l 1,30,-1
 191 720 l 1,31,-1
 274 618 l 1,32,-1
 357 720 l 1,33,-1
 454 720 l 1,34,-1
 319 558 l 1,28,-1
EndSplineSet
EndChar

StartChar: Gbreve
Encoding: 286 286 215
Width: 681
GlyphClass: 2
Flags: W
LayerCount: 2
Fore
SplineSet
615 55 m 1,0,1
 528 -8 528 -8 397 -8 c 0,2,3
 239 -8 239 -8 142.5 85 c 128,-1,4
 46 178 46 178 46 338 c 0,5,6
 46 493 46 493 143.5 589.5 c 128,-1,7
 241 686 241 686 391 686 c 0,8,9
 508 686 508 686 587 641 c 1,10,-1
 587 535 l 1,11,12
 501 589 501 589 395 589 c 0,13,14
 287 589 287 589 220.5 520 c 128,-1,15
 154 451 154 451 154 338 c 0,16,17
 154 222 154 222 219.5 155 c 128,-1,18
 285 88 285 88 400 88 c 0,19,20
 460 88 460 88 514 110 c 1,21,-1
 514 296 l 1,22,-1
 377 296 l 1,23,-1
 377 385 l 1,24,-1
 615 385 l 1,25,-1
 615 62 l 1,26,-1
 614 62 l 1,27,-1
 615 55 l 1,0,1
545 887 m 1,28,29
 545 808 545 808 500 765 c 128,-1,30
 455 722 455 722 371 722 c 128,-1,31
 287 722 287 722 242 765 c 128,-1,32
 197 808 197 808 197 887 c 1,33,-1
 275 887 l 1,34,35
 275 843 275 843 299 816 c 128,-1,36
 323 789 323 789 371 789 c 128,-1,37
 419 789 419 789 443 816 c 128,-1,38
 467 843 467 843 467 887 c 1,39,-1
 545 887 l 1,28,29
EndSplineSet
EndChar

StartChar: gbreve
Encoding: 287 287 216
Width: 559
GlyphClass: 2
Flags: W
LayerCount: 2
Fore
SplineSet
496 43 m 2,0,1
 496 -74 496 -74 429.5 -133.5 c 128,-1,2
 363 -193 363 -193 259 -193 c 0,3,4
 161 -193 161 -193 94 -160 c 1,5,-1
 94 -61 l 1,6,7
 158 -103 158 -103 249 -103 c 0,8,9
 398 -103 398 -103 398 44 c 2,10,-1
 398 96 l 1,11,12
 349 14 349 14 251 14 c 0,13,14
 165 14 165 14 104 77.5 c 128,-1,15
 43 141 43 141 43 257 c 0,16,17
 43 369 43 369 100 441.5 c 128,-1,18
 157 514 157 514 251 514 c 0,19,20
 352 514 352 514 398 428 c 1,21,-1
 398 507 l 1,22,-1
 496 507 l 1,23,-1
 496 43 l 2,0,1
146 259 m 0,24,25
 146 180 146 180 182.5 139 c 128,-1,26
 219 98 219 98 269 98 c 0,27,28
 321 98 321 98 359.5 138.5 c 128,-1,29
 398 179 398 179 398 252 c 0,30,31
 398 342 398 342 361.5 385 c 128,-1,32
 325 428 325 428 273 428 c 0,33,34
 214 428 214 428 180 381.5 c 128,-1,35
 146 335 146 335 146 259 c 0,24,25
471 720 m 1,36,37
 471 641 471 641 426 598 c 128,-1,38
 381 555 381 555 297 555 c 128,-1,39
 213 555 213 555 168 598 c 128,-1,40
 123 641 123 641 123 720 c 1,41,-1
 201 720 l 1,42,43
 201 676 201 676 225 649 c 128,-1,44
 249 622 249 622 297 622 c 128,-1,45
 345 622 345 622 369 649 c 128,-1,46
 393 676 393 676 393 720 c 1,47,-1
 471 720 l 1,36,37
EndSplineSet
EndChar

StartChar: uni0122
Encoding: 290 290 217
Width: 681
GlyphClass: 2
Flags: W
LayerCount: 2
Fore
SplineSet
615 55 m 1,0,1
 528 -8 528 -8 397 -8 c 0,2,3
 239 -8 239 -8 142.5 85 c 128,-1,4
 46 178 46 178 46 338 c 0,5,6
 46 493 46 493 143.5 589.5 c 128,-1,7
 241 686 241 686 391 686 c 0,8,9
 508 686 508 686 587 641 c 1,10,-1
 587 535 l 1,11,12
 501 589 501 589 395 589 c 0,13,14
 287 589 287 589 220.5 520 c 128,-1,15
 154 451 154 451 154 338 c 0,16,17
 154 222 154 222 219.5 155 c 128,-1,18
 285 88 285 88 400 88 c 0,19,20
 460 88 460 88 514 110 c 1,21,-1
 514 296 l 1,22,-1
 377 296 l 1,23,-1
 377 385 l 1,24,-1
 615 385 l 1,25,-1
 615 62 l 1,26,-1
 614 62 l 1,27,-1
 615 55 l 1,0,1
317 -249 m 1,28,-1
 240 -249 l 1,29,-1
 321 -51 l 1,30,-1
 430 -51 l 1,31,-1
 317 -249 l 1,28,-1
EndSplineSet
EndChar

StartChar: uni0123
Encoding: 291 291 218
Width: 559
GlyphClass: 2
Flags: W
LayerCount: 2
Fore
SplineSet
496 43 m 2,0,1
 496 -74 496 -74 429.5 -133.5 c 128,-1,2
 363 -193 363 -193 259 -193 c 0,3,4
 161 -193 161 -193 94 -160 c 1,5,-1
 94 -61 l 1,6,7
 158 -103 158 -103 249 -103 c 0,8,9
 398 -103 398 -103 398 44 c 2,10,-1
 398 96 l 1,11,12
 349 14 349 14 251 14 c 0,13,14
 165 14 165 14 104 77.5 c 128,-1,15
 43 141 43 141 43 257 c 0,16,17
 43 369 43 369 100 441.5 c 128,-1,18
 157 514 157 514 251 514 c 0,19,20
 352 514 352 514 398 428 c 1,21,-1
 398 507 l 1,22,-1
 496 507 l 1,23,-1
 496 43 l 2,0,1
146 259 m 0,24,25
 146 180 146 180 182.5 139 c 128,-1,26
 219 98 219 98 269 98 c 0,27,28
 321 98 321 98 359.5 138.5 c 128,-1,29
 398 179 398 179 398 252 c 0,30,31
 398 342 398 342 361.5 385 c 128,-1,32
 325 428 325 428 273 428 c 0,33,34
 214 428 214 428 180 381.5 c 128,-1,35
 146 335 146 335 146 259 c 0,24,25
367 558 m 1,36,-1
 258 558 l 1,37,-1
 371 755 l 1,38,-1
 447 755 l 1,39,-1
 367 558 l 1,36,-1
EndSplineSet
EndChar

StartChar: Imacron
Encoding: 298 298 219
Width: 264
GlyphClass: 2
Flags: W
LayerCount: 2
Fore
SplineSet
183 0 m 1,0,-1
 81 0 l 1,1,-1
 81 674 l 1,2,-1
 183 674 l 1,3,-1
 183 0 l 1,0,-1
284 772 m 1,4,-1
 -20 772 l 1,5,-1
 -20 840 l 1,6,-1
 284 840 l 1,7,-1
 284 772 l 1,4,-1
EndSplineSet
EndChar

StartChar: imacron
Encoding: 299 299 220
Width: 245
GlyphClass: 2
Flags: W
LayerCount: 2
Fore
SplineSet
172 0 m 1,0,-1
 73 0 l 1,1,-1
 73 507 l 1,2,-1
 172 507 l 1,3,-1
 172 0 l 1,0,-1
275 605 m 1,4,-1
 -29 605 l 1,5,-1
 -29 673 l 1,6,-1
 275 673 l 1,7,-1
 275 605 l 1,4,-1
EndSplineSet
EndChar

StartChar: Iogonek
Encoding: 302 302 221
Width: 264
GlyphClass: 2
Flags: W
LayerCount: 2
Fore
SplineSet
201 -226 m 1,0,1
 165 -247 165 -247 114 -247 c 0,2,3
 52 -247 52 -247 19.5 -215.5 c 128,-1,4
 -13 -184 -13 -184 -13 -135 c 0,5,6
 -13 -52 -13 -52 81 11 c 1,7,-1
 81 674 l 1,8,-1
 183 674 l 1,9,-1
 183 0 l 1,10,11
 69 -61 69 -61 69 -127 c 0,12,13
 69 -178 69 -178 127 -178 c 0,14,15
 168 -178 168 -178 201 -154 c 1,16,-1
 201 -226 l 1,0,1
EndSplineSet
EndChar

StartChar: iogonek
Encoding: 303 303 222
Width: 245
GlyphClass: 2
Flags: W
LayerCount: 2
Fore
SplineSet
184 662 m 0,0,1
 184 637 184 637 166 619 c 128,-1,2
 148 601 148 601 122 601 c 128,-1,3
 96 601 96 601 78.5 618.5 c 128,-1,4
 61 636 61 636 61 662 c 128,-1,5
 61 688 61 688 78.5 706 c 128,-1,6
 96 724 96 724 122 724 c 128,-1,7
 148 724 148 724 166 706 c 128,-1,8
 184 688 184 688 184 662 c 0,0,1
190 -226 m 1,9,10
 154 -247 154 -247 103 -247 c 0,11,12
 41 -247 41 -247 8.5 -215.5 c 128,-1,13
 -24 -184 -24 -184 -24 -135 c 0,14,15
 -24 -50 -24 -50 73 13 c 1,16,-1
 73 507 l 1,17,-1
 172 507 l 1,18,-1
 172 0 l 1,19,20
 58 -61 58 -61 58 -127 c 0,21,22
 58 -178 58 -178 116 -178 c 0,23,24
 157 -178 157 -178 190 -154 c 1,25,-1
 190 -226 l 1,9,10
EndSplineSet
EndChar

StartChar: Idotaccent
Encoding: 304 304 223
Width: 264
GlyphClass: 2
Flags: W
LayerCount: 2
Fore
SplineSet
183 0 m 1,0,-1
 81 0 l 1,1,-1
 81 674 l 1,2,-1
 183 674 l 1,3,-1
 183 0 l 1,0,-1
193 808 m 128,-1,5
 193 782 193 782 176 765 c 128,-1,6
 159 748 159 748 133 748 c 128,-1,7
 107 748 107 748 89.5 765 c 128,-1,8
 72 782 72 782 72 808 c 128,-1,9
 72 834 72 834 89.5 851 c 128,-1,10
 107 868 107 868 133 868 c 128,-1,11
 159 868 159 868 176 851 c 128,-1,4
 193 834 193 834 193 808 c 128,-1,5
EndSplineSet
EndChar

StartChar: dotlessi
Encoding: 305 305 224
Width: 245
GlyphClass: 2
Flags: W
LayerCount: 2
Fore
SplineSet
172 0 m 1,0,-1
 73 0 l 1,1,-1
 73 507 l 1,2,-1
 172 507 l 1,3,-1
 172 0 l 1,0,-1
EndSplineSet
EndChar

StartChar: uni0136
Encoding: 310 310 225
Width: 599
GlyphClass: 2
Flags: W
LayerCount: 2
Fore
SplineSet
574 0 m 1,0,-1
 444 0 l 1,1,-1
 189 333 l 1,2,-1
 434 674 l 1,3,-1
 559 674 l 1,4,-1
 312 334 l 1,5,-1
 574 0 l 1,0,-1
249 -249 m 1,6,-1
 172 -249 l 1,7,-1
 253 -51 l 1,8,-1
 362 -51 l 1,9,-1
 249 -249 l 1,6,-1
176 0 m 1,10,-1
 73 0 l 1,11,-1
 73 674 l 1,12,-1
 176 674 l 1,13,-1
 176 0 l 1,10,-1
EndSplineSet
EndChar

StartChar: uni0137
Encoding: 311 311 226
Width: 500
GlyphClass: 2
Flags: W
LayerCount: 2
Fore
SplineSet
167 0 m 1,0,-1
 69 0 l 1,1,-1
 69 700 l 1,2,-1
 167 700 l 1,3,-1
 167 0 l 1,0,-1
284 265 m 1,4,-1
 483 0 l 1,5,-1
 366 0 l 1,6,-1
 171 265 l 1,7,-1
 362 507 l 1,8,-1
 477 507 l 1,9,-1
 284 265 l 1,4,-1
203 -249 m 1,10,-1
 126 -249 l 1,11,-1
 207 -51 l 1,12,-1
 316 -51 l 1,13,-1
 203 -249 l 1,10,-1
EndSplineSet
EndChar

StartChar: Lacute
Encoding: 313 313 227
Width: 480
GlyphClass: 2
Flags: W
LayerCount: 2
Fore
SplineSet
452 0 m 1,0,-1
 73 0 l 1,1,-1
 73 674 l 1,2,-1
 176 674 l 1,3,-1
 176 91 l 1,4,-1
 452 91 l 1,5,-1
 452 0 l 1,0,-1
340 725 m 1,6,-1
 256 725 l 1,7,-1
 351 887 l 1,8,-1
 460 887 l 1,9,-1
 340 725 l 1,6,-1
EndSplineSet
EndChar

StartChar: lacute
Encoding: 314 314 228
Width: 245
GlyphClass: 2
Flags: W
LayerCount: 2
Fore
SplineSet
172 0 m 1,0,-1
 73 0 l 1,1,-1
 73 707 l 1,2,-1
 172 707 l 1,3,-1
 172 0 l 1,0,-1
166 758 m 1,4,-1
 82 758 l 1,5,-1
 177 920 l 1,6,-1
 286 920 l 1,7,-1
 166 758 l 1,4,-1
EndSplineSet
EndChar

StartChar: uni013B
Encoding: 315 315 229
Width: 480
GlyphClass: 2
Flags: W
LayerCount: 2
Fore
SplineSet
216 -249 m 1,0,-1
 139 -249 l 1,1,-1
 220 -51 l 1,2,-1
 329 -51 l 1,3,-1
 216 -249 l 1,0,-1
452 0 m 1,4,-1
 73 0 l 1,5,-1
 73 674 l 1,6,-1
 176 674 l 1,7,-1
 176 91 l 1,8,-1
 452 91 l 1,9,-1
 452 0 l 1,4,-1
EndSplineSet
EndChar

StartChar: uni013C
Encoding: 316 316 230
Width: 245
GlyphClass: 2
Flags: W
LayerCount: 2
Fore
SplineSet
172 0 m 1,0,-1
 73 0 l 1,1,-1
 73 707 l 1,2,-1
 172 707 l 1,3,-1
 172 0 l 1,0,-1
64 -249 m 1,4,-1
 -13 -249 l 1,5,-1
 68 -51 l 1,6,-1
 177 -51 l 1,7,-1
 64 -249 l 1,4,-1
EndSplineSet
EndChar

StartChar: Lcaron
Encoding: 317 317 231
Width: 480
GlyphClass: 2
Flags: W
LayerCount: 2
Fore
SplineSet
452 0 m 1,0,-1
 73 0 l 1,1,-1
 73 674 l 1,2,-1
 176 674 l 1,3,-1
 176 91 l 1,4,-1
 452 91 l 1,5,-1
 452 0 l 1,0,-1
334 503 m 1,6,-1
 257 503 l 1,7,-1
 338 701 l 1,8,-1
 447 701 l 1,9,-1
 334 503 l 1,6,-1
EndSplineSet
EndChar

StartChar: lcaron
Encoding: 318 318 232
Width: 264
GlyphClass: 2
Flags: W
LayerCount: 2
Fore
SplineSet
172 0 m 1,0,-1
 73 0 l 1,1,-1
 73 707 l 1,2,-1
 172 707 l 1,3,-1
 172 0 l 1,0,-1
313 510 m 1,4,-1
 237 510 l 1,5,-1
 317 708 l 1,6,-1
 426 708 l 1,7,-1
 313 510 l 1,4,-1
EndSplineSet
EndChar

StartChar: Lslash
Encoding: 321 321 233
Width: 518
GlyphClass: 2
Flags: W
LayerCount: 2
Fore
SplineSet
361 398 m 1,0,-1
 207 299 l 1,1,-1
 207 91 l 1,2,-1
 483 91 l 1,3,-1
 483 0 l 1,4,-1
 105 0 l 1,5,-1
 105 233 l 1,6,-1
 34 187 l 1,7,-1
 34 277 l 1,8,-1
 105 323 l 1,9,-1
 105 674 l 1,10,-1
 207 674 l 1,11,-1
 207 389 l 1,12,-1
 361 488 l 1,13,-1
 361 398 l 1,0,-1
EndSplineSet
EndChar

StartChar: lslash
Encoding: 322 322 234
Width: 306
GlyphClass: 2
Flags: W
LayerCount: 2
Fore
SplineSet
200 0 m 1,0,-1
 101 0 l 1,1,-1
 101 291 l 1,2,-1
 31 242 l 1,3,-1
 31 333 l 1,4,-1
 101 382 l 1,5,-1
 101 707 l 1,6,-1
 200 707 l 1,7,-1
 200 451 l 1,8,-1
 282 508 l 1,9,-1
 282 418 l 1,10,-1
 200 361 l 1,11,-1
 200 0 l 1,0,-1
EndSplineSet
EndChar

StartChar: Nacute
Encoding: 323 323 235
Width: 680
GlyphClass: 2
Flags: W
LayerCount: 2
Fore
SplineSet
176 0 m 1,0,-1
 73 0 l 1,1,-1
 73 674 l 1,2,-1
 195 674 l 1,3,-1
 361 392 l 2,4,5
 407 313 407 313 444.5 246 c 128,-1,6
 482 179 482 179 496 152 c 2,7,-1
 510 124 l 1,8,9
 504 215 504 215 504 391 c 2,10,-1
 504 674 l 1,11,-1
 607 674 l 1,12,-1
 607 0 l 1,13,-1
 485 0 l 1,14,-1
 318 281 l 2,15,16
 273 357 273 357 235.5 424.5 c 128,-1,17
 198 492 198 492 183 522 c 2,18,-1
 168 551 l 1,19,20
 176 451 176 451 176 282 c 2,21,-1
 176 0 l 1,0,-1
403 725 m 1,22,-1
 319 725 l 1,23,-1
 414 887 l 1,24,-1
 523 887 l 1,25,-1
 403 725 l 1,22,-1
EndSplineSet
EndChar

StartChar: nacute
Encoding: 324 324 236
Width: 551
GlyphClass: 2
Flags: W
LayerCount: 2
Fore
SplineSet
488 0 m 1,0,-1
 390 0 l 1,1,-1
 390 320 l 2,2,3
 390 373 390 373 363.5 401 c 128,-1,4
 337 429 337 429 293 429 c 0,5,6
 241 429 241 429 204 388.5 c 128,-1,7
 167 348 167 348 167 275 c 2,8,-1
 167 0 l 1,9,-1
 69 0 l 1,10,-1
 69 507 l 1,11,-1
 167 507 l 1,12,-1
 167 420 l 1,13,14
 212 514 212 514 325 514 c 0,15,16
 400 514 400 514 444 468 c 128,-1,17
 488 422 488 422 488 343 c 2,18,-1
 488 0 l 1,0,-1
348 558 m 1,19,-1
 264 558 l 1,20,-1
 359 720 l 1,21,-1
 468 720 l 1,22,-1
 348 558 l 1,19,-1
EndSplineSet
EndChar

StartChar: uni0145
Encoding: 325 325 237
Width: 680
GlyphClass: 2
Flags: W
LayerCount: 2
Fore
SplineSet
176 0 m 1,0,-1
 73 0 l 1,1,-1
 73 674 l 1,2,-1
 195 674 l 1,3,-1
 361 392 l 2,4,5
 407 313 407 313 444.5 246 c 128,-1,6
 482 179 482 179 496 152 c 2,7,-1
 510 124 l 1,8,9
 504 215 504 215 504 391 c 2,10,-1
 504 674 l 1,11,-1
 607 674 l 1,12,-1
 607 0 l 1,13,-1
 485 0 l 1,14,-1
 318 281 l 2,15,16
 273 357 273 357 235.5 424.5 c 128,-1,17
 198 492 198 492 183 522 c 2,18,-1
 168 551 l 1,19,20
 176 451 176 451 176 282 c 2,21,-1
 176 0 l 1,0,-1
292 -249 m 1,22,-1
 215 -249 l 1,23,-1
 296 -51 l 1,24,-1
 405 -51 l 1,25,-1
 292 -249 l 1,22,-1
EndSplineSet
EndChar

StartChar: uni0146
Encoding: 326 326 238
Width: 551
GlyphClass: 2
Flags: W
LayerCount: 2
Fore
SplineSet
488 0 m 1,0,-1
 390 0 l 1,1,-1
 390 320 l 2,2,3
 390 373 390 373 363.5 401 c 128,-1,4
 337 429 337 429 293 429 c 0,5,6
 241 429 241 429 204 388.5 c 128,-1,7
 167 348 167 348 167 275 c 2,8,-1
 167 0 l 1,9,-1
 69 0 l 1,10,-1
 69 507 l 1,11,-1
 167 507 l 1,12,-1
 167 420 l 1,13,14
 212 514 212 514 325 514 c 0,15,16
 400 514 400 514 444 468 c 128,-1,17
 488 422 488 422 488 343 c 2,18,-1
 488 0 l 1,0,-1
226 -249 m 1,19,-1
 149 -249 l 1,20,-1
 230 -51 l 1,21,-1
 339 -51 l 1,22,-1
 226 -249 l 1,19,-1
EndSplineSet
EndChar

StartChar: Ncaron
Encoding: 327 327 239
Width: 680
GlyphClass: 2
Flags: W
LayerCount: 2
Fore
SplineSet
176 0 m 1,0,-1
 73 0 l 1,1,-1
 73 674 l 1,2,-1
 195 674 l 1,3,-1
 361 392 l 2,4,5
 407 313 407 313 444.5 246 c 128,-1,6
 482 179 482 179 496 152 c 2,7,-1
 510 124 l 1,8,9
 504 215 504 215 504 391 c 2,10,-1
 504 674 l 1,11,-1
 607 674 l 1,12,-1
 607 0 l 1,13,-1
 485 0 l 1,14,-1
 318 281 l 2,15,16
 273 357 273 357 235.5 424.5 c 128,-1,17
 198 492 198 492 183 522 c 2,18,-1
 168 551 l 1,19,20
 176 451 176 451 176 282 c 2,21,-1
 176 0 l 1,0,-1
398 725 m 1,22,-1
 308 725 l 1,23,-1
 173 887 l 1,24,-1
 270 887 l 1,25,-1
 353 785 l 1,26,-1
 436 887 l 1,27,-1
 533 887 l 1,28,-1
 398 725 l 1,22,-1
EndSplineSet
EndChar

StartChar: ncaron
Encoding: 328 328 240
Width: 551
GlyphClass: 2
Flags: W
LayerCount: 2
Fore
SplineSet
488 0 m 1,0,-1
 390 0 l 1,1,-1
 390 320 l 2,2,3
 390 373 390 373 363.5 401 c 128,-1,4
 337 429 337 429 293 429 c 0,5,6
 241 429 241 429 204 388.5 c 128,-1,7
 167 348 167 348 167 275 c 2,8,-1
 167 0 l 1,9,-1
 69 0 l 1,10,-1
 69 507 l 1,11,-1
 167 507 l 1,12,-1
 167 420 l 1,13,14
 212 514 212 514 325 514 c 0,15,16
 400 514 400 514 444 468 c 128,-1,17
 488 422 488 422 488 343 c 2,18,-1
 488 0 l 1,0,-1
336 558 m 1,19,-1
 246 558 l 1,20,-1
 111 720 l 1,21,-1
 208 720 l 1,22,-1
 291 618 l 1,23,-1
 374 720 l 1,24,-1
 471 720 l 1,25,-1
 336 558 l 1,19,-1
EndSplineSet
EndChar

StartChar: Omacron
Encoding: 332 332 241
Width: 711
GlyphClass: 2
Flags: W
LayerCount: 2
Fore
SplineSet
665 340 m 128,-1,1
 665 182 665 182 581.5 87 c 128,-1,2
 498 -8 498 -8 356 -8 c 0,3,4
 215 -8 215 -8 130.5 87 c 128,-1,5
 46 182 46 182 46 340 c 0,6,7
 46 497 46 497 130 592 c 128,-1,8
 214 687 214 687 355 687 c 0,9,10
 499 687 499 687 582 592.5 c 128,-1,0
 665 498 665 498 665 340 c 128,-1,1
154 340 m 128,-1,12
 154 224 154 224 209 156 c 128,-1,13
 264 88 264 88 356 88 c 0,14,15
 451 88 451 88 504 155 c 128,-1,16
 557 222 557 222 557 340 c 0,17,18
 557 457 557 457 503.5 524 c 128,-1,19
 450 591 450 591 355 591 c 0,20,21
 261 591 261 591 207.5 523.5 c 128,-1,11
 154 456 154 456 154 340 c 128,-1,12
508 772 m 1,22,-1
 204 772 l 1,23,-1
 204 840 l 1,24,-1
 508 840 l 1,25,-1
 508 772 l 1,22,-1
EndSplineSet
EndChar

StartChar: omacron
Encoding: 333 333 242
Width: 564
GlyphClass: 2
Flags: W
LayerCount: 2
Fore
SplineSet
523 253 m 128,-1,1
 523 139 523 139 458.5 65 c 128,-1,2
 394 -9 394 -9 281 -9 c 0,3,4
 169 -9 169 -9 105 64 c 128,-1,5
 41 137 41 137 41 249 c 0,6,7
 41 363 41 363 107 438.5 c 128,-1,8
 173 514 173 514 281 514 c 0,9,10
 397 514 397 514 460 440.5 c 128,-1,0
 523 367 523 367 523 253 c 128,-1,1
143 252 m 0,11,12
 143 177 143 177 180 125.5 c 128,-1,13
 217 74 217 74 281 74 c 0,14,15
 349 74 349 74 384.5 124 c 128,-1,16
 420 174 420 174 420 251 c 0,17,18
 420 330 420 330 386 380.5 c 128,-1,19
 352 431 352 431 280 431 c 0,20,21
 215 431 215 431 179 379.5 c 128,-1,22
 143 328 143 328 143 252 c 0,11,12
436 605 m 1,23,-1
 132 605 l 1,24,-1
 132 673 l 1,25,-1
 436 673 l 1,26,-1
 436 605 l 1,23,-1
EndSplineSet
EndChar

StartChar: Ohungarumlaut
Encoding: 336 336 243
Width: 711
GlyphClass: 2
Flags: W
LayerCount: 2
Fore
SplineSet
665 340 m 128,-1,1
 665 182 665 182 581.5 87 c 128,-1,2
 498 -8 498 -8 356 -8 c 0,3,4
 215 -8 215 -8 130.5 87 c 128,-1,5
 46 182 46 182 46 340 c 0,6,7
 46 497 46 497 130 592 c 128,-1,8
 214 687 214 687 355 687 c 0,9,10
 499 687 499 687 582 592.5 c 128,-1,0
 665 498 665 498 665 340 c 128,-1,1
154 340 m 128,-1,12
 154 224 154 224 209 156 c 128,-1,13
 264 88 264 88 356 88 c 0,14,15
 451 88 451 88 504 155 c 128,-1,16
 557 222 557 222 557 340 c 0,17,18
 557 457 557 457 503.5 524 c 128,-1,19
 450 591 450 591 355 591 c 0,20,21
 261 591 261 591 207.5 523.5 c 128,-1,11
 154 456 154 456 154 340 c 128,-1,12
488 725 m 1,22,-1
 413 725 l 1,23,-1
 513 887 l 1,24,-1
 622 887 l 1,25,-1
 488 725 l 1,22,-1
323 725 m 1,26,-1
 248 725 l 1,27,-1
 342 887 l 1,28,-1
 445 887 l 1,29,-1
 323 725 l 1,26,-1
EndSplineSet
EndChar

StartChar: ohungarumlaut
Encoding: 337 337 244
Width: 564
GlyphClass: 2
Flags: W
LayerCount: 2
Fore
SplineSet
523 253 m 128,-1,1
 523 139 523 139 458.5 65 c 128,-1,2
 394 -9 394 -9 281 -9 c 0,3,4
 169 -9 169 -9 105 64 c 128,-1,5
 41 137 41 137 41 249 c 0,6,7
 41 363 41 363 107 438.5 c 128,-1,8
 173 514 173 514 281 514 c 0,9,10
 397 514 397 514 460 440.5 c 128,-1,0
 523 367 523 367 523 253 c 128,-1,1
143 252 m 0,11,12
 143 177 143 177 180 125.5 c 128,-1,13
 217 74 217 74 281 74 c 0,14,15
 349 74 349 74 384.5 124 c 128,-1,16
 420 174 420 174 420 251 c 0,17,18
 420 330 420 330 386 380.5 c 128,-1,19
 352 431 352 431 280 431 c 0,20,21
 215 431 215 431 179 379.5 c 128,-1,22
 143 328 143 328 143 252 c 0,11,12
420 558 m 1,23,-1
 345 558 l 1,24,-1
 445 720 l 1,25,-1
 554 720 l 1,26,-1
 420 558 l 1,23,-1
255 558 m 1,27,-1
 180 558 l 1,28,-1
 274 720 l 1,29,-1
 377 720 l 1,30,-1
 255 558 l 1,27,-1
EndSplineSet
EndChar

StartChar: OE
Encoding: 338 338 245
Width: 988
GlyphClass: 2
Flags: W
LayerCount: 2
Fore
SplineSet
154 340 m 128,-1,1
 154 223 154 223 207 155.5 c 128,-1,2
 260 88 260 88 351 88 c 0,3,4
 445 88 445 88 496.5 155 c 128,-1,5
 548 222 548 222 548 340 c 128,-1,6
 548 458 548 458 496.5 524.5 c 128,-1,7
 445 591 445 591 350 591 c 0,8,9
 257 591 257 591 205.5 524 c 128,-1,0
 154 457 154 457 154 340 c 128,-1,1
937 0 m 1,10,-1
 548 0 l 1,11,-1
 548 73 l 1,12,13
 470 -8 470 -8 351 -8 c 0,14,15
 211 -8 211 -8 128.5 87 c 128,-1,16
 46 182 46 182 46 340 c 128,-1,17
 46 498 46 498 127.5 592.5 c 128,-1,18
 209 687 209 687 350 687 c 0,19,20
 471 687 471 687 548 608 c 1,21,-1
 548 674 l 1,22,-1
 932 674 l 1,23,-1
 932 588 l 1,24,-1
 646 588 l 1,25,-1
 646 380 l 1,26,-1
 900 380 l 1,27,-1
 900 294 l 1,28,-1
 646 294 l 1,29,-1
 646 86 l 1,30,-1
 937 86 l 1,31,-1
 937 0 l 1,10,-1
EndSplineSet
EndChar

StartChar: oe
Encoding: 339 339 246
Width: 889
GlyphClass: 2
Flags: W
LayerCount: 2
Fore
SplineSet
143 252 m 0,0,1
 143 176 143 176 177.5 125 c 128,-1,2
 212 74 212 74 275 74 c 0,3,4
 342 74 342 74 375.5 123.5 c 128,-1,5
 409 173 409 173 409 251 c 0,6,7
 409 331 409 331 377.5 381 c 128,-1,8
 346 431 346 431 275 431 c 0,9,10
 210 431 210 431 176.5 380 c 128,-1,11
 143 329 143 329 143 252 c 0,0,1
640 432 m 128,-1,13
 590 432 590 432 553.5 396 c 128,-1,14
 517 360 517 360 508 290 c 1,15,-1
 752 290 l 1,16,-1
 752 312 l 2,17,18
 750 369 750 369 720 400.5 c 128,-1,12
 690 432 690 432 640 432 c 128,-1,13
813 27 m 1,19,20
 755 -5 755 -5 666 -5 c 0,21,22
 533 -5 533 -5 462 88 c 1,23,24
 398 -9 398 -9 275 -9 c 0,25,26
 164 -9 164 -9 102.5 64 c 128,-1,27
 41 137 41 137 41 249 c 0,28,29
 41 364 41 364 104.5 439 c 128,-1,30
 168 514 168 514 275 514 c 0,31,32
 397 514 397 514 459 423 c 1,33,34
 525 513 525 513 639 513 c 0,35,36
 738 513 738 513 792.5 452 c 128,-1,37
 847 391 847 391 847 275 c 0,38,39
 847 247 847 247 841 213 c 1,40,-1
 509 213 l 1,41,42
 520 148 520 148 566 112.5 c 128,-1,43
 612 77 612 77 679 77 c 0,44,45
 759 77 759 77 813 115 c 1,46,-1
 813 27 l 1,19,20
EndSplineSet
EndChar

StartChar: Racute
Encoding: 340 340 247
Width: 568
GlyphClass: 2
Flags: W
LayerCount: 2
Fore
SplineSet
264 588 m 2,0,-1
 176 588 l 1,1,-1
 176 342 l 1,2,-1
 269 342 l 2,3,4
 333 342 333 342 366 375.5 c 128,-1,5
 399 409 399 409 399 465 c 0,6,7
 399 588 399 588 264 588 c 2,0,-1
176 0 m 1,8,-1
 73 0 l 1,9,-1
 73 674 l 1,10,-1
 261 674 l 2,11,12
 377 674 377 674 440 617.5 c 128,-1,13
 503 561 503 561 503 464 c 0,14,15
 502 393 502 393 467 343.5 c 128,-1,16
 432 294 432 294 370 272 c 1,17,-1
 546 0 l 1,18,-1
 423 0 l 1,19,-1
 265 256 l 1,20,-1
 176 256 l 1,21,-1
 176 0 l 1,8,-1
320 725 m 1,22,-1
 236 725 l 1,23,-1
 331 887 l 1,24,-1
 440 887 l 1,25,-1
 320 725 l 1,22,-1
EndSplineSet
EndChar

StartChar: racute
Encoding: 341 341 248
Width: 339
GlyphClass: 2
Flags: W
LayerCount: 2
Fore
SplineSet
167 0 m 1,0,-1
 69 0 l 1,1,-1
 69 507 l 1,2,-1
 167 507 l 1,3,-1
 167 418 l 1,4,5
 204 512 204 512 300 512 c 0,6,7
 314 512 314 512 331 509 c 1,8,-1
 331 413 l 1,9,10
 310 422 310 422 284 422 c 0,11,12
 233 422 233 422 200 377 c 128,-1,13
 167 332 167 332 167 270 c 2,14,-1
 167 0 l 1,0,-1
250 558 m 1,15,-1
 166 558 l 1,16,-1
 261 720 l 1,17,-1
 370 720 l 1,18,-1
 250 558 l 1,15,-1
EndSplineSet
EndChar

StartChar: uni0156
Encoding: 342 342 249
Width: 568
GlyphClass: 2
Flags: W
LayerCount: 2
Fore
SplineSet
264 588 m 2,0,-1
 176 588 l 1,1,-1
 176 342 l 1,2,-1
 269 342 l 2,3,4
 333 342 333 342 366 375.5 c 128,-1,5
 399 409 399 409 399 465 c 0,6,7
 399 588 399 588 264 588 c 2,0,-1
236 -249 m 1,8,-1
 159 -249 l 1,9,-1
 240 -51 l 1,10,-1
 349 -51 l 1,11,-1
 236 -249 l 1,8,-1
176 0 m 1,12,-1
 73 0 l 1,13,-1
 73 674 l 1,14,-1
 261 674 l 2,15,16
 377 674 377 674 440 617.5 c 128,-1,17
 503 561 503 561 503 464 c 0,18,19
 502 393 502 393 467 343.5 c 128,-1,20
 432 294 432 294 370 272 c 1,21,-1
 546 0 l 1,22,-1
 423 0 l 1,23,-1
 265 256 l 1,24,-1
 176 256 l 1,25,-1
 176 0 l 1,12,-1
EndSplineSet
EndChar

StartChar: uni0157
Encoding: 343 343 250
Width: 339
GlyphClass: 2
Flags: W
LayerCount: 2
Fore
SplineSet
57 -249 m 1,0,-1
 -20 -249 l 1,1,-1
 61 -51 l 1,2,-1
 170 -51 l 1,3,-1
 57 -249 l 1,0,-1
167 0 m 1,4,-1
 69 0 l 1,5,-1
 69 507 l 1,6,-1
 167 507 l 1,7,-1
 167 418 l 1,8,9
 204 512 204 512 300 512 c 0,10,11
 314 512 314 512 331 509 c 1,12,-1
 331 413 l 1,13,14
 310 422 310 422 284 422 c 0,15,16
 233 422 233 422 200 377 c 128,-1,17
 167 332 167 332 167 270 c 2,18,-1
 167 0 l 1,4,-1
EndSplineSet
EndChar

StartChar: Rcaron
Encoding: 344 344 251
Width: 568
GlyphClass: 2
Flags: W
LayerCount: 2
Fore
SplineSet
264 588 m 2,0,-1
 176 588 l 1,1,-1
 176 342 l 1,2,-1
 269 342 l 2,3,4
 333 342 333 342 366 375.5 c 128,-1,5
 399 409 399 409 399 465 c 0,6,7
 399 588 399 588 264 588 c 2,0,-1
176 0 m 1,8,-1
 73 0 l 1,9,-1
 73 674 l 1,10,-1
 261 674 l 2,11,12
 377 674 377 674 440 617.5 c 128,-1,13
 503 561 503 561 503 464 c 0,14,15
 502 393 502 393 467 343.5 c 128,-1,16
 432 294 432 294 370 272 c 1,17,-1
 546 0 l 1,18,-1
 423 0 l 1,19,-1
 265 256 l 1,20,-1
 176 256 l 1,21,-1
 176 0 l 1,8,-1
335 725 m 1,22,-1
 245 725 l 1,23,-1
 110 887 l 1,24,-1
 207 887 l 1,25,-1
 290 785 l 1,26,-1
 373 887 l 1,27,-1
 470 887 l 1,28,-1
 335 725 l 1,22,-1
EndSplineSet
EndChar

StartChar: rcaron
Encoding: 345 345 252
Width: 339
GlyphClass: 2
Flags: W
LayerCount: 2
Fore
SplineSet
167 0 m 1,0,-1
 69 0 l 1,1,-1
 69 507 l 1,2,-1
 167 507 l 1,3,-1
 167 418 l 1,4,5
 204 512 204 512 300 512 c 0,6,7
 314 512 314 512 331 509 c 1,8,-1
 331 413 l 1,9,10
 310 422 310 422 284 422 c 0,11,12
 233 422 233 422 200 377 c 128,-1,13
 167 332 167 332 167 270 c 2,14,-1
 167 0 l 1,0,-1
250 558 m 1,15,-1
 160 558 l 1,16,-1
 25 720 l 1,17,-1
 122 720 l 1,18,-1
 205 618 l 1,19,-1
 288 720 l 1,20,-1
 385 720 l 1,21,-1
 250 558 l 1,15,-1
EndSplineSet
EndChar

StartChar: Sacute
Encoding: 346 346 253
Width: 521
GlyphClass: 2
Flags: W
LayerCount: 2
Fore
SplineSet
472 184 m 0,0,1
 472 95 472 95 409 44 c 128,-1,2
 346 -7 346 -7 246 -7 c 0,3,4
 135 -7 135 -7 62 36 c 1,5,-1
 62 143 l 1,6,7
 141 84 141 84 245 84 c 0,8,9
 300 84 300 84 332 109.5 c 128,-1,10
 364 135 364 135 364 180 c 0,11,12
 364 207 364 207 345 229.5 c 128,-1,13
 326 252 326 252 304 263.5 c 128,-1,14
 282 275 282 275 238 295 c 0,15,16
 212 307 212 307 201.5 312 c 128,-1,17
 191 317 191 317 167 330 c 128,-1,18
 143 343 143 343 131.5 352 c 128,-1,19
 120 361 120 361 103 377 c 128,-1,20
 86 393 86 393 78.5 409 c 128,-1,21
 71 425 71 425 64.5 446.5 c 128,-1,22
 58 468 58 468 58 493 c 0,23,24
 58 579 58 579 120.5 629 c 128,-1,25
 183 679 183 679 282 679 c 0,26,27
 373 679 373 679 437 647 c 1,28,-1
 437 545 l 1,29,30
 370 587 370 587 285 587 c 0,31,32
 230 587 230 587 198.5 562.5 c 128,-1,33
 167 538 167 538 167 498 c 128,-1,34
 167 458 167 458 198 434 c 128,-1,35
 229 410 229 410 293 382 c 0,36,37
 335 364 335 364 358.5 351 c 128,-1,38
 382 338 382 338 412.5 314.5 c 128,-1,39
 443 291 443 291 457.5 258.5 c 128,-1,40
 472 226 472 226 472 184 c 0,0,1
318 725 m 1,41,-1
 234 725 l 1,42,-1
 329 887 l 1,43,-1
 438 887 l 1,44,-1
 318 725 l 1,41,-1
EndSplineSet
EndChar

StartChar: sacute
Encoding: 347 347 254
Width: 419
GlyphClass: 2
Flags: W
LayerCount: 2
Fore
SplineSet
386 140 m 0,0,1
 386 72 386 72 338 33.5 c 128,-1,2
 290 -5 290 -5 208 -5 c 0,3,4
 118 -5 118 -5 58 25 c 1,5,-1
 58 118 l 1,6,7
 128 75 128 75 203 75 c 0,8,9
 242 75 242 75 263.5 91 c 128,-1,10
 285 107 285 107 285 133 c 0,11,12
 285 155 285 155 268 172.5 c 128,-1,13
 251 190 251 190 233.5 198.5 c 128,-1,14
 216 207 216 207 174 225 c 0,15,16
 55 274 55 274 55 369 c 0,17,18
 55 436 55 436 105 474 c 128,-1,19
 155 512 155 512 230 512 c 0,20,21
 312 512 312 512 358 490 c 1,22,-1
 358 401 l 1,23,24
 309 430 309 430 232 430 c 0,25,26
 197 430 197 430 176.5 414 c 128,-1,27
 156 398 156 398 156 372 c 0,28,29
 156 365 156 365 157.5 358.5 c 128,-1,30
 159 352 159 352 163 345.5 c 128,-1,31
 167 339 167 339 170.5 334.5 c 128,-1,32
 174 330 174 330 182 325 c 128,-1,33
 190 320 190 320 194.5 316.5 c 128,-1,34
 199 313 199 313 209.5 308 c 128,-1,35
 220 303 220 303 225 300.5 c 128,-1,36
 230 298 230 298 242.5 292.5 c 128,-1,37
 255 287 255 287 260 285 c 0,38,39
 319 259 319 259 352.5 226.5 c 128,-1,40
 386 194 386 194 386 140 c 0,0,1
270 558 m 1,41,-1
 186 558 l 1,42,-1
 281 720 l 1,43,-1
 390 720 l 1,44,-1
 270 558 l 1,41,-1
EndSplineSet
EndChar

StartChar: uni015E
Encoding: 350 350 255
Width: 521
GlyphClass: 2
Flags: W
LayerCount: 2
Fore
SplineSet
472 184 m 0,0,1
 472 95 472 95 409 44 c 128,-1,2
 346 -7 346 -7 246 -7 c 0,3,4
 135 -7 135 -7 62 36 c 1,5,-1
 62 143 l 1,6,7
 141 84 141 84 245 84 c 0,8,9
 300 84 300 84 332 109.5 c 128,-1,10
 364 135 364 135 364 180 c 0,11,12
 364 207 364 207 345 229.5 c 128,-1,13
 326 252 326 252 304 263.5 c 128,-1,14
 282 275 282 275 238 295 c 0,15,16
 212 307 212 307 201.5 312 c 128,-1,17
 191 317 191 317 167 330 c 128,-1,18
 143 343 143 343 131.5 352 c 128,-1,19
 120 361 120 361 103 377 c 128,-1,20
 86 393 86 393 78.5 409 c 128,-1,21
 71 425 71 425 64.5 446.5 c 128,-1,22
 58 468 58 468 58 493 c 0,23,24
 58 579 58 579 120.5 629 c 128,-1,25
 183 679 183 679 282 679 c 0,26,27
 373 679 373 679 437 647 c 1,28,-1
 437 545 l 1,29,30
 370 587 370 587 285 587 c 0,31,32
 230 587 230 587 198.5 562.5 c 128,-1,33
 167 538 167 538 167 498 c 128,-1,34
 167 458 167 458 198 434 c 128,-1,35
 229 410 229 410 293 382 c 0,36,37
 335 364 335 364 358.5 351 c 128,-1,38
 382 338 382 338 412.5 314.5 c 128,-1,39
 443 291 443 291 457.5 258.5 c 128,-1,40
 472 226 472 226 472 184 c 0,0,1
321 -123 m 0,41,42
 321 -179 321 -179 280 -217.5 c 128,-1,43
 239 -256 239 -256 162 -257 c 1,44,-1
 162 -189 l 1,45,46
 244 -184 244 -184 244 -120 c 0,47,48
 244 -88 244 -88 219 -51 c 1,49,-1
 303 -51 l 1,50,51
 321 -76 321 -76 321 -123 c 0,41,42
EndSplineSet
EndChar

StartChar: uni015F
Encoding: 351 351 256
Width: 419
GlyphClass: 2
Flags: W
LayerCount: 2
Fore
SplineSet
386 140 m 0,0,1
 386 72 386 72 338 33.5 c 128,-1,2
 290 -5 290 -5 208 -5 c 0,3,4
 118 -5 118 -5 58 25 c 1,5,-1
 58 118 l 1,6,7
 128 75 128 75 203 75 c 0,8,9
 242 75 242 75 263.5 91 c 128,-1,10
 285 107 285 107 285 133 c 0,11,12
 285 155 285 155 268 172.5 c 128,-1,13
 251 190 251 190 233.5 198.5 c 128,-1,14
 216 207 216 207 174 225 c 0,15,16
 55 274 55 274 55 369 c 0,17,18
 55 436 55 436 105 474 c 128,-1,19
 155 512 155 512 230 512 c 0,20,21
 312 512 312 512 358 490 c 1,22,-1
 358 401 l 1,23,24
 309 430 309 430 232 430 c 0,25,26
 197 430 197 430 176.5 414 c 128,-1,27
 156 398 156 398 156 372 c 0,28,29
 156 365 156 365 157.5 358.5 c 128,-1,30
 159 352 159 352 163 345.5 c 128,-1,31
 167 339 167 339 170.5 334.5 c 128,-1,32
 174 330 174 330 182 325 c 128,-1,33
 190 320 190 320 194.5 316.5 c 128,-1,34
 199 313 199 313 209.5 308 c 128,-1,35
 220 303 220 303 225 300.5 c 128,-1,36
 230 298 230 298 242.5 292.5 c 128,-1,37
 255 287 255 287 260 285 c 0,38,39
 319 259 319 259 352.5 226.5 c 128,-1,40
 386 194 386 194 386 140 c 0,0,1
283 -123 m 0,41,42
 283 -179 283 -179 242 -217.5 c 128,-1,43
 201 -256 201 -256 124 -257 c 1,44,-1
 124 -189 l 1,45,46
 206 -184 206 -184 206 -120 c 0,47,48
 206 -88 206 -88 181 -51 c 1,49,-1
 265 -51 l 1,50,51
 283 -76 283 -76 283 -123 c 0,41,42
EndSplineSet
EndChar

StartChar: Scaron
Encoding: 352 352 257
Width: 521
GlyphClass: 2
Flags: W
LayerCount: 2
Fore
SplineSet
472 184 m 0,0,1
 472 95 472 95 409 44 c 128,-1,2
 346 -7 346 -7 246 -7 c 0,3,4
 135 -7 135 -7 62 36 c 1,5,-1
 62 143 l 1,6,7
 141 84 141 84 245 84 c 0,8,9
 300 84 300 84 332 109.5 c 128,-1,10
 364 135 364 135 364 180 c 0,11,12
 364 207 364 207 345 229.5 c 128,-1,13
 326 252 326 252 304 263.5 c 128,-1,14
 282 275 282 275 238 295 c 0,15,16
 212 307 212 307 201.5 312 c 128,-1,17
 191 317 191 317 167 330 c 128,-1,18
 143 343 143 343 131.5 352 c 128,-1,19
 120 361 120 361 103 377 c 128,-1,20
 86 393 86 393 78.5 409 c 128,-1,21
 71 425 71 425 64.5 446.5 c 128,-1,22
 58 468 58 468 58 493 c 0,23,24
 58 579 58 579 120.5 629 c 128,-1,25
 183 679 183 679 282 679 c 0,26,27
 373 679 373 679 437 647 c 1,28,-1
 437 545 l 1,29,30
 370 587 370 587 285 587 c 0,31,32
 230 587 230 587 198.5 562.5 c 128,-1,33
 167 538 167 538 167 498 c 128,-1,34
 167 458 167 458 198 434 c 128,-1,35
 229 410 229 410 293 382 c 0,36,37
 335 364 335 364 358.5 351 c 128,-1,38
 382 338 382 338 412.5 314.5 c 128,-1,39
 443 291 443 291 457.5 258.5 c 128,-1,40
 472 226 472 226 472 184 c 0,0,1
309 725 m 1,41,-1
 219 725 l 1,42,-1
 84 887 l 1,43,-1
 181 887 l 1,44,-1
 264 785 l 1,45,-1
 347 887 l 1,46,-1
 444 887 l 1,47,-1
 309 725 l 1,41,-1
EndSplineSet
EndChar

StartChar: scaron
Encoding: 353 353 258
Width: 419
GlyphClass: 2
Flags: W
LayerCount: 2
Fore
SplineSet
386 140 m 0,0,1
 386 72 386 72 338 33.5 c 128,-1,2
 290 -5 290 -5 208 -5 c 0,3,4
 118 -5 118 -5 58 25 c 1,5,-1
 58 118 l 1,6,7
 128 75 128 75 203 75 c 0,8,9
 242 75 242 75 263.5 91 c 128,-1,10
 285 107 285 107 285 133 c 0,11,12
 285 155 285 155 268 172.5 c 128,-1,13
 251 190 251 190 233.5 198.5 c 128,-1,14
 216 207 216 207 174 225 c 0,15,16
 55 274 55 274 55 369 c 0,17,18
 55 436 55 436 105 474 c 128,-1,19
 155 512 155 512 230 512 c 0,20,21
 312 512 312 512 358 490 c 1,22,-1
 358 401 l 1,23,24
 309 430 309 430 232 430 c 0,25,26
 197 430 197 430 176.5 414 c 128,-1,27
 156 398 156 398 156 372 c 0,28,29
 156 365 156 365 157.5 358.5 c 128,-1,30
 159 352 159 352 163 345.5 c 128,-1,31
 167 339 167 339 170.5 334.5 c 128,-1,32
 174 330 174 330 182 325 c 128,-1,33
 190 320 190 320 194.5 316.5 c 128,-1,34
 199 313 199 313 209.5 308 c 128,-1,35
 220 303 220 303 225 300.5 c 128,-1,36
 230 298 230 298 242.5 292.5 c 128,-1,37
 255 287 255 287 260 285 c 0,38,39
 319 259 319 259 352.5 226.5 c 128,-1,40
 386 194 386 194 386 140 c 0,0,1
278 558 m 1,41,-1
 188 558 l 1,42,-1
 53 720 l 1,43,-1
 150 720 l 1,44,-1
 233 618 l 1,45,-1
 316 720 l 1,46,-1
 413 720 l 1,47,-1
 278 558 l 1,41,-1
EndSplineSet
EndChar

StartChar: uni0162
Encoding: 354 354 259
Width: 500
GlyphClass: 2
Flags: W
LayerCount: 2
Fore
SplineSet
478 588 m 1,0,-1
 301 588 l 1,1,-1
 301 0 l 1,2,-1
 198 0 l 1,3,-1
 198 588 l 1,4,-1
 22 588 l 1,5,-1
 22 674 l 1,6,-1
 478 674 l 1,7,-1
 478 588 l 1,0,-1
311 -123 m 0,8,9
 311 -179 311 -179 270 -217.5 c 128,-1,10
 229 -256 229 -256 152 -257 c 1,11,-1
 152 -189 l 1,12,13
 234 -184 234 -184 234 -120 c 0,14,15
 234 -88 234 -88 209 -51 c 1,16,-1
 293 -51 l 1,17,18
 311 -76 311 -76 311 -123 c 0,8,9
EndSplineSet
EndChar

StartChar: uni0163
Encoding: 355 355 260
Width: 374
GlyphClass: 2
Flags: W
LayerCount: 2
Fore
SplineSet
335 13 m 1,0,1
 302 -5 302 -5 254 -5 c 0,2,3
 97 -5 97 -5 97 154 c 2,4,-1
 97 431 l 1,5,-1
 18 431 l 1,6,-1
 18 507 l 1,7,-1
 97 507 l 1,8,-1
 97 631 l 1,9,-1
 196 631 l 1,10,-1
 196 507 l 1,11,-1
 329 507 l 1,12,-1
 329 431 l 1,13,-1
 196 431 l 1,14,-1
 196 152 l 2,15,16
 196 79 196 79 266 79 c 0,17,18
 307 79 307 79 335 101 c 1,19,-1
 335 13 l 1,0,1
262 -123 m 0,20,21
 262 -179 262 -179 221 -217.5 c 128,-1,22
 180 -256 180 -256 103 -257 c 1,23,-1
 103 -189 l 1,24,25
 185 -184 185 -184 185 -120 c 0,26,27
 185 -88 185 -88 160 -51 c 1,28,-1
 244 -51 l 1,29,30
 262 -76 262 -76 262 -123 c 0,20,21
EndSplineSet
EndChar

StartChar: Tcaron
Encoding: 356 356 261
Width: 500
GlyphClass: 2
Flags: W
LayerCount: 2
Fore
SplineSet
478 588 m 1,0,-1
 301 588 l 1,1,-1
 301 0 l 1,2,-1
 198 0 l 1,3,-1
 198 588 l 1,4,-1
 22 588 l 1,5,-1
 22 674 l 1,6,-1
 478 674 l 1,7,-1
 478 588 l 1,0,-1
296 725 m 1,8,-1
 206 725 l 1,9,-1
 71 887 l 1,10,-1
 168 887 l 1,11,-1
 251 785 l 1,12,-1
 334 887 l 1,13,-1
 431 887 l 1,14,-1
 296 725 l 1,8,-1
EndSplineSet
EndChar

StartChar: tcaron
Encoding: 357 357 262
Width: 374
GlyphClass: 2
Flags: W
LayerCount: 2
Fore
SplineSet
335 13 m 1,0,1
 302 -5 302 -5 254 -5 c 0,2,3
 97 -5 97 -5 97 154 c 2,4,-1
 97 431 l 1,5,-1
 18 431 l 1,6,-1
 18 507 l 1,7,-1
 97 507 l 1,8,-1
 97 631 l 1,9,-1
 196 631 l 1,10,-1
 196 507 l 1,11,-1
 329 507 l 1,12,-1
 329 431 l 1,13,-1
 196 431 l 1,14,-1
 196 152 l 2,15,16
 196 79 196 79 266 79 c 0,17,18
 307 79 307 79 335 101 c 1,19,-1
 335 13 l 1,0,1
329 573 m 1,20,-1
 253 573 l 1,21,-1
 333 771 l 1,22,-1
 442 771 l 1,23,-1
 329 573 l 1,20,-1
EndSplineSet
EndChar

StartChar: Umacron
Encoding: 362 362 263
Width: 652
GlyphClass: 2
Flags: W
LayerCount: 2
Fore
SplineSet
581 258 m 2,0,1
 581 127 581 127 513 59 c 128,-1,2
 445 -9 445 -9 325 -9 c 0,3,4
 207 -9 207 -9 139 57.5 c 128,-1,5
 71 124 71 124 71 250 c 2,6,-1
 71 674 l 1,7,-1
 174 674 l 1,8,-1
 174 251 l 2,9,10
 174 165 174 165 215.5 125.5 c 128,-1,11
 257 86 257 86 325 86 c 0,12,13
 478 86 478 86 478 256 c 2,14,-1
 478 674 l 1,15,-1
 581 674 l 1,16,-1
 581 258 l 2,0,1
483 772 m 1,17,-1
 179 772 l 1,18,-1
 179 840 l 1,19,-1
 483 840 l 1,20,-1
 483 772 l 1,17,-1
EndSplineSet
EndChar

StartChar: umacron
Encoding: 363 363 264
Width: 551
GlyphClass: 2
Flags: W
LayerCount: 2
Fore
SplineSet
482 0 m 1,0,-1
 384 0 l 1,1,-1
 384 87 l 1,2,3
 344 -6 344 -6 226 -6 c 0,4,5
 151 -6 151 -6 107 38.5 c 128,-1,6
 63 83 63 83 63 161 c 2,7,-1
 63 507 l 1,8,-1
 162 507 l 1,9,-1
 162 185 l 2,10,11
 162 133 162 133 187.5 105.5 c 128,-1,12
 213 78 213 78 258 78 c 0,13,14
 315 78 315 78 349.5 118 c 128,-1,15
 384 158 384 158 384 231 c 2,16,-1
 384 507 l 1,17,-1
 482 507 l 1,18,-1
 482 0 l 1,0,-1
425 605 m 1,19,-1
 121 605 l 1,20,-1
 121 673 l 1,21,-1
 425 673 l 1,22,-1
 425 605 l 1,19,-1
EndSplineSet
EndChar

StartChar: Uring
Encoding: 366 366 265
Width: 652
GlyphClass: 2
Flags: W
LayerCount: 2
Fore
SplineSet
581 258 m 2,0,1
 581 127 581 127 513 59 c 128,-1,2
 445 -9 445 -9 325 -9 c 0,3,4
 207 -9 207 -9 139 57.5 c 128,-1,5
 71 124 71 124 71 250 c 2,6,-1
 71 674 l 1,7,-1
 174 674 l 1,8,-1
 174 251 l 2,9,10
 174 165 174 165 215.5 125.5 c 128,-1,11
 257 86 257 86 325 86 c 0,12,13
 478 86 478 86 478 256 c 2,14,-1
 478 674 l 1,15,-1
 581 674 l 1,16,-1
 581 258 l 2,0,1
444 829 m 0,17,18
 444 782 444 782 410 748.5 c 128,-1,19
 376 715 376 715 328 715 c 0,20,21
 281 715 281 715 247.5 748.5 c 128,-1,22
 214 782 214 782 214 829 c 0,23,24
 214 877 214 877 247.5 911 c 128,-1,25
 281 945 281 945 328 945 c 0,26,27
 376 945 376 945 410 911 c 128,-1,28
 444 877 444 877 444 829 c 0,17,18
275 831 m 128,-1,30
 275 809 275 809 290.5 792.5 c 128,-1,31
 306 776 306 776 328 776 c 0,32,33
 351 776 351 776 366.5 792.5 c 128,-1,34
 382 809 382 809 382 831 c 128,-1,35
 382 853 382 853 366.5 869 c 128,-1,36
 351 885 351 885 328 885 c 0,37,38
 306 885 306 885 290.5 869 c 128,-1,29
 275 853 275 853 275 831 c 128,-1,30
EndSplineSet
EndChar

StartChar: uring
Encoding: 367 367 266
Width: 551
GlyphClass: 2
Flags: W
LayerCount: 2
Fore
SplineSet
482 0 m 1,0,-1
 384 0 l 1,1,-1
 384 87 l 1,2,3
 344 -6 344 -6 226 -6 c 0,4,5
 151 -6 151 -6 107 38.5 c 128,-1,6
 63 83 63 83 63 161 c 2,7,-1
 63 507 l 1,8,-1
 162 507 l 1,9,-1
 162 185 l 2,10,11
 162 133 162 133 187.5 105.5 c 128,-1,12
 213 78 213 78 258 78 c 0,13,14
 315 78 315 78 349.5 118 c 128,-1,15
 384 158 384 158 384 231 c 2,16,-1
 384 507 l 1,17,-1
 482 507 l 1,18,-1
 482 0 l 1,0,-1
395 662 m 0,19,20
 395 615 395 615 361 581.5 c 128,-1,21
 327 548 327 548 279 548 c 0,22,23
 232 548 232 548 198.5 581.5 c 128,-1,24
 165 615 165 615 165 662 c 0,25,26
 165 710 165 710 198.5 744 c 128,-1,27
 232 778 232 778 279 778 c 0,28,29
 327 778 327 778 361 744 c 128,-1,30
 395 710 395 710 395 662 c 0,19,20
226 664 m 128,-1,32
 226 642 226 642 241.5 625.5 c 128,-1,33
 257 609 257 609 279 609 c 0,34,35
 302 609 302 609 317.5 625.5 c 128,-1,36
 333 642 333 642 333 664 c 128,-1,37
 333 686 333 686 317.5 702 c 128,-1,38
 302 718 302 718 279 718 c 0,39,40
 257 718 257 718 241.5 702 c 128,-1,31
 226 686 226 686 226 664 c 128,-1,32
EndSplineSet
EndChar

StartChar: Uhungarumlaut
Encoding: 368 368 267
Width: 652
GlyphClass: 2
Flags: W
LayerCount: 2
Fore
SplineSet
581 258 m 2,0,1
 581 127 581 127 513 59 c 128,-1,2
 445 -9 445 -9 325 -9 c 0,3,4
 207 -9 207 -9 139 57.5 c 128,-1,5
 71 124 71 124 71 250 c 2,6,-1
 71 674 l 1,7,-1
 174 674 l 1,8,-1
 174 251 l 2,9,10
 174 165 174 165 215.5 125.5 c 128,-1,11
 257 86 257 86 325 86 c 0,12,13
 478 86 478 86 478 256 c 2,14,-1
 478 674 l 1,15,-1
 581 674 l 1,16,-1
 581 258 l 2,0,1
444 725 m 1,17,-1
 369 725 l 1,18,-1
 469 887 l 1,19,-1
 578 887 l 1,20,-1
 444 725 l 1,17,-1
279 725 m 1,21,-1
 204 725 l 1,22,-1
 298 887 l 1,23,-1
 401 887 l 1,24,-1
 279 725 l 1,21,-1
EndSplineSet
EndChar

StartChar: uhungarumlaut
Encoding: 369 369 268
Width: 551
GlyphClass: 2
Flags: W
LayerCount: 2
Fore
SplineSet
482 0 m 1,0,-1
 384 0 l 1,1,-1
 384 87 l 1,2,3
 344 -6 344 -6 226 -6 c 0,4,5
 151 -6 151 -6 107 38.5 c 128,-1,6
 63 83 63 83 63 161 c 2,7,-1
 63 507 l 1,8,-1
 162 507 l 1,9,-1
 162 185 l 2,10,11
 162 133 162 133 187.5 105.5 c 128,-1,12
 213 78 213 78 258 78 c 0,13,14
 315 78 315 78 349.5 118 c 128,-1,15
 384 158 384 158 384 231 c 2,16,-1
 384 507 l 1,17,-1
 482 507 l 1,18,-1
 482 0 l 1,0,-1
398 558 m 1,19,-1
 323 558 l 1,20,-1
 423 720 l 1,21,-1
 532 720 l 1,22,-1
 398 558 l 1,19,-1
233 558 m 1,23,-1
 158 558 l 1,24,-1
 252 720 l 1,25,-1
 355 720 l 1,26,-1
 233 558 l 1,23,-1
EndSplineSet
EndChar

StartChar: Uogonek
Encoding: 370 370 269
Width: 652
GlyphClass: 2
Flags: W
LayerCount: 2
Fore
SplineSet
581 258 m 2,0,1
 581 59 581 59 427 6 c 1,2,3
 314 -54 314 -54 314 -120 c 0,4,5
 314 -171 314 -171 372 -171 c 0,6,7
 413 -171 413 -171 446 -147 c 1,8,-1
 446 -219 l 1,9,10
 410 -240 410 -240 359 -240 c 0,11,12
 297 -240 297 -240 264.5 -208.5 c 128,-1,13
 232 -177 232 -177 232 -128 c 0,14,15
 232 -62 232 -62 293 -8 c 1,16,17
 189 1 189 1 130 67 c 128,-1,18
 71 133 71 133 71 250 c 2,19,-1
 71 674 l 1,20,-1
 174 674 l 1,21,-1
 174 251 l 2,22,23
 174 165 174 165 215.5 125.5 c 128,-1,24
 257 86 257 86 325 86 c 0,25,26
 478 86 478 86 478 256 c 2,27,-1
 478 674 l 1,28,-1
 581 674 l 1,29,-1
 581 258 l 2,0,1
EndSplineSet
EndChar

StartChar: uogonek
Encoding: 371 371 270
Width: 551
GlyphClass: 2
Flags: W
LayerCount: 2
Fore
SplineSet
500 -226 m 1,0,1
 464 -247 464 -247 413 -247 c 0,2,3
 351 -247 351 -247 318.5 -215.5 c 128,-1,4
 286 -184 286 -184 286 -135 c 0,5,6
 286 -49 286 -49 384 14 c 1,7,-1
 384 87 l 1,8,9
 344 -6 344 -6 226 -6 c 0,10,11
 151 -6 151 -6 107 38.5 c 128,-1,12
 63 83 63 83 63 161 c 2,13,-1
 63 507 l 1,14,-1
 162 507 l 1,15,-1
 162 185 l 2,16,17
 162 133 162 133 187.5 105.5 c 128,-1,18
 213 78 213 78 258 78 c 0,19,20
 315 78 315 78 349.5 118 c 128,-1,21
 384 158 384 158 384 231 c 2,22,-1
 384 507 l 1,23,-1
 482 507 l 1,24,-1
 482 0 l 1,25,26
 368 -61 368 -61 368 -127 c 0,27,28
 368 -178 368 -178 426 -178 c 0,29,30
 467 -178 467 -178 500 -154 c 1,31,-1
 500 -226 l 1,0,1
EndSplineSet
EndChar

StartChar: Ydieresis
Encoding: 376 376 271
Width: 608
GlyphClass: 2
Flags: W
LayerCount: 2
Fore
SplineSet
354 0 m 1,0,-1
 251 0 l 1,1,-1
 251 251 l 1,2,-1
 23 674 l 1,3,-1
 141 674 l 1,4,-1
 189 575 l 2,5,6
 235 482 235 482 263 422 c 128,-1,7
 291 362 291 362 296 348 c 2,8,-1
 302 335 l 1,9,10
 311 365 311 365 418 575 c 2,11,-1
 467 674 l 1,12,-1
 585 674 l 1,13,-1
 354 251 l 1,14,-1
 354 0 l 1,0,-1
478 806 m 128,-1,16
 478 780 478 780 460.5 763 c 128,-1,17
 443 746 443 746 417 746 c 0,18,19
 392 746 392 746 374.5 763 c 128,-1,20
 357 780 357 780 357 806 c 128,-1,21
 357 832 357 832 374.5 849 c 128,-1,22
 392 866 392 866 417 866 c 0,23,24
 443 866 443 866 460.5 849 c 128,-1,15
 478 832 478 832 478 806 c 128,-1,16
257 806 m 128,-1,26
 257 780 257 780 239.5 763 c 128,-1,27
 222 746 222 746 197 746 c 0,28,29
 170 746 170 746 153 763 c 128,-1,30
 136 780 136 780 136 806 c 128,-1,31
 136 832 136 832 153 849 c 128,-1,32
 170 866 170 866 197 866 c 0,33,34
 222 866 222 866 239.5 849 c 128,-1,25
 257 832 257 832 257 806 c 128,-1,26
EndSplineSet
EndChar

StartChar: Zacute
Encoding: 377 377 272
Width: 584
GlyphClass: 2
Flags: W
LayerCount: 2
Fore
SplineSet
530 0 m 1,0,-1
 54 0 l 1,1,-1
 54 81 l 1,2,-1
 394 589 l 1,3,-1
 59 589 l 1,4,-1
 59 674 l 1,5,-1
 516 674 l 1,6,-1
 516 595 l 1,7,-1
 175 85 l 1,8,-1
 530 85 l 1,9,-1
 530 0 l 1,0,-1
350 725 m 1,10,-1
 266 725 l 1,11,-1
 361 887 l 1,12,-1
 470 887 l 1,13,-1
 350 725 l 1,10,-1
EndSplineSet
EndChar

StartChar: zacute
Encoding: 378 378 273
Width: 461
GlyphClass: 2
Flags: W
LayerCount: 2
Fore
SplineSet
418 0 m 1,0,-1
 43 0 l 1,1,-1
 43 75 l 1,2,-1
 289 425 l 1,3,-1
 52 425 l 1,4,-1
 52 507 l 1,5,-1
 405 507 l 1,6,-1
 405 437 l 1,7,-1
 156 83 l 1,8,-1
 418 83 l 1,9,-1
 418 0 l 1,0,-1
284 558 m 1,10,-1
 200 558 l 1,11,-1
 295 720 l 1,12,-1
 404 720 l 1,13,-1
 284 558 l 1,10,-1
EndSplineSet
EndChar

StartChar: Zdotaccent
Encoding: 379 379 274
Width: 584
GlyphClass: 2
Flags: W
LayerCount: 2
Fore
SplineSet
530 0 m 1,0,-1
 54 0 l 1,1,-1
 54 81 l 1,2,-1
 394 589 l 1,3,-1
 59 589 l 1,4,-1
 59 674 l 1,5,-1
 516 674 l 1,6,-1
 516 595 l 1,7,-1
 175 85 l 1,8,-1
 530 85 l 1,9,-1
 530 0 l 1,0,-1
363 808 m 128,-1,11
 363 782 363 782 346 765 c 128,-1,12
 329 748 329 748 303 748 c 128,-1,13
 277 748 277 748 259.5 765 c 128,-1,14
 242 782 242 782 242 808 c 128,-1,15
 242 834 242 834 259.5 851 c 128,-1,16
 277 868 277 868 303 868 c 128,-1,17
 329 868 329 868 346 851 c 128,-1,10
 363 834 363 834 363 808 c 128,-1,11
EndSplineSet
EndChar

StartChar: zdotaccent
Encoding: 380 380 275
Width: 461
GlyphClass: 2
Flags: W
LayerCount: 2
Fore
SplineSet
418 0 m 1,0,-1
 43 0 l 1,1,-1
 43 75 l 1,2,-1
 289 425 l 1,3,-1
 52 425 l 1,4,-1
 52 507 l 1,5,-1
 405 507 l 1,6,-1
 405 437 l 1,7,-1
 156 83 l 1,8,-1
 418 83 l 1,9,-1
 418 0 l 1,0,-1
305 639 m 128,-1,11
 305 613 305 613 288 596 c 128,-1,12
 271 579 271 579 245 579 c 128,-1,13
 219 579 219 579 201.5 596 c 128,-1,14
 184 613 184 613 184 639 c 128,-1,15
 184 665 184 665 201.5 682 c 128,-1,16
 219 699 219 699 245 699 c 128,-1,17
 271 699 271 699 288 682 c 128,-1,10
 305 665 305 665 305 639 c 128,-1,11
EndSplineSet
EndChar

StartChar: Zcaron
Encoding: 381 381 276
Width: 584
GlyphClass: 2
Flags: W
LayerCount: 2
Fore
SplineSet
530 0 m 1,0,-1
 54 0 l 1,1,-1
 54 81 l 1,2,-1
 394 589 l 1,3,-1
 59 589 l 1,4,-1
 59 674 l 1,5,-1
 516 674 l 1,6,-1
 516 595 l 1,7,-1
 175 85 l 1,8,-1
 530 85 l 1,9,-1
 530 0 l 1,0,-1
339 725 m 1,10,-1
 249 725 l 1,11,-1
 114 887 l 1,12,-1
 211 887 l 1,13,-1
 294 785 l 1,14,-1
 377 887 l 1,15,-1
 474 887 l 1,16,-1
 339 725 l 1,10,-1
EndSplineSet
EndChar

StartChar: zcaron
Encoding: 382 382 277
Width: 461
GlyphClass: 2
Flags: W
LayerCount: 2
Fore
SplineSet
418 0 m 1,0,-1
 43 0 l 1,1,-1
 43 75 l 1,2,-1
 289 425 l 1,3,-1
 52 425 l 1,4,-1
 52 507 l 1,5,-1
 405 507 l 1,6,-1
 405 437 l 1,7,-1
 156 83 l 1,8,-1
 418 83 l 1,9,-1
 418 0 l 1,0,-1
292 558 m 1,10,-1
 202 558 l 1,11,-1
 67 720 l 1,12,-1
 164 720 l 1,13,-1
 247 618 l 1,14,-1
 330 720 l 1,15,-1
 427 720 l 1,16,-1
 292 558 l 1,10,-1
EndSplineSet
EndChar

StartChar: florin
Encoding: 402 402 278
Width: 430
GlyphClass: 2
Flags: W
LayerCount: 2
Fore
SplineSet
194 -69 m 2,0,1
 163 -257 163 -257 21 -257 c 0,2,3
 -25 -257 -25 -257 -56 -245 c 1,4,-1
 -56 -160 l 1,5,6
 -25 -173 -25 -173 8 -173 c 0,7,8
 46 -173 46 -173 67 -145 c 128,-1,9
 88 -117 88 -117 97 -61 c 2,10,-1
 158 299 l 1,11,-1
 64 299 l 1,12,-1
 64 375 l 1,13,-1
 170 375 l 1,14,-1
 190 492 l 2,15,16
 221 680 221 680 364 680 c 0,17,18
 410 680 410 680 436 671 c 1,19,-1
 436 586 l 1,20,21
 408 596 408 596 379 596 c 0,22,23
 306 596 306 596 288 484 c 2,24,-1
 269 375 l 1,25,-1
 367 375 l 1,26,-1
 367 299 l 1,27,-1
 257 299 l 1,28,-1
 194 -69 l 2,0,1
EndSplineSet
EndChar

StartChar: uni0218
Encoding: 536 536 279
Width: 521
GlyphClass: 2
Flags: W
LayerCount: 2
Fore
SplineSet
472 184 m 0,0,1
 472 95 472 95 409 44 c 128,-1,2
 346 -7 346 -7 246 -7 c 0,3,4
 135 -7 135 -7 62 36 c 1,5,-1
 62 143 l 1,6,7
 141 84 141 84 245 84 c 0,8,9
 300 84 300 84 332 109.5 c 128,-1,10
 364 135 364 135 364 180 c 0,11,12
 364 207 364 207 345 229.5 c 128,-1,13
 326 252 326 252 304 263.5 c 128,-1,14
 282 275 282 275 238 295 c 0,15,16
 212 307 212 307 201.5 312 c 128,-1,17
 191 317 191 317 167 330 c 128,-1,18
 143 343 143 343 131.5 352 c 128,-1,19
 120 361 120 361 103 377 c 128,-1,20
 86 393 86 393 78.5 409 c 128,-1,21
 71 425 71 425 64.5 446.5 c 128,-1,22
 58 468 58 468 58 493 c 0,23,24
 58 579 58 579 120.5 629 c 128,-1,25
 183 679 183 679 282 679 c 0,26,27
 373 679 373 679 437 647 c 1,28,-1
 437 545 l 1,29,30
 370 587 370 587 285 587 c 0,31,32
 230 587 230 587 198.5 562.5 c 128,-1,33
 167 538 167 538 167 498 c 128,-1,34
 167 458 167 458 198 434 c 128,-1,35
 229 410 229 410 293 382 c 0,36,37
 335 364 335 364 358.5 351 c 128,-1,38
 382 338 382 338 412.5 314.5 c 128,-1,39
 443 291 443 291 457.5 258.5 c 128,-1,40
 472 226 472 226 472 184 c 0,0,1
208 -249 m 1,41,-1
 131 -249 l 1,42,-1
 211 -51 l 1,43,-1
 320 -51 l 1,44,-1
 208 -249 l 1,41,-1
EndSplineSet
EndChar

StartChar: uni0219
Encoding: 537 537 280
Width: 419
GlyphClass: 2
Flags: W
LayerCount: 2
Fore
SplineSet
386 140 m 0,0,1
 386 72 386 72 338 33.5 c 128,-1,2
 290 -5 290 -5 208 -5 c 0,3,4
 118 -5 118 -5 58 25 c 1,5,-1
 58 118 l 1,6,7
 128 75 128 75 203 75 c 0,8,9
 242 75 242 75 263.5 91 c 128,-1,10
 285 107 285 107 285 133 c 0,11,12
 285 155 285 155 268 172.5 c 128,-1,13
 251 190 251 190 233.5 198.5 c 128,-1,14
 216 207 216 207 174 225 c 0,15,16
 55 274 55 274 55 369 c 0,17,18
 55 436 55 436 105 474 c 128,-1,19
 155 512 155 512 230 512 c 0,20,21
 312 512 312 512 358 490 c 1,22,-1
 358 401 l 1,23,24
 309 430 309 430 232 430 c 0,25,26
 197 430 197 430 176.5 414 c 128,-1,27
 156 398 156 398 156 372 c 0,28,29
 156 365 156 365 157.5 358.5 c 128,-1,30
 159 352 159 352 163 345.5 c 128,-1,31
 167 339 167 339 170.5 334.5 c 128,-1,32
 174 330 174 330 182 325 c 128,-1,33
 190 320 190 320 194.5 316.5 c 128,-1,34
 199 313 199 313 209.5 308 c 128,-1,35
 220 303 220 303 225 300.5 c 128,-1,36
 230 298 230 298 242.5 292.5 c 128,-1,37
 255 287 255 287 260 285 c 0,38,39
 319 259 319 259 352.5 226.5 c 128,-1,40
 386 194 386 194 386 140 c 0,0,1
161 -249 m 1,41,-1
 85 -249 l 1,42,-1
 165 -51 l 1,43,-1
 274 -51 l 1,44,-1
 161 -249 l 1,41,-1
EndSplineSet
EndChar

StartChar: uni021A
Encoding: 538 538 281
Width: 500
GlyphClass: 2
Flags: W
LayerCount: 2
Fore
SplineSet
190 -249 m 1,0,-1
 113 -249 l 1,1,-1
 193 -51 l 1,2,-1
 302 -51 l 1,3,-1
 190 -249 l 1,0,-1
478 588 m 1,4,-1
 301 588 l 1,5,-1
 301 0 l 1,6,-1
 198 0 l 1,7,-1
 198 588 l 1,8,-1
 22 588 l 1,9,-1
 22 674 l 1,10,-1
 478 674 l 1,11,-1
 478 588 l 1,4,-1
EndSplineSet
EndChar

StartChar: uni021B
Encoding: 539 539 282
Width: 374
GlyphClass: 2
Flags: W
LayerCount: 2
Fore
SplineSet
335 13 m 1,0,1
 302 -5 302 -5 254 -5 c 0,2,3
 97 -5 97 -5 97 154 c 2,4,-1
 97 431 l 1,5,-1
 18 431 l 1,6,-1
 18 507 l 1,7,-1
 97 507 l 1,8,-1
 97 631 l 1,9,-1
 196 631 l 1,10,-1
 196 507 l 1,11,-1
 329 507 l 1,12,-1
 329 431 l 1,13,-1
 196 431 l 1,14,-1
 196 152 l 2,15,16
 196 79 196 79 266 79 c 0,17,18
 307 79 307 79 335 101 c 1,19,-1
 335 13 l 1,0,1
188 -249 m 1,20,-1
 111 -249 l 1,21,-1
 191 -51 l 1,22,-1
 300 -51 l 1,23,-1
 188 -249 l 1,20,-1
EndSplineSet
EndChar

StartChar: circumflex
Encoding: 710 710 283
Width: 444
GlyphClass: 2
Flags: W
LayerCount: 2
Fore
SplineSet
139 636 m 1,0,-1
 42 636 l 1,1,-1
 177 798 l 1,2,-1
 267 798 l 1,3,-1
 402 636 l 1,4,-1
 305 636 l 1,5,-1
 221 738 l 1,6,-1
 139 636 l 1,0,-1
EndSplineSet
EndChar

StartChar: caron
Encoding: 711 711 284
Width: 444
GlyphClass: 2
Flags: W
LayerCount: 2
Fore
SplineSet
267 636 m 1,0,-1
 177 636 l 1,1,-1
 42 798 l 1,2,-1
 139 798 l 1,3,-1
 222 696 l 1,4,-1
 305 798 l 1,5,-1
 402 798 l 1,6,-1
 267 636 l 1,0,-1
EndSplineSet
EndChar

StartChar: uni02C9
Encoding: 713 713 285
Width: 444
GlyphClass: 2
Flags: W
LayerCount: 2
Fore
SplineSet
374 681 m 1,0,-1
 70 681 l 1,1,-1
 70 749 l 1,2,-1
 374 749 l 1,3,-1
 374 681 l 1,0,-1
EndSplineSet
EndChar

StartChar: breve
Encoding: 728 728 286
Width: 444
GlyphClass: 2
Flags: W
LayerCount: 2
Fore
SplineSet
396 798 m 1,0,1
 396 719 396 719 351 676 c 128,-1,2
 306 633 306 633 222 633 c 128,-1,3
 138 633 138 633 93 676 c 128,-1,4
 48 719 48 719 48 798 c 1,5,-1
 126 798 l 1,6,7
 126 754 126 754 150 727 c 128,-1,8
 174 700 174 700 222 700 c 128,-1,9
 270 700 270 700 294 727 c 128,-1,10
 318 754 318 754 318 798 c 1,11,-1
 396 798 l 1,0,1
EndSplineSet
EndChar

StartChar: dotaccent
Encoding: 729 729 287
Width: 444
GlyphClass: 2
Flags: W
LayerCount: 2
Fore
SplineSet
282 720 m 128,-1,1
 282 694 282 694 265 677 c 128,-1,2
 248 660 248 660 222 660 c 128,-1,3
 196 660 196 660 178.5 677 c 128,-1,4
 161 694 161 694 161 720 c 128,-1,5
 161 746 161 746 178.5 763 c 128,-1,6
 196 780 196 780 222 780 c 128,-1,7
 248 780 248 780 265 763 c 128,-1,0
 282 746 282 746 282 720 c 128,-1,1
EndSplineSet
EndChar

StartChar: ring
Encoding: 730 730 288
Width: 444
GlyphClass: 2
Flags: W
LayerCount: 2
Fore
SplineSet
337 717 m 0,0,1
 337 670 337 670 303 636.5 c 128,-1,2
 269 603 269 603 221 603 c 0,3,4
 174 603 174 603 140.5 636.5 c 128,-1,5
 107 670 107 670 107 717 c 0,6,7
 107 765 107 765 140.5 799 c 128,-1,8
 174 833 174 833 221 833 c 0,9,10
 269 833 269 833 303 799 c 128,-1,11
 337 765 337 765 337 717 c 0,0,1
168 719 m 128,-1,13
 168 697 168 697 183.5 680.5 c 128,-1,14
 199 664 199 664 221 664 c 0,15,16
 244 664 244 664 259.5 680.5 c 128,-1,17
 275 697 275 697 275 719 c 128,-1,18
 275 741 275 741 259.5 757 c 128,-1,19
 244 773 244 773 221 773 c 0,20,21
 199 773 199 773 183.5 757 c 128,-1,12
 168 741 168 741 168 719 c 128,-1,13
EndSplineSet
EndChar

StartChar: ogonek
Encoding: 731 731 289
Width: 444
GlyphClass: 2
Flags: W
LayerCount: 2
Fore
SplineSet
329 -214 m 1,0,1
 293 -235 293 -235 242 -235 c 0,2,3
 180 -235 180 -235 147.5 -203.5 c 128,-1,4
 115 -172 115 -172 115 -123 c 0,5,6
 115 -61 115 -61 165 -13 c 128,-1,7
 215 35 215 35 275 57 c 1,8,-1
 311 12 l 1,9,10
 197 -49 197 -49 197 -115 c 0,11,12
 197 -166 197 -166 255 -166 c 0,13,14
 296 -166 296 -166 329 -142 c 1,15,-1
 329 -214 l 1,0,1
EndSplineSet
EndChar

StartChar: tilde
Encoding: 732 732 290
Width: 444
GlyphClass: 2
Flags: W
LayerCount: 2
Fore
SplineSet
170 688 m 0,0,1
 147 688 147 688 131.5 677 c 128,-1,2
 116 666 116 666 100 642 c 1,3,-1
 51 687 l 1,4,5
 65 718 65 718 93.5 739.5 c 128,-1,6
 122 761 122 761 156 761 c 0,7,8
 188 761 188 761 230 740.5 c 128,-1,9
 272 720 272 720 291 720 c 0,10,11
 328 720 328 720 349 763 c 1,12,-1
 405 721 l 1,13,14
 370 647 370 647 296 647 c 0,15,16
 267 647 267 647 226.5 667.5 c 128,-1,17
 186 688 186 688 170 688 c 0,0,1
EndSplineSet
EndChar

StartChar: hungarumlaut
Encoding: 733 733 291
Width: 444
GlyphClass: 2
Flags: W
LayerCount: 2
Fore
SplineSet
275 636 m 1,0,-1
 200 636 l 1,1,-1
 300 798 l 1,2,-1
 409 798 l 1,3,-1
 275 636 l 1,0,-1
110 636 m 1,4,-1
 35 636 l 1,5,-1
 129 798 l 1,6,-1
 232 798 l 1,7,-1
 110 636 l 1,4,-1
EndSplineSet
EndChar

StartChar: pi
Encoding: 960 960 292
Width: 589
GlyphClass: 2
Flags: W
LayerCount: 2
Fore
SplineSet
574 431 m 1,0,-1
 482 431 l 1,1,-1
 482 0 l 1,2,-1
 384 0 l 1,3,-1
 384 431 l 1,4,-1
 212 431 l 1,5,-1
 212 180 l 2,6,7
 212 80 212 80 169.5 40 c 128,-1,8
 127 0 127 0 40 0 c 1,9,-1
 40 84 l 1,10,11
 81 84 81 84 97.5 102 c 128,-1,12
 114 120 114 120 114 173 c 2,13,-1
 114 431 l 1,14,-1
 23 431 l 1,15,-1
 23 507 l 1,16,-1
 574 507 l 1,17,-1
 574 431 l 1,0,-1
EndSplineSet
EndChar

StartChar: danda
Encoding: 2404 2404 293
Width: 311
GlyphClass: 2
Flags: W
LayerCount: 2
Fore
SplineSet
226 0 m 1,0,-1
 133 0 l 1,1,-1
 133 650 l 1,2,-1
 226 650 l 1,3,-1
 226 0 l 1,0,-1
EndSplineSet
EndChar

StartChar: doubledanda
Encoding: 2405 2405 294
Width: 562
GlyphClass: 2
Flags: W
LayerCount: 2
Fore
SplineSet
477 0 m 1,0,-1
 384 0 l 1,1,-1
 384 650 l 1,2,-1
 477 650 l 1,3,-1
 477 0 l 1,0,-1
226 0 m 1,4,-1
 133 0 l 1,5,-1
 133 650 l 1,6,-1
 226 650 l 1,7,-1
 226 0 l 1,4,-1
EndSplineSet
EndChar

